<?xml version="1.0" encoding="UTF-8"?>
<svg xmlns="http://www.w3.org/2000/svg" xmlns:xlink="http://www.w3.org/1999/xlink"
     viewBox="0 0 1200 1200"
     width="7087px" height="7087px">
  <defs>
    <clipPath id="canvas"><rect width="1200" height="1200"/></clipPath>
    
  </defs>
  <rect width="1200" height="1200" fill="#ece8e0"/>
  <g clip-path="url(#canvas)"><g transform="translate(-400,-400)"><rect width="400" height="400" fill="#ece8e0"/>
  <rect width="400.0" height="400.0" fill="#ece8e0"/>
<polygon points="0.00,0.00 0.00,0.00 0.00,50.00 50.00,0.00" fill="#111111"/>
<polygon points="0.00,100.00 0.00,150.00 100.00,50.00 100.00,0.00" fill="#111111"/>
<polygon points="0.00,200.00 0.00,250.00 100.00,150.00 100.00,100.00" fill="#111111"/>
<polygon points="0.00,300.00 0.00,350.00 100.00,250.00 100.00,200.00" fill="#111111"/>
<polygon points="0.00,400.00 0.00,400.00 50.00,400.00 100.00,350.00 100.00,300.00" fill="#111111"/>
<polygon points="100.00,400.00 100.00,400.00 100.00,400.00" fill="#111111"/>
<polygon points="200.00,0.00 200.00,0.00 200.00,0.00" fill="#111111"/>
<polygon points="150.00,0.00 100.00,0.00 100.00,0.00 200.00,100.00 200.00,50.00" fill="#111111"/>
<polygon points="100.00,50.00 100.00,100.00 200.00,200.00 200.00,150.00" fill="#111111"/>
<polygon points="100.00,150.00 100.00,200.00 200.00,300.00 200.00,250.00" fill="#111111"/>
<polygon points="100.00,250.00 100.00,300.00 200.00,400.00 200.00,350.00" fill="#111111"/>
<polygon points="150.00,400.00 100.00,350.00 100.00,400.00 100.00,400.00" fill="#111111"/>
<polygon points="200.00,0.00 200.00,0.00 200.00,50.00 250.00,0.00" fill="#111111"/>
<polygon points="200.00,100.00 200.00,150.00 300.00,50.00 300.00,0.00" fill="#111111"/>
<polygon points="200.00,200.00 200.00,250.00 300.00,150.00 300.00,100.00" fill="#111111"/>
<polygon points="200.00,300.00 200.00,350.00 300.00,250.00 300.00,200.00" fill="#111111"/>
<polygon points="200.00,400.00 200.00,400.00 250.00,400.00 300.00,350.00 300.00,300.00" fill="#111111"/>
<polygon points="300.00,400.00 300.00,400.00 300.00,400.00" fill="#111111"/>
<polygon points="400.00,0.00 400.00,0.00 400.00,0.00" fill="#111111"/>
<polygon points="350.00,0.00 300.00,0.00 300.00,0.00 400.00,100.00 400.00,50.00" fill="#111111"/>
<polygon points="300.00,50.00 300.00,100.00 400.00,200.00 400.00,150.00" fill="#111111"/>
<polygon points="300.00,150.00 300.00,200.00 400.00,300.00 400.00,250.00" fill="#111111"/>
<polygon points="300.00,250.00 300.00,300.00 400.00,400.00 400.00,350.00" fill="#111111"/>
<polygon points="350.00,400.00 300.00,350.00 300.00,400.00 300.00,400.00" fill="#111111"/></g><g transform="translate(0,-400)"><rect width="400" height="400" fill="#ece8e0"/>
  <rect width="400.0" height="400.0" fill="#ece8e0"/>
<polygon points="0.00,0.00 0.00,0.00 0.00,50.00 50.00,0.00" fill="#111111"/>
<polygon points="0.00,100.00 0.00,150.00 100.00,50.00 100.00,0.00" fill="#111111"/>
<polygon points="0.00,200.00 0.00,250.00 100.00,150.00 100.00,100.00" fill="#111111"/>
<polygon points="0.00,300.00 0.00,350.00 100.00,250.00 100.00,200.00" fill="#111111"/>
<polygon points="0.00,400.00 0.00,400.00 50.00,400.00 100.00,350.00 100.00,300.00" fill="#111111"/>
<polygon points="100.00,400.00 100.00,400.00 100.00,400.00" fill="#111111"/>
<polygon points="200.00,0.00 200.00,0.00 200.00,0.00" fill="#111111"/>
<polygon points="150.00,0.00 100.00,0.00 100.00,0.00 200.00,100.00 200.00,50.00" fill="#111111"/>
<polygon points="100.00,50.00 100.00,100.00 200.00,200.00 200.00,150.00" fill="#111111"/>
<polygon points="100.00,150.00 100.00,200.00 200.00,300.00 200.00,250.00" fill="#111111"/>
<polygon points="100.00,250.00 100.00,300.00 200.00,400.00 200.00,350.00" fill="#111111"/>
<polygon points="150.00,400.00 100.00,350.00 100.00,400.00 100.00,400.00" fill="#111111"/>
<polygon points="200.00,0.00 200.00,0.00 200.00,50.00 250.00,0.00" fill="#111111"/>
<polygon points="200.00,100.00 200.00,150.00 300.00,50.00 300.00,0.00" fill="#111111"/>
<polygon points="200.00,200.00 200.00,250.00 300.00,150.00 300.00,100.00" fill="#111111"/>
<polygon points="200.00,300.00 200.00,350.00 300.00,250.00 300.00,200.00" fill="#111111"/>
<polygon points="200.00,400.00 200.00,400.00 250.00,400.00 300.00,350.00 300.00,300.00" fill="#111111"/>
<polygon points="300.00,400.00 300.00,400.00 300.00,400.00" fill="#111111"/>
<polygon points="400.00,0.00 400.00,0.00 400.00,0.00" fill="#111111"/>
<polygon points="350.00,0.00 300.00,0.00 300.00,0.00 400.00,100.00 400.00,50.00" fill="#111111"/>
<polygon points="300.00,50.00 300.00,100.00 400.00,200.00 400.00,150.00" fill="#111111"/>
<polygon points="300.00,150.00 300.00,200.00 400.00,300.00 400.00,250.00" fill="#111111"/>
<polygon points="300.00,250.00 300.00,300.00 400.00,400.00 400.00,350.00" fill="#111111"/>
<polygon points="350.00,400.00 300.00,350.00 300.00,400.00 300.00,400.00" fill="#111111"/></g><g transform="translate(400,-400)"><rect width="400" height="400" fill="#ece8e0"/>
  <rect width="400.0" height="400.0" fill="#ece8e0"/>
<polygon points="0.00,0.00 0.00,0.00 0.00,50.00 50.00,0.00" fill="#111111"/>
<polygon points="0.00,100.00 0.00,150.00 100.00,50.00 100.00,0.00" fill="#111111"/>
<polygon points="0.00,200.00 0.00,250.00 100.00,150.00 100.00,100.00" fill="#111111"/>
<polygon points="0.00,300.00 0.00,350.00 100.00,250.00 100.00,200.00" fill="#111111"/>
<polygon points="0.00,400.00 0.00,400.00 50.00,400.00 100.00,350.00 100.00,300.00" fill="#111111"/>
<polygon points="100.00,400.00 100.00,400.00 100.00,400.00" fill="#111111"/>
<polygon points="200.00,0.00 200.00,0.00 200.00,0.00" fill="#111111"/>
<polygon points="150.00,0.00 100.00,0.00 100.00,0.00 200.00,100.00 200.00,50.00" fill="#111111"/>
<polygon points="100.00,50.00 100.00,100.00 200.00,200.00 200.00,150.00" fill="#111111"/>
<polygon points="100.00,150.00 100.00,200.00 200.00,300.00 200.00,250.00" fill="#111111"/>
<polygon points="100.00,250.00 100.00,300.00 200.00,400.00 200.00,350.00" fill="#111111"/>
<polygon points="150.00,400.00 100.00,350.00 100.00,400.00 100.00,400.00" fill="#111111"/>
<polygon points="200.00,0.00 200.00,0.00 200.00,50.00 250.00,0.00" fill="#111111"/>
<polygon points="200.00,100.00 200.00,150.00 300.00,50.00 300.00,0.00" fill="#111111"/>
<polygon points="200.00,200.00 200.00,250.00 300.00,150.00 300.00,100.00" fill="#111111"/>
<polygon points="200.00,300.00 200.00,350.00 300.00,250.00 300.00,200.00" fill="#111111"/>
<polygon points="200.00,400.00 200.00,400.00 250.00,400.00 300.00,350.00 300.00,300.00" fill="#111111"/>
<polygon points="300.00,400.00 300.00,400.00 300.00,400.00" fill="#111111"/>
<polygon points="400.00,0.00 400.00,0.00 400.00,0.00" fill="#111111"/>
<polygon points="350.00,0.00 300.00,0.00 300.00,0.00 400.00,100.00 400.00,50.00" fill="#111111"/>
<polygon points="300.00,50.00 300.00,100.00 400.00,200.00 400.00,150.00" fill="#111111"/>
<polygon points="300.00,150.00 300.00,200.00 400.00,300.00 400.00,250.00" fill="#111111"/>
<polygon points="300.00,250.00 300.00,300.00 400.00,400.00 400.00,350.00" fill="#111111"/>
<polygon points="350.00,400.00 300.00,350.00 300.00,400.00 300.00,400.00" fill="#111111"/></g><g transform="translate(800,-400)"><rect width="400" height="400" fill="#ece8e0"/>
  <rect width="400.0" height="400.0" fill="#ece8e0"/>
<polygon points="0.00,0.00 0.00,0.00 0.00,50.00 50.00,0.00" fill="#111111"/>
<polygon points="0.00,100.00 0.00,150.00 100.00,50.00 100.00,0.00" fill="#111111"/>
<polygon points="0.00,200.00 0.00,250.00 100.00,150.00 100.00,100.00" fill="#111111"/>
<polygon points="0.00,300.00 0.00,350.00 100.00,250.00 100.00,200.00" fill="#111111"/>
<polygon points="0.00,400.00 0.00,400.00 50.00,400.00 100.00,350.00 100.00,300.00" fill="#111111"/>
<polygon points="100.00,400.00 100.00,400.00 100.00,400.00" fill="#111111"/>
<polygon points="200.00,0.00 200.00,0.00 200.00,0.00" fill="#111111"/>
<polygon points="150.00,0.00 100.00,0.00 100.00,0.00 200.00,100.00 200.00,50.00" fill="#111111"/>
<polygon points="100.00,50.00 100.00,100.00 200.00,200.00 200.00,150.00" fill="#111111"/>
<polygon points="100.00,150.00 100.00,200.00 200.00,300.00 200.00,250.00" fill="#111111"/>
<polygon points="100.00,250.00 100.00,300.00 200.00,400.00 200.00,350.00" fill="#111111"/>
<polygon points="150.00,400.00 100.00,350.00 100.00,400.00 100.00,400.00" fill="#111111"/>
<polygon points="200.00,0.00 200.00,0.00 200.00,50.00 250.00,0.00" fill="#111111"/>
<polygon points="200.00,100.00 200.00,150.00 300.00,50.00 300.00,0.00" fill="#111111"/>
<polygon points="200.00,200.00 200.00,250.00 300.00,150.00 300.00,100.00" fill="#111111"/>
<polygon points="200.00,300.00 200.00,350.00 300.00,250.00 300.00,200.00" fill="#111111"/>
<polygon points="200.00,400.00 200.00,400.00 250.00,400.00 300.00,350.00 300.00,300.00" fill="#111111"/>
<polygon points="300.00,400.00 300.00,400.00 300.00,400.00" fill="#111111"/>
<polygon points="400.00,0.00 400.00,0.00 400.00,0.00" fill="#111111"/>
<polygon points="350.00,0.00 300.00,0.00 300.00,0.00 400.00,100.00 400.00,50.00" fill="#111111"/>
<polygon points="300.00,50.00 300.00,100.00 400.00,200.00 400.00,150.00" fill="#111111"/>
<polygon points="300.00,150.00 300.00,200.00 400.00,300.00 400.00,250.00" fill="#111111"/>
<polygon points="300.00,250.00 300.00,300.00 400.00,400.00 400.00,350.00" fill="#111111"/>
<polygon points="350.00,400.00 300.00,350.00 300.00,400.00 300.00,400.00" fill="#111111"/></g><g transform="translate(1200,-400)"><rect width="400" height="400" fill="#ece8e0"/>
  <rect width="400.0" height="400.0" fill="#ece8e0"/>
<polygon points="0.00,0.00 0.00,0.00 0.00,50.00 50.00,0.00" fill="#111111"/>
<polygon points="0.00,100.00 0.00,150.00 100.00,50.00 100.00,0.00" fill="#111111"/>
<polygon points="0.00,200.00 0.00,250.00 100.00,150.00 100.00,100.00" fill="#111111"/>
<polygon points="0.00,300.00 0.00,350.00 100.00,250.00 100.00,200.00" fill="#111111"/>
<polygon points="0.00,400.00 0.00,400.00 50.00,400.00 100.00,350.00 100.00,300.00" fill="#111111"/>
<polygon points="100.00,400.00 100.00,400.00 100.00,400.00" fill="#111111"/>
<polygon points="200.00,0.00 200.00,0.00 200.00,0.00" fill="#111111"/>
<polygon points="150.00,0.00 100.00,0.00 100.00,0.00 200.00,100.00 200.00,50.00" fill="#111111"/>
<polygon points="100.00,50.00 100.00,100.00 200.00,200.00 200.00,150.00" fill="#111111"/>
<polygon points="100.00,150.00 100.00,200.00 200.00,300.00 200.00,250.00" fill="#111111"/>
<polygon points="100.00,250.00 100.00,300.00 200.00,400.00 200.00,350.00" fill="#111111"/>
<polygon points="150.00,400.00 100.00,350.00 100.00,400.00 100.00,400.00" fill="#111111"/>
<polygon points="200.00,0.00 200.00,0.00 200.00,50.00 250.00,0.00" fill="#111111"/>
<polygon points="200.00,100.00 200.00,150.00 300.00,50.00 300.00,0.00" fill="#111111"/>
<polygon points="200.00,200.00 200.00,250.00 300.00,150.00 300.00,100.00" fill="#111111"/>
<polygon points="200.00,300.00 200.00,350.00 300.00,250.00 300.00,200.00" fill="#111111"/>
<polygon points="200.00,400.00 200.00,400.00 250.00,400.00 300.00,350.00 300.00,300.00" fill="#111111"/>
<polygon points="300.00,400.00 300.00,400.00 300.00,400.00" fill="#111111"/>
<polygon points="400.00,0.00 400.00,0.00 400.00,0.00" fill="#111111"/>
<polygon points="350.00,0.00 300.00,0.00 300.00,0.00 400.00,100.00 400.00,50.00" fill="#111111"/>
<polygon points="300.00,50.00 300.00,100.00 400.00,200.00 400.00,150.00" fill="#111111"/>
<polygon points="300.00,150.00 300.00,200.00 400.00,300.00 400.00,250.00" fill="#111111"/>
<polygon points="300.00,250.00 300.00,300.00 400.00,400.00 400.00,350.00" fill="#111111"/>
<polygon points="350.00,400.00 300.00,350.00 300.00,400.00 300.00,400.00" fill="#111111"/></g><g transform="translate(1600,-400)"><rect width="400" height="400" fill="#ece8e0"/>
  <rect width="400.0" height="400.0" fill="#ece8e0"/>
<polygon points="0.00,0.00 0.00,0.00 0.00,50.00 50.00,0.00" fill="#111111"/>
<polygon points="0.00,100.00 0.00,150.00 100.00,50.00 100.00,0.00" fill="#111111"/>
<polygon points="0.00,200.00 0.00,250.00 100.00,150.00 100.00,100.00" fill="#111111"/>
<polygon points="0.00,300.00 0.00,350.00 100.00,250.00 100.00,200.00" fill="#111111"/>
<polygon points="0.00,400.00 0.00,400.00 50.00,400.00 100.00,350.00 100.00,300.00" fill="#111111"/>
<polygon points="100.00,400.00 100.00,400.00 100.00,400.00" fill="#111111"/>
<polygon points="200.00,0.00 200.00,0.00 200.00,0.00" fill="#111111"/>
<polygon points="150.00,0.00 100.00,0.00 100.00,0.00 200.00,100.00 200.00,50.00" fill="#111111"/>
<polygon points="100.00,50.00 100.00,100.00 200.00,200.00 200.00,150.00" fill="#111111"/>
<polygon points="100.00,150.00 100.00,200.00 200.00,300.00 200.00,250.00" fill="#111111"/>
<polygon points="100.00,250.00 100.00,300.00 200.00,400.00 200.00,350.00" fill="#111111"/>
<polygon points="150.00,400.00 100.00,350.00 100.00,400.00 100.00,400.00" fill="#111111"/>
<polygon points="200.00,0.00 200.00,0.00 200.00,50.00 250.00,0.00" fill="#111111"/>
<polygon points="200.00,100.00 200.00,150.00 300.00,50.00 300.00,0.00" fill="#111111"/>
<polygon points="200.00,200.00 200.00,250.00 300.00,150.00 300.00,100.00" fill="#111111"/>
<polygon points="200.00,300.00 200.00,350.00 300.00,250.00 300.00,200.00" fill="#111111"/>
<polygon points="200.00,400.00 200.00,400.00 250.00,400.00 300.00,350.00 300.00,300.00" fill="#111111"/>
<polygon points="300.00,400.00 300.00,400.00 300.00,400.00" fill="#111111"/>
<polygon points="400.00,0.00 400.00,0.00 400.00,0.00" fill="#111111"/>
<polygon points="350.00,0.00 300.00,0.00 300.00,0.00 400.00,100.00 400.00,50.00" fill="#111111"/>
<polygon points="300.00,50.00 300.00,100.00 400.00,200.00 400.00,150.00" fill="#111111"/>
<polygon points="300.00,150.00 300.00,200.00 400.00,300.00 400.00,250.00" fill="#111111"/>
<polygon points="300.00,250.00 300.00,300.00 400.00,400.00 400.00,350.00" fill="#111111"/>
<polygon points="350.00,400.00 300.00,350.00 300.00,400.00 300.00,400.00" fill="#111111"/></g><g transform="translate(-400,0)"><rect width="400" height="400" fill="#ece8e0"/>
  <rect width="400.0" height="400.0" fill="#ece8e0"/>
<polygon points="0.00,0.00 0.00,0.00 0.00,50.00 50.00,0.00" fill="#111111"/>
<polygon points="0.00,100.00 0.00,150.00 100.00,50.00 100.00,0.00" fill="#111111"/>
<polygon points="0.00,200.00 0.00,250.00 100.00,150.00 100.00,100.00" fill="#111111"/>
<polygon points="0.00,300.00 0.00,350.00 100.00,250.00 100.00,200.00" fill="#111111"/>
<polygon points="0.00,400.00 0.00,400.00 50.00,400.00 100.00,350.00 100.00,300.00" fill="#111111"/>
<polygon points="100.00,400.00 100.00,400.00 100.00,400.00" fill="#111111"/>
<polygon points="200.00,0.00 200.00,0.00 200.00,0.00" fill="#111111"/>
<polygon points="150.00,0.00 100.00,0.00 100.00,0.00 200.00,100.00 200.00,50.00" fill="#111111"/>
<polygon points="100.00,50.00 100.00,100.00 200.00,200.00 200.00,150.00" fill="#111111"/>
<polygon points="100.00,150.00 100.00,200.00 200.00,300.00 200.00,250.00" fill="#111111"/>
<polygon points="100.00,250.00 100.00,300.00 200.00,400.00 200.00,350.00" fill="#111111"/>
<polygon points="150.00,400.00 100.00,350.00 100.00,400.00 100.00,400.00" fill="#111111"/>
<polygon points="200.00,0.00 200.00,0.00 200.00,50.00 250.00,0.00" fill="#111111"/>
<polygon points="200.00,100.00 200.00,150.00 300.00,50.00 300.00,0.00" fill="#111111"/>
<polygon points="200.00,200.00 200.00,250.00 300.00,150.00 300.00,100.00" fill="#111111"/>
<polygon points="200.00,300.00 200.00,350.00 300.00,250.00 300.00,200.00" fill="#111111"/>
<polygon points="200.00,400.00 200.00,400.00 250.00,400.00 300.00,350.00 300.00,300.00" fill="#111111"/>
<polygon points="300.00,400.00 300.00,400.00 300.00,400.00" fill="#111111"/>
<polygon points="400.00,0.00 400.00,0.00 400.00,0.00" fill="#111111"/>
<polygon points="350.00,0.00 300.00,0.00 300.00,0.00 400.00,100.00 400.00,50.00" fill="#111111"/>
<polygon points="300.00,50.00 300.00,100.00 400.00,200.00 400.00,150.00" fill="#111111"/>
<polygon points="300.00,150.00 300.00,200.00 400.00,300.00 400.00,250.00" fill="#111111"/>
<polygon points="300.00,250.00 300.00,300.00 400.00,400.00 400.00,350.00" fill="#111111"/>
<polygon points="350.00,400.00 300.00,350.00 300.00,400.00 300.00,400.00" fill="#111111"/></g><g transform="translate(0,0)"><rect width="400" height="400" fill="#ece8e0"/>
  <rect width="400.0" height="400.0" fill="#ece8e0"/>
<polygon points="0.00,0.00 0.00,0.00 0.00,50.00 50.00,0.00" fill="#111111"/>
<polygon points="0.00,100.00 0.00,150.00 100.00,50.00 100.00,0.00" fill="#111111"/>
<polygon points="0.00,200.00 0.00,250.00 100.00,150.00 100.00,100.00" fill="#111111"/>
<polygon points="0.00,300.00 0.00,350.00 100.00,250.00 100.00,200.00" fill="#111111"/>
<polygon points="0.00,400.00 0.00,400.00 50.00,400.00 100.00,350.00 100.00,300.00" fill="#111111"/>
<polygon points="100.00,400.00 100.00,400.00 100.00,400.00" fill="#111111"/>
<polygon points="200.00,0.00 200.00,0.00 200.00,0.00" fill="#111111"/>
<polygon points="150.00,0.00 100.00,0.00 100.00,0.00 200.00,100.00 200.00,50.00" fill="#111111"/>
<polygon points="100.00,50.00 100.00,100.00 200.00,200.00 200.00,150.00" fill="#111111"/>
<polygon points="100.00,150.00 100.00,200.00 200.00,300.00 200.00,250.00" fill="#111111"/>
<polygon points="100.00,250.00 100.00,300.00 200.00,400.00 200.00,350.00" fill="#111111"/>
<polygon points="150.00,400.00 100.00,350.00 100.00,400.00 100.00,400.00" fill="#111111"/>
<polygon points="200.00,0.00 200.00,0.00 200.00,50.00 250.00,0.00" fill="#111111"/>
<polygon points="200.00,100.00 200.00,150.00 300.00,50.00 300.00,0.00" fill="#111111"/>
<polygon points="200.00,200.00 200.00,250.00 300.00,150.00 300.00,100.00" fill="#111111"/>
<polygon points="200.00,300.00 200.00,350.00 300.00,250.00 300.00,200.00" fill="#111111"/>
<polygon points="200.00,400.00 200.00,400.00 250.00,400.00 300.00,350.00 300.00,300.00" fill="#111111"/>
<polygon points="300.00,400.00 300.00,400.00 300.00,400.00" fill="#111111"/>
<polygon points="400.00,0.00 400.00,0.00 400.00,0.00" fill="#111111"/>
<polygon points="350.00,0.00 300.00,0.00 300.00,0.00 400.00,100.00 400.00,50.00" fill="#111111"/>
<polygon points="300.00,50.00 300.00,100.00 400.00,200.00 400.00,150.00" fill="#111111"/>
<polygon points="300.00,150.00 300.00,200.00 400.00,300.00 400.00,250.00" fill="#111111"/>
<polygon points="300.00,250.00 300.00,300.00 400.00,400.00 400.00,350.00" fill="#111111"/>
<polygon points="350.00,400.00 300.00,350.00 300.00,400.00 300.00,400.00" fill="#111111"/></g><g transform="translate(400,0)"><rect width="400" height="400" fill="#ece8e0"/>
  <rect width="400.0" height="400.0" fill="#ece8e0"/>
<polygon points="0.00,0.00 0.00,0.00 0.00,50.00 50.00,0.00" fill="#111111"/>
<polygon points="0.00,100.00 0.00,150.00 100.00,50.00 100.00,0.00" fill="#111111"/>
<polygon points="0.00,200.00 0.00,250.00 100.00,150.00 100.00,100.00" fill="#111111"/>
<polygon points="0.00,300.00 0.00,350.00 100.00,250.00 100.00,200.00" fill="#111111"/>
<polygon points="0.00,400.00 0.00,400.00 50.00,400.00 100.00,350.00 100.00,300.00" fill="#111111"/>
<polygon points="100.00,400.00 100.00,400.00 100.00,400.00" fill="#111111"/>
<polygon points="200.00,0.00 200.00,0.00 200.00,0.00" fill="#111111"/>
<polygon points="150.00,0.00 100.00,0.00 100.00,0.00 200.00,100.00 200.00,50.00" fill="#111111"/>
<polygon points="100.00,50.00 100.00,100.00 200.00,200.00 200.00,150.00" fill="#111111"/>
<polygon points="100.00,150.00 100.00,200.00 200.00,300.00 200.00,250.00" fill="#111111"/>
<polygon points="100.00,250.00 100.00,300.00 200.00,400.00 200.00,350.00" fill="#111111"/>
<polygon points="150.00,400.00 100.00,350.00 100.00,400.00 100.00,400.00" fill="#111111"/>
<polygon points="200.00,0.00 200.00,0.00 200.00,50.00 250.00,0.00" fill="#111111"/>
<polygon points="200.00,100.00 200.00,150.00 300.00,50.00 300.00,0.00" fill="#111111"/>
<polygon points="200.00,200.00 200.00,250.00 300.00,150.00 300.00,100.00" fill="#111111"/>
<polygon points="200.00,300.00 200.00,350.00 300.00,250.00 300.00,200.00" fill="#111111"/>
<polygon points="200.00,400.00 200.00,400.00 250.00,400.00 300.00,350.00 300.00,300.00" fill="#111111"/>
<polygon points="300.00,400.00 300.00,400.00 300.00,400.00" fill="#111111"/>
<polygon points="400.00,0.00 400.00,0.00 400.00,0.00" fill="#111111"/>
<polygon points="350.00,0.00 300.00,0.00 300.00,0.00 400.00,100.00 400.00,50.00" fill="#111111"/>
<polygon points="300.00,50.00 300.00,100.00 400.00,200.00 400.00,150.00" fill="#111111"/>
<polygon points="300.00,150.00 300.00,200.00 400.00,300.00 400.00,250.00" fill="#111111"/>
<polygon points="300.00,250.00 300.00,300.00 400.00,400.00 400.00,350.00" fill="#111111"/>
<polygon points="350.00,400.00 300.00,350.00 300.00,400.00 300.00,400.00" fill="#111111"/></g><g transform="translate(800,0)"><rect width="400" height="400" fill="#ece8e0"/>
  <rect width="400.0" height="400.0" fill="#ece8e0"/>
<polygon points="0.00,0.00 0.00,0.00 0.00,50.00 50.00,0.00" fill="#111111"/>
<polygon points="0.00,100.00 0.00,150.00 100.00,50.00 100.00,0.00" fill="#111111"/>
<polygon points="0.00,200.00 0.00,250.00 100.00,150.00 100.00,100.00" fill="#111111"/>
<polygon points="0.00,300.00 0.00,350.00 100.00,250.00 100.00,200.00" fill="#111111"/>
<polygon points="0.00,400.00 0.00,400.00 50.00,400.00 100.00,350.00 100.00,300.00" fill="#111111"/>
<polygon points="100.00,400.00 100.00,400.00 100.00,400.00" fill="#111111"/>
<polygon points="200.00,0.00 200.00,0.00 200.00,0.00" fill="#111111"/>
<polygon points="150.00,0.00 100.00,0.00 100.00,0.00 200.00,100.00 200.00,50.00" fill="#111111"/>
<polygon points="100.00,50.00 100.00,100.00 200.00,200.00 200.00,150.00" fill="#111111"/>
<polygon points="100.00,150.00 100.00,200.00 200.00,300.00 200.00,250.00" fill="#111111"/>
<polygon points="100.00,250.00 100.00,300.00 200.00,400.00 200.00,350.00" fill="#111111"/>
<polygon points="150.00,400.00 100.00,350.00 100.00,400.00 100.00,400.00" fill="#111111"/>
<polygon points="200.00,0.00 200.00,0.00 200.00,50.00 250.00,0.00" fill="#111111"/>
<polygon points="200.00,100.00 200.00,150.00 300.00,50.00 300.00,0.00" fill="#111111"/>
<polygon points="200.00,200.00 200.00,250.00 300.00,150.00 300.00,100.00" fill="#111111"/>
<polygon points="200.00,300.00 200.00,350.00 300.00,250.00 300.00,200.00" fill="#111111"/>
<polygon points="200.00,400.00 200.00,400.00 250.00,400.00 300.00,350.00 300.00,300.00" fill="#111111"/>
<polygon points="300.00,400.00 300.00,400.00 300.00,400.00" fill="#111111"/>
<polygon points="400.00,0.00 400.00,0.00 400.00,0.00" fill="#111111"/>
<polygon points="350.00,0.00 300.00,0.00 300.00,0.00 400.00,100.00 400.00,50.00" fill="#111111"/>
<polygon points="300.00,50.00 300.00,100.00 400.00,200.00 400.00,150.00" fill="#111111"/>
<polygon points="300.00,150.00 300.00,200.00 400.00,300.00 400.00,250.00" fill="#111111"/>
<polygon points="300.00,250.00 300.00,300.00 400.00,400.00 400.00,350.00" fill="#111111"/>
<polygon points="350.00,400.00 300.00,350.00 300.00,400.00 300.00,400.00" fill="#111111"/></g><g transform="translate(1200,0)"><rect width="400" height="400" fill="#ece8e0"/>
  <rect width="400.0" height="400.0" fill="#ece8e0"/>
<polygon points="0.00,0.00 0.00,0.00 0.00,50.00 50.00,0.00" fill="#111111"/>
<polygon points="0.00,100.00 0.00,150.00 100.00,50.00 100.00,0.00" fill="#111111"/>
<polygon points="0.00,200.00 0.00,250.00 100.00,150.00 100.00,100.00" fill="#111111"/>
<polygon points="0.00,300.00 0.00,350.00 100.00,250.00 100.00,200.00" fill="#111111"/>
<polygon points="0.00,400.00 0.00,400.00 50.00,400.00 100.00,350.00 100.00,300.00" fill="#111111"/>
<polygon points="100.00,400.00 100.00,400.00 100.00,400.00" fill="#111111"/>
<polygon points="200.00,0.00 200.00,0.00 200.00,0.00" fill="#111111"/>
<polygon points="150.00,0.00 100.00,0.00 100.00,0.00 200.00,100.00 200.00,50.00" fill="#111111"/>
<polygon points="100.00,50.00 100.00,100.00 200.00,200.00 200.00,150.00" fill="#111111"/>
<polygon points="100.00,150.00 100.00,200.00 200.00,300.00 200.00,250.00" fill="#111111"/>
<polygon points="100.00,250.00 100.00,300.00 200.00,400.00 200.00,350.00" fill="#111111"/>
<polygon points="150.00,400.00 100.00,350.00 100.00,400.00 100.00,400.00" fill="#111111"/>
<polygon points="200.00,0.00 200.00,0.00 200.00,50.00 250.00,0.00" fill="#111111"/>
<polygon points="200.00,100.00 200.00,150.00 300.00,50.00 300.00,0.00" fill="#111111"/>
<polygon points="200.00,200.00 200.00,250.00 300.00,150.00 300.00,100.00" fill="#111111"/>
<polygon points="200.00,300.00 200.00,350.00 300.00,250.00 300.00,200.00" fill="#111111"/>
<polygon points="200.00,400.00 200.00,400.00 250.00,400.00 300.00,350.00 300.00,300.00" fill="#111111"/>
<polygon points="300.00,400.00 300.00,400.00 300.00,400.00" fill="#111111"/>
<polygon points="400.00,0.00 400.00,0.00 400.00,0.00" fill="#111111"/>
<polygon points="350.00,0.00 300.00,0.00 300.00,0.00 400.00,100.00 400.00,50.00" fill="#111111"/>
<polygon points="300.00,50.00 300.00,100.00 400.00,200.00 400.00,150.00" fill="#111111"/>
<polygon points="300.00,150.00 300.00,200.00 400.00,300.00 400.00,250.00" fill="#111111"/>
<polygon points="300.00,250.00 300.00,300.00 400.00,400.00 400.00,350.00" fill="#111111"/>
<polygon points="350.00,400.00 300.00,350.00 300.00,400.00 300.00,400.00" fill="#111111"/></g><g transform="translate(1600,0)"><rect width="400" height="400" fill="#ece8e0"/>
  <rect width="400.0" height="400.0" fill="#ece8e0"/>
<polygon points="0.00,0.00 0.00,0.00 0.00,50.00 50.00,0.00" fill="#111111"/>
<polygon points="0.00,100.00 0.00,150.00 100.00,50.00 100.00,0.00" fill="#111111"/>
<polygon points="0.00,200.00 0.00,250.00 100.00,150.00 100.00,100.00" fill="#111111"/>
<polygon points="0.00,300.00 0.00,350.00 100.00,250.00 100.00,200.00" fill="#111111"/>
<polygon points="0.00,400.00 0.00,400.00 50.00,400.00 100.00,350.00 100.00,300.00" fill="#111111"/>
<polygon points="100.00,400.00 100.00,400.00 100.00,400.00" fill="#111111"/>
<polygon points="200.00,0.00 200.00,0.00 200.00,0.00" fill="#111111"/>
<polygon points="150.00,0.00 100.00,0.00 100.00,0.00 200.00,100.00 200.00,50.00" fill="#111111"/>
<polygon points="100.00,50.00 100.00,100.00 200.00,200.00 200.00,150.00" fill="#111111"/>
<polygon points="100.00,150.00 100.00,200.00 200.00,300.00 200.00,250.00" fill="#111111"/>
<polygon points="100.00,250.00 100.00,300.00 200.00,400.00 200.00,350.00" fill="#111111"/>
<polygon points="150.00,400.00 100.00,350.00 100.00,400.00 100.00,400.00" fill="#111111"/>
<polygon points="200.00,0.00 200.00,0.00 200.00,50.00 250.00,0.00" fill="#111111"/>
<polygon points="200.00,100.00 200.00,150.00 300.00,50.00 300.00,0.00" fill="#111111"/>
<polygon points="200.00,200.00 200.00,250.00 300.00,150.00 300.00,100.00" fill="#111111"/>
<polygon points="200.00,300.00 200.00,350.00 300.00,250.00 300.00,200.00" fill="#111111"/>
<polygon points="200.00,400.00 200.00,400.00 250.00,400.00 300.00,350.00 300.00,300.00" fill="#111111"/>
<polygon points="300.00,400.00 300.00,400.00 300.00,400.00" fill="#111111"/>
<polygon points="400.00,0.00 400.00,0.00 400.00,0.00" fill="#111111"/>
<polygon points="350.00,0.00 300.00,0.00 300.00,0.00 400.00,100.00 400.00,50.00" fill="#111111"/>
<polygon points="300.00,50.00 300.00,100.00 400.00,200.00 400.00,150.00" fill="#111111"/>
<polygon points="300.00,150.00 300.00,200.00 400.00,300.00 400.00,250.00" fill="#111111"/>
<polygon points="300.00,250.00 300.00,300.00 400.00,400.00 400.00,350.00" fill="#111111"/>
<polygon points="350.00,400.00 300.00,350.00 300.00,400.00 300.00,400.00" fill="#111111"/></g><g transform="translate(-400,400)"><rect width="400" height="400" fill="#ece8e0"/>
  <rect width="400.0" height="400.0" fill="#ece8e0"/>
<polygon points="0.00,0.00 0.00,0.00 0.00,50.00 50.00,0.00" fill="#111111"/>
<polygon points="0.00,100.00 0.00,150.00 100.00,50.00 100.00,0.00" fill="#111111"/>
<polygon points="0.00,200.00 0.00,250.00 100.00,150.00 100.00,100.00" fill="#111111"/>
<polygon points="0.00,300.00 0.00,350.00 100.00,250.00 100.00,200.00" fill="#111111"/>
<polygon points="0.00,400.00 0.00,400.00 50.00,400.00 100.00,350.00 100.00,300.00" fill="#111111"/>
<polygon points="100.00,400.00 100.00,400.00 100.00,400.00" fill="#111111"/>
<polygon points="200.00,0.00 200.00,0.00 200.00,0.00" fill="#111111"/>
<polygon points="150.00,0.00 100.00,0.00 100.00,0.00 200.00,100.00 200.00,50.00" fill="#111111"/>
<polygon points="100.00,50.00 100.00,100.00 200.00,200.00 200.00,150.00" fill="#111111"/>
<polygon points="100.00,150.00 100.00,200.00 200.00,300.00 200.00,250.00" fill="#111111"/>
<polygon points="100.00,250.00 100.00,300.00 200.00,400.00 200.00,350.00" fill="#111111"/>
<polygon points="150.00,400.00 100.00,350.00 100.00,400.00 100.00,400.00" fill="#111111"/>
<polygon points="200.00,0.00 200.00,0.00 200.00,50.00 250.00,0.00" fill="#111111"/>
<polygon points="200.00,100.00 200.00,150.00 300.00,50.00 300.00,0.00" fill="#111111"/>
<polygon points="200.00,200.00 200.00,250.00 300.00,150.00 300.00,100.00" fill="#111111"/>
<polygon points="200.00,300.00 200.00,350.00 300.00,250.00 300.00,200.00" fill="#111111"/>
<polygon points="200.00,400.00 200.00,400.00 250.00,400.00 300.00,350.00 300.00,300.00" fill="#111111"/>
<polygon points="300.00,400.00 300.00,400.00 300.00,400.00" fill="#111111"/>
<polygon points="400.00,0.00 400.00,0.00 400.00,0.00" fill="#111111"/>
<polygon points="350.00,0.00 300.00,0.00 300.00,0.00 400.00,100.00 400.00,50.00" fill="#111111"/>
<polygon points="300.00,50.00 300.00,100.00 400.00,200.00 400.00,150.00" fill="#111111"/>
<polygon points="300.00,150.00 300.00,200.00 400.00,300.00 400.00,250.00" fill="#111111"/>
<polygon points="300.00,250.00 300.00,300.00 400.00,400.00 400.00,350.00" fill="#111111"/>
<polygon points="350.00,400.00 300.00,350.00 300.00,400.00 300.00,400.00" fill="#111111"/></g><g transform="translate(0,400)"><rect width="400" height="400" fill="#ece8e0"/>
  <rect width="400.0" height="400.0" fill="#ece8e0"/>
<polygon points="0.00,0.00 0.00,0.00 0.00,50.00 50.00,0.00" fill="#111111"/>
<polygon points="0.00,100.00 0.00,150.00 100.00,50.00 100.00,0.00" fill="#111111"/>
<polygon points="0.00,200.00 0.00,250.00 100.00,150.00 100.00,100.00" fill="#111111"/>
<polygon points="0.00,300.00 0.00,350.00 100.00,250.00 100.00,200.00" fill="#111111"/>
<polygon points="0.00,400.00 0.00,400.00 50.00,400.00 100.00,350.00 100.00,300.00" fill="#111111"/>
<polygon points="100.00,400.00 100.00,400.00 100.00,400.00" fill="#111111"/>
<polygon points="200.00,0.00 200.00,0.00 200.00,0.00" fill="#111111"/>
<polygon points="150.00,0.00 100.00,0.00 100.00,0.00 200.00,100.00 200.00,50.00" fill="#111111"/>
<polygon points="100.00,50.00 100.00,100.00 200.00,200.00 200.00,150.00" fill="#111111"/>
<polygon points="100.00,150.00 100.00,200.00 200.00,300.00 200.00,250.00" fill="#111111"/>
<polygon points="100.00,250.00 100.00,300.00 200.00,400.00 200.00,350.00" fill="#111111"/>
<polygon points="150.00,400.00 100.00,350.00 100.00,400.00 100.00,400.00" fill="#111111"/>
<polygon points="200.00,0.00 200.00,0.00 200.00,50.00 250.00,0.00" fill="#111111"/>
<polygon points="200.00,100.00 200.00,150.00 300.00,50.00 300.00,0.00" fill="#111111"/>
<polygon points="200.00,200.00 200.00,250.00 300.00,150.00 300.00,100.00" fill="#111111"/>
<polygon points="200.00,300.00 200.00,350.00 300.00,250.00 300.00,200.00" fill="#111111"/>
<polygon points="200.00,400.00 200.00,400.00 250.00,400.00 300.00,350.00 300.00,300.00" fill="#111111"/>
<polygon points="300.00,400.00 300.00,400.00 300.00,400.00" fill="#111111"/>
<polygon points="400.00,0.00 400.00,0.00 400.00,0.00" fill="#111111"/>
<polygon points="350.00,0.00 300.00,0.00 300.00,0.00 400.00,100.00 400.00,50.00" fill="#111111"/>
<polygon points="300.00,50.00 300.00,100.00 400.00,200.00 400.00,150.00" fill="#111111"/>
<polygon points="300.00,150.00 300.00,200.00 400.00,300.00 400.00,250.00" fill="#111111"/>
<polygon points="300.00,250.00 300.00,300.00 400.00,400.00 400.00,350.00" fill="#111111"/>
<polygon points="350.00,400.00 300.00,350.00 300.00,400.00 300.00,400.00" fill="#111111"/></g><g transform="translate(400,400)"><rect width="400" height="400" fill="#ece8e0"/>
  <rect width="400.0" height="400.0" fill="#ece8e0"/>
<polygon points="0.00,0.00 0.00,0.00 0.00,50.00 50.00,0.00" fill="#111111"/>
<polygon points="0.00,100.00 0.00,150.00 100.00,50.00 100.00,0.00" fill="#111111"/>
<polygon points="0.00,200.00 0.00,250.00 100.00,150.00 100.00,100.00" fill="#111111"/>
<polygon points="0.00,300.00 0.00,350.00 100.00,250.00 100.00,200.00" fill="#111111"/>
<polygon points="0.00,400.00 0.00,400.00 50.00,400.00 100.00,350.00 100.00,300.00" fill="#111111"/>
<polygon points="100.00,400.00 100.00,400.00 100.00,400.00" fill="#111111"/>
<polygon points="200.00,0.00 200.00,0.00 200.00,0.00" fill="#111111"/>
<polygon points="150.00,0.00 100.00,0.00 100.00,0.00 200.00,100.00 200.00,50.00" fill="#111111"/>
<polygon points="100.00,50.00 100.00,100.00 200.00,200.00 200.00,150.00" fill="#111111"/>
<polygon points="100.00,150.00 100.00,200.00 200.00,300.00 200.00,250.00" fill="#111111"/>
<polygon points="100.00,250.00 100.00,300.00 200.00,400.00 200.00,350.00" fill="#111111"/>
<polygon points="150.00,400.00 100.00,350.00 100.00,400.00 100.00,400.00" fill="#111111"/>
<polygon points="200.00,0.00 200.00,0.00 200.00,50.00 250.00,0.00" fill="#111111"/>
<polygon points="200.00,100.00 200.00,150.00 300.00,50.00 300.00,0.00" fill="#111111"/>
<polygon points="200.00,200.00 200.00,250.00 300.00,150.00 300.00,100.00" fill="#111111"/>
<polygon points="200.00,300.00 200.00,350.00 300.00,250.00 300.00,200.00" fill="#111111"/>
<polygon points="200.00,400.00 200.00,400.00 250.00,400.00 300.00,350.00 300.00,300.00" fill="#111111"/>
<polygon points="300.00,400.00 300.00,400.00 300.00,400.00" fill="#111111"/>
<polygon points="400.00,0.00 400.00,0.00 400.00,0.00" fill="#111111"/>
<polygon points="350.00,0.00 300.00,0.00 300.00,0.00 400.00,100.00 400.00,50.00" fill="#111111"/>
<polygon points="300.00,50.00 300.00,100.00 400.00,200.00 400.00,150.00" fill="#111111"/>
<polygon points="300.00,150.00 300.00,200.00 400.00,300.00 400.00,250.00" fill="#111111"/>
<polygon points="300.00,250.00 300.00,300.00 400.00,400.00 400.00,350.00" fill="#111111"/>
<polygon points="350.00,400.00 300.00,350.00 300.00,400.00 300.00,400.00" fill="#111111"/></g><g transform="translate(800,400)"><rect width="400" height="400" fill="#ece8e0"/>
  <rect width="400.0" height="400.0" fill="#ece8e0"/>
<polygon points="0.00,0.00 0.00,0.00 0.00,50.00 50.00,0.00" fill="#111111"/>
<polygon points="0.00,100.00 0.00,150.00 100.00,50.00 100.00,0.00" fill="#111111"/>
<polygon points="0.00,200.00 0.00,250.00 100.00,150.00 100.00,100.00" fill="#111111"/>
<polygon points="0.00,300.00 0.00,350.00 100.00,250.00 100.00,200.00" fill="#111111"/>
<polygon points="0.00,400.00 0.00,400.00 50.00,400.00 100.00,350.00 100.00,300.00" fill="#111111"/>
<polygon points="100.00,400.00 100.00,400.00 100.00,400.00" fill="#111111"/>
<polygon points="200.00,0.00 200.00,0.00 200.00,0.00" fill="#111111"/>
<polygon points="150.00,0.00 100.00,0.00 100.00,0.00 200.00,100.00 200.00,50.00" fill="#111111"/>
<polygon points="100.00,50.00 100.00,100.00 200.00,200.00 200.00,150.00" fill="#111111"/>
<polygon points="100.00,150.00 100.00,200.00 200.00,300.00 200.00,250.00" fill="#111111"/>
<polygon points="100.00,250.00 100.00,300.00 200.00,400.00 200.00,350.00" fill="#111111"/>
<polygon points="150.00,400.00 100.00,350.00 100.00,400.00 100.00,400.00" fill="#111111"/>
<polygon points="200.00,0.00 200.00,0.00 200.00,50.00 250.00,0.00" fill="#111111"/>
<polygon points="200.00,100.00 200.00,150.00 300.00,50.00 300.00,0.00" fill="#111111"/>
<polygon points="200.00,200.00 200.00,250.00 300.00,150.00 300.00,100.00" fill="#111111"/>
<polygon points="200.00,300.00 200.00,350.00 300.00,250.00 300.00,200.00" fill="#111111"/>
<polygon points="200.00,400.00 200.00,400.00 250.00,400.00 300.00,350.00 300.00,300.00" fill="#111111"/>
<polygon points="300.00,400.00 300.00,400.00 300.00,400.00" fill="#111111"/>
<polygon points="400.00,0.00 400.00,0.00 400.00,0.00" fill="#111111"/>
<polygon points="350.00,0.00 300.00,0.00 300.00,0.00 400.00,100.00 400.00,50.00" fill="#111111"/>
<polygon points="300.00,50.00 300.00,100.00 400.00,200.00 400.00,150.00" fill="#111111"/>
<polygon points="300.00,150.00 300.00,200.00 400.00,300.00 400.00,250.00" fill="#111111"/>
<polygon points="300.00,250.00 300.00,300.00 400.00,400.00 400.00,350.00" fill="#111111"/>
<polygon points="350.00,400.00 300.00,350.00 300.00,400.00 300.00,400.00" fill="#111111"/></g><g transform="translate(1200,400)"><rect width="400" height="400" fill="#ece8e0"/>
  <rect width="400.0" height="400.0" fill="#ece8e0"/>
<polygon points="0.00,0.00 0.00,0.00 0.00,50.00 50.00,0.00" fill="#111111"/>
<polygon points="0.00,100.00 0.00,150.00 100.00,50.00 100.00,0.00" fill="#111111"/>
<polygon points="0.00,200.00 0.00,250.00 100.00,150.00 100.00,100.00" fill="#111111"/>
<polygon points="0.00,300.00 0.00,350.00 100.00,250.00 100.00,200.00" fill="#111111"/>
<polygon points="0.00,400.00 0.00,400.00 50.00,400.00 100.00,350.00 100.00,300.00" fill="#111111"/>
<polygon points="100.00,400.00 100.00,400.00 100.00,400.00" fill="#111111"/>
<polygon points="200.00,0.00 200.00,0.00 200.00,0.00" fill="#111111"/>
<polygon points="150.00,0.00 100.00,0.00 100.00,0.00 200.00,100.00 200.00,50.00" fill="#111111"/>
<polygon points="100.00,50.00 100.00,100.00 200.00,200.00 200.00,150.00" fill="#111111"/>
<polygon points="100.00,150.00 100.00,200.00 200.00,300.00 200.00,250.00" fill="#111111"/>
<polygon points="100.00,250.00 100.00,300.00 200.00,400.00 200.00,350.00" fill="#111111"/>
<polygon points="150.00,400.00 100.00,350.00 100.00,400.00 100.00,400.00" fill="#111111"/>
<polygon points="200.00,0.00 200.00,0.00 200.00,50.00 250.00,0.00" fill="#111111"/>
<polygon points="200.00,100.00 200.00,150.00 300.00,50.00 300.00,0.00" fill="#111111"/>
<polygon points="200.00,200.00 200.00,250.00 300.00,150.00 300.00,100.00" fill="#111111"/>
<polygon points="200.00,300.00 200.00,350.00 300.00,250.00 300.00,200.00" fill="#111111"/>
<polygon points="200.00,400.00 200.00,400.00 250.00,400.00 300.00,350.00 300.00,300.00" fill="#111111"/>
<polygon points="300.00,400.00 300.00,400.00 300.00,400.00" fill="#111111"/>
<polygon points="400.00,0.00 400.00,0.00 400.00,0.00" fill="#111111"/>
<polygon points="350.00,0.00 300.00,0.00 300.00,0.00 400.00,100.00 400.00,50.00" fill="#111111"/>
<polygon points="300.00,50.00 300.00,100.00 400.00,200.00 400.00,150.00" fill="#111111"/>
<polygon points="300.00,150.00 300.00,200.00 400.00,300.00 400.00,250.00" fill="#111111"/>
<polygon points="300.00,250.00 300.00,300.00 400.00,400.00 400.00,350.00" fill="#111111"/>
<polygon points="350.00,400.00 300.00,350.00 300.00,400.00 300.00,400.00" fill="#111111"/></g><g transform="translate(1600,400)"><rect width="400" height="400" fill="#ece8e0"/>
  <rect width="400.0" height="400.0" fill="#ece8e0"/>
<polygon points="0.00,0.00 0.00,0.00 0.00,50.00 50.00,0.00" fill="#111111"/>
<polygon points="0.00,100.00 0.00,150.00 100.00,50.00 100.00,0.00" fill="#111111"/>
<polygon points="0.00,200.00 0.00,250.00 100.00,150.00 100.00,100.00" fill="#111111"/>
<polygon points="0.00,300.00 0.00,350.00 100.00,250.00 100.00,200.00" fill="#111111"/>
<polygon points="0.00,400.00 0.00,400.00 50.00,400.00 100.00,350.00 100.00,300.00" fill="#111111"/>
<polygon points="100.00,400.00 100.00,400.00 100.00,400.00" fill="#111111"/>
<polygon points="200.00,0.00 200.00,0.00 200.00,0.00" fill="#111111"/>
<polygon points="150.00,0.00 100.00,0.00 100.00,0.00 200.00,100.00 200.00,50.00" fill="#111111"/>
<polygon points="100.00,50.00 100.00,100.00 200.00,200.00 200.00,150.00" fill="#111111"/>
<polygon points="100.00,150.00 100.00,200.00 200.00,300.00 200.00,250.00" fill="#111111"/>
<polygon points="100.00,250.00 100.00,300.00 200.00,400.00 200.00,350.00" fill="#111111"/>
<polygon points="150.00,400.00 100.00,350.00 100.00,400.00 100.00,400.00" fill="#111111"/>
<polygon points="200.00,0.00 200.00,0.00 200.00,50.00 250.00,0.00" fill="#111111"/>
<polygon points="200.00,100.00 200.00,150.00 300.00,50.00 300.00,0.00" fill="#111111"/>
<polygon points="200.00,200.00 200.00,250.00 300.00,150.00 300.00,100.00" fill="#111111"/>
<polygon points="200.00,300.00 200.00,350.00 300.00,250.00 300.00,200.00" fill="#111111"/>
<polygon points="200.00,400.00 200.00,400.00 250.00,400.00 300.00,350.00 300.00,300.00" fill="#111111"/>
<polygon points="300.00,400.00 300.00,400.00 300.00,400.00" fill="#111111"/>
<polygon points="400.00,0.00 400.00,0.00 400.00,0.00" fill="#111111"/>
<polygon points="350.00,0.00 300.00,0.00 300.00,0.00 400.00,100.00 400.00,50.00" fill="#111111"/>
<polygon points="300.00,50.00 300.00,100.00 400.00,200.00 400.00,150.00" fill="#111111"/>
<polygon points="300.00,150.00 300.00,200.00 400.00,300.00 400.00,250.00" fill="#111111"/>
<polygon points="300.00,250.00 300.00,300.00 400.00,400.00 400.00,350.00" fill="#111111"/>
<polygon points="350.00,400.00 300.00,350.00 300.00,400.00 300.00,400.00" fill="#111111"/></g><g transform="translate(-400,800)"><rect width="400" height="400" fill="#ece8e0"/>
  <rect width="400.0" height="400.0" fill="#ece8e0"/>
<polygon points="0.00,0.00 0.00,0.00 0.00,50.00 50.00,0.00" fill="#111111"/>
<polygon points="0.00,100.00 0.00,150.00 100.00,50.00 100.00,0.00" fill="#111111"/>
<polygon points="0.00,200.00 0.00,250.00 100.00,150.00 100.00,100.00" fill="#111111"/>
<polygon points="0.00,300.00 0.00,350.00 100.00,250.00 100.00,200.00" fill="#111111"/>
<polygon points="0.00,400.00 0.00,400.00 50.00,400.00 100.00,350.00 100.00,300.00" fill="#111111"/>
<polygon points="100.00,400.00 100.00,400.00 100.00,400.00" fill="#111111"/>
<polygon points="200.00,0.00 200.00,0.00 200.00,0.00" fill="#111111"/>
<polygon points="150.00,0.00 100.00,0.00 100.00,0.00 200.00,100.00 200.00,50.00" fill="#111111"/>
<polygon points="100.00,50.00 100.00,100.00 200.00,200.00 200.00,150.00" fill="#111111"/>
<polygon points="100.00,150.00 100.00,200.00 200.00,300.00 200.00,250.00" fill="#111111"/>
<polygon points="100.00,250.00 100.00,300.00 200.00,400.00 200.00,350.00" fill="#111111"/>
<polygon points="150.00,400.00 100.00,350.00 100.00,400.00 100.00,400.00" fill="#111111"/>
<polygon points="200.00,0.00 200.00,0.00 200.00,50.00 250.00,0.00" fill="#111111"/>
<polygon points="200.00,100.00 200.00,150.00 300.00,50.00 300.00,0.00" fill="#111111"/>
<polygon points="200.00,200.00 200.00,250.00 300.00,150.00 300.00,100.00" fill="#111111"/>
<polygon points="200.00,300.00 200.00,350.00 300.00,250.00 300.00,200.00" fill="#111111"/>
<polygon points="200.00,400.00 200.00,400.00 250.00,400.00 300.00,350.00 300.00,300.00" fill="#111111"/>
<polygon points="300.00,400.00 300.00,400.00 300.00,400.00" fill="#111111"/>
<polygon points="400.00,0.00 400.00,0.00 400.00,0.00" fill="#111111"/>
<polygon points="350.00,0.00 300.00,0.00 300.00,0.00 400.00,100.00 400.00,50.00" fill="#111111"/>
<polygon points="300.00,50.00 300.00,100.00 400.00,200.00 400.00,150.00" fill="#111111"/>
<polygon points="300.00,150.00 300.00,200.00 400.00,300.00 400.00,250.00" fill="#111111"/>
<polygon points="300.00,250.00 300.00,300.00 400.00,400.00 400.00,350.00" fill="#111111"/>
<polygon points="350.00,400.00 300.00,350.00 300.00,400.00 300.00,400.00" fill="#111111"/></g><g transform="translate(0,800)"><rect width="400" height="400" fill="#ece8e0"/>
  <rect width="400.0" height="400.0" fill="#ece8e0"/>
<polygon points="0.00,0.00 0.00,0.00 0.00,50.00 50.00,0.00" fill="#111111"/>
<polygon points="0.00,100.00 0.00,150.00 100.00,50.00 100.00,0.00" fill="#111111"/>
<polygon points="0.00,200.00 0.00,250.00 100.00,150.00 100.00,100.00" fill="#111111"/>
<polygon points="0.00,300.00 0.00,350.00 100.00,250.00 100.00,200.00" fill="#111111"/>
<polygon points="0.00,400.00 0.00,400.00 50.00,400.00 100.00,350.00 100.00,300.00" fill="#111111"/>
<polygon points="100.00,400.00 100.00,400.00 100.00,400.00" fill="#111111"/>
<polygon points="200.00,0.00 200.00,0.00 200.00,0.00" fill="#111111"/>
<polygon points="150.00,0.00 100.00,0.00 100.00,0.00 200.00,100.00 200.00,50.00" fill="#111111"/>
<polygon points="100.00,50.00 100.00,100.00 200.00,200.00 200.00,150.00" fill="#111111"/>
<polygon points="100.00,150.00 100.00,200.00 200.00,300.00 200.00,250.00" fill="#111111"/>
<polygon points="100.00,250.00 100.00,300.00 200.00,400.00 200.00,350.00" fill="#111111"/>
<polygon points="150.00,400.00 100.00,350.00 100.00,400.00 100.00,400.00" fill="#111111"/>
<polygon points="200.00,0.00 200.00,0.00 200.00,50.00 250.00,0.00" fill="#111111"/>
<polygon points="200.00,100.00 200.00,150.00 300.00,50.00 300.00,0.00" fill="#111111"/>
<polygon points="200.00,200.00 200.00,250.00 300.00,150.00 300.00,100.00" fill="#111111"/>
<polygon points="200.00,300.00 200.00,350.00 300.00,250.00 300.00,200.00" fill="#111111"/>
<polygon points="200.00,400.00 200.00,400.00 250.00,400.00 300.00,350.00 300.00,300.00" fill="#111111"/>
<polygon points="300.00,400.00 300.00,400.00 300.00,400.00" fill="#111111"/>
<polygon points="400.00,0.00 400.00,0.00 400.00,0.00" fill="#111111"/>
<polygon points="350.00,0.00 300.00,0.00 300.00,0.00 400.00,100.00 400.00,50.00" fill="#111111"/>
<polygon points="300.00,50.00 300.00,100.00 400.00,200.00 400.00,150.00" fill="#111111"/>
<polygon points="300.00,150.00 300.00,200.00 400.00,300.00 400.00,250.00" fill="#111111"/>
<polygon points="300.00,250.00 300.00,300.00 400.00,400.00 400.00,350.00" fill="#111111"/>
<polygon points="350.00,400.00 300.00,350.00 300.00,400.00 300.00,400.00" fill="#111111"/></g><g transform="translate(400,800)"><rect width="400" height="400" fill="#ece8e0"/>
  <rect width="400.0" height="400.0" fill="#ece8e0"/>
<polygon points="0.00,0.00 0.00,0.00 0.00,50.00 50.00,0.00" fill="#111111"/>
<polygon points="0.00,100.00 0.00,150.00 100.00,50.00 100.00,0.00" fill="#111111"/>
<polygon points="0.00,200.00 0.00,250.00 100.00,150.00 100.00,100.00" fill="#111111"/>
<polygon points="0.00,300.00 0.00,350.00 100.00,250.00 100.00,200.00" fill="#111111"/>
<polygon points="0.00,400.00 0.00,400.00 50.00,400.00 100.00,350.00 100.00,300.00" fill="#111111"/>
<polygon points="100.00,400.00 100.00,400.00 100.00,400.00" fill="#111111"/>
<polygon points="200.00,0.00 200.00,0.00 200.00,0.00" fill="#111111"/>
<polygon points="150.00,0.00 100.00,0.00 100.00,0.00 200.00,100.00 200.00,50.00" fill="#111111"/>
<polygon points="100.00,50.00 100.00,100.00 200.00,200.00 200.00,150.00" fill="#111111"/>
<polygon points="100.00,150.00 100.00,200.00 200.00,300.00 200.00,250.00" fill="#111111"/>
<polygon points="100.00,250.00 100.00,300.00 200.00,400.00 200.00,350.00" fill="#111111"/>
<polygon points="150.00,400.00 100.00,350.00 100.00,400.00 100.00,400.00" fill="#111111"/>
<polygon points="200.00,0.00 200.00,0.00 200.00,50.00 250.00,0.00" fill="#111111"/>
<polygon points="200.00,100.00 200.00,150.00 300.00,50.00 300.00,0.00" fill="#111111"/>
<polygon points="200.00,200.00 200.00,250.00 300.00,150.00 300.00,100.00" fill="#111111"/>
<polygon points="200.00,300.00 200.00,350.00 300.00,250.00 300.00,200.00" fill="#111111"/>
<polygon points="200.00,400.00 200.00,400.00 250.00,400.00 300.00,350.00 300.00,300.00" fill="#111111"/>
<polygon points="300.00,400.00 300.00,400.00 300.00,400.00" fill="#111111"/>
<polygon points="400.00,0.00 400.00,0.00 400.00,0.00" fill="#111111"/>
<polygon points="350.00,0.00 300.00,0.00 300.00,0.00 400.00,100.00 400.00,50.00" fill="#111111"/>
<polygon points="300.00,50.00 300.00,100.00 400.00,200.00 400.00,150.00" fill="#111111"/>
<polygon points="300.00,150.00 300.00,200.00 400.00,300.00 400.00,250.00" fill="#111111"/>
<polygon points="300.00,250.00 300.00,300.00 400.00,400.00 400.00,350.00" fill="#111111"/>
<polygon points="350.00,400.00 300.00,350.00 300.00,400.00 300.00,400.00" fill="#111111"/></g><g transform="translate(800,800)"><rect width="400" height="400" fill="#ece8e0"/>
  <rect width="400.0" height="400.0" fill="#ece8e0"/>
<polygon points="0.00,0.00 0.00,0.00 0.00,50.00 50.00,0.00" fill="#111111"/>
<polygon points="0.00,100.00 0.00,150.00 100.00,50.00 100.00,0.00" fill="#111111"/>
<polygon points="0.00,200.00 0.00,250.00 100.00,150.00 100.00,100.00" fill="#111111"/>
<polygon points="0.00,300.00 0.00,350.00 100.00,250.00 100.00,200.00" fill="#111111"/>
<polygon points="0.00,400.00 0.00,400.00 50.00,400.00 100.00,350.00 100.00,300.00" fill="#111111"/>
<polygon points="100.00,400.00 100.00,400.00 100.00,400.00" fill="#111111"/>
<polygon points="200.00,0.00 200.00,0.00 200.00,0.00" fill="#111111"/>
<polygon points="150.00,0.00 100.00,0.00 100.00,0.00 200.00,100.00 200.00,50.00" fill="#111111"/>
<polygon points="100.00,50.00 100.00,100.00 200.00,200.00 200.00,150.00" fill="#111111"/>
<polygon points="100.00,150.00 100.00,200.00 200.00,300.00 200.00,250.00" fill="#111111"/>
<polygon points="100.00,250.00 100.00,300.00 200.00,400.00 200.00,350.00" fill="#111111"/>
<polygon points="150.00,400.00 100.00,350.00 100.00,400.00 100.00,400.00" fill="#111111"/>
<polygon points="200.00,0.00 200.00,0.00 200.00,50.00 250.00,0.00" fill="#111111"/>
<polygon points="200.00,100.00 200.00,150.00 300.00,50.00 300.00,0.00" fill="#111111"/>
<polygon points="200.00,200.00 200.00,250.00 300.00,150.00 300.00,100.00" fill="#111111"/>
<polygon points="200.00,300.00 200.00,350.00 300.00,250.00 300.00,200.00" fill="#111111"/>
<polygon points="200.00,400.00 200.00,400.00 250.00,400.00 300.00,350.00 300.00,300.00" fill="#111111"/>
<polygon points="300.00,400.00 300.00,400.00 300.00,400.00" fill="#111111"/>
<polygon points="400.00,0.00 400.00,0.00 400.00,0.00" fill="#111111"/>
<polygon points="350.00,0.00 300.00,0.00 300.00,0.00 400.00,100.00 400.00,50.00" fill="#111111"/>
<polygon points="300.00,50.00 300.00,100.00 400.00,200.00 400.00,150.00" fill="#111111"/>
<polygon points="300.00,150.00 300.00,200.00 400.00,300.00 400.00,250.00" fill="#111111"/>
<polygon points="300.00,250.00 300.00,300.00 400.00,400.00 400.00,350.00" fill="#111111"/>
<polygon points="350.00,400.00 300.00,350.00 300.00,400.00 300.00,400.00" fill="#111111"/></g><g transform="translate(1200,800)"><rect width="400" height="400" fill="#ece8e0"/>
  <rect width="400.0" height="400.0" fill="#ece8e0"/>
<polygon points="0.00,0.00 0.00,0.00 0.00,50.00 50.00,0.00" fill="#111111"/>
<polygon points="0.00,100.00 0.00,150.00 100.00,50.00 100.00,0.00" fill="#111111"/>
<polygon points="0.00,200.00 0.00,250.00 100.00,150.00 100.00,100.00" fill="#111111"/>
<polygon points="0.00,300.00 0.00,350.00 100.00,250.00 100.00,200.00" fill="#111111"/>
<polygon points="0.00,400.00 0.00,400.00 50.00,400.00 100.00,350.00 100.00,300.00" fill="#111111"/>
<polygon points="100.00,400.00 100.00,400.00 100.00,400.00" fill="#111111"/>
<polygon points="200.00,0.00 200.00,0.00 200.00,0.00" fill="#111111"/>
<polygon points="150.00,0.00 100.00,0.00 100.00,0.00 200.00,100.00 200.00,50.00" fill="#111111"/>
<polygon points="100.00,50.00 100.00,100.00 200.00,200.00 200.00,150.00" fill="#111111"/>
<polygon points="100.00,150.00 100.00,200.00 200.00,300.00 200.00,250.00" fill="#111111"/>
<polygon points="100.00,250.00 100.00,300.00 200.00,400.00 200.00,350.00" fill="#111111"/>
<polygon points="150.00,400.00 100.00,350.00 100.00,400.00 100.00,400.00" fill="#111111"/>
<polygon points="200.00,0.00 200.00,0.00 200.00,50.00 250.00,0.00" fill="#111111"/>
<polygon points="200.00,100.00 200.00,150.00 300.00,50.00 300.00,0.00" fill="#111111"/>
<polygon points="200.00,200.00 200.00,250.00 300.00,150.00 300.00,100.00" fill="#111111"/>
<polygon points="200.00,300.00 200.00,350.00 300.00,250.00 300.00,200.00" fill="#111111"/>
<polygon points="200.00,400.00 200.00,400.00 250.00,400.00 300.00,350.00 300.00,300.00" fill="#111111"/>
<polygon points="300.00,400.00 300.00,400.00 300.00,400.00" fill="#111111"/>
<polygon points="400.00,0.00 400.00,0.00 400.00,0.00" fill="#111111"/>
<polygon points="350.00,0.00 300.00,0.00 300.00,0.00 400.00,100.00 400.00,50.00" fill="#111111"/>
<polygon points="300.00,50.00 300.00,100.00 400.00,200.00 400.00,150.00" fill="#111111"/>
<polygon points="300.00,150.00 300.00,200.00 400.00,300.00 400.00,250.00" fill="#111111"/>
<polygon points="300.00,250.00 300.00,300.00 400.00,400.00 400.00,350.00" fill="#111111"/>
<polygon points="350.00,400.00 300.00,350.00 300.00,400.00 300.00,400.00" fill="#111111"/></g><g transform="translate(1600,800)"><rect width="400" height="400" fill="#ece8e0"/>
  <rect width="400.0" height="400.0" fill="#ece8e0"/>
<polygon points="0.00,0.00 0.00,0.00 0.00,50.00 50.00,0.00" fill="#111111"/>
<polygon points="0.00,100.00 0.00,150.00 100.00,50.00 100.00,0.00" fill="#111111"/>
<polygon points="0.00,200.00 0.00,250.00 100.00,150.00 100.00,100.00" fill="#111111"/>
<polygon points="0.00,300.00 0.00,350.00 100.00,250.00 100.00,200.00" fill="#111111"/>
<polygon points="0.00,400.00 0.00,400.00 50.00,400.00 100.00,350.00 100.00,300.00" fill="#111111"/>
<polygon points="100.00,400.00 100.00,400.00 100.00,400.00" fill="#111111"/>
<polygon points="200.00,0.00 200.00,0.00 200.00,0.00" fill="#111111"/>
<polygon points="150.00,0.00 100.00,0.00 100.00,0.00 200.00,100.00 200.00,50.00" fill="#111111"/>
<polygon points="100.00,50.00 100.00,100.00 200.00,200.00 200.00,150.00" fill="#111111"/>
<polygon points="100.00,150.00 100.00,200.00 200.00,300.00 200.00,250.00" fill="#111111"/>
<polygon points="100.00,250.00 100.00,300.00 200.00,400.00 200.00,350.00" fill="#111111"/>
<polygon points="150.00,400.00 100.00,350.00 100.00,400.00 100.00,400.00" fill="#111111"/>
<polygon points="200.00,0.00 200.00,0.00 200.00,50.00 250.00,0.00" fill="#111111"/>
<polygon points="200.00,100.00 200.00,150.00 300.00,50.00 300.00,0.00" fill="#111111"/>
<polygon points="200.00,200.00 200.00,250.00 300.00,150.00 300.00,100.00" fill="#111111"/>
<polygon points="200.00,300.00 200.00,350.00 300.00,250.00 300.00,200.00" fill="#111111"/>
<polygon points="200.00,400.00 200.00,400.00 250.00,400.00 300.00,350.00 300.00,300.00" fill="#111111"/>
<polygon points="300.00,400.00 300.00,400.00 300.00,400.00" fill="#111111"/>
<polygon points="400.00,0.00 400.00,0.00 400.00,0.00" fill="#111111"/>
<polygon points="350.00,0.00 300.00,0.00 300.00,0.00 400.00,100.00 400.00,50.00" fill="#111111"/>
<polygon points="300.00,50.00 300.00,100.00 400.00,200.00 400.00,150.00" fill="#111111"/>
<polygon points="300.00,150.00 300.00,200.00 400.00,300.00 400.00,250.00" fill="#111111"/>
<polygon points="300.00,250.00 300.00,300.00 400.00,400.00 400.00,350.00" fill="#111111"/>
<polygon points="350.00,400.00 300.00,350.00 300.00,400.00 300.00,400.00" fill="#111111"/></g><g transform="translate(-400,1200)"><rect width="400" height="400" fill="#ece8e0"/>
  <rect width="400.0" height="400.0" fill="#ece8e0"/>
<polygon points="0.00,0.00 0.00,0.00 0.00,50.00 50.00,0.00" fill="#111111"/>
<polygon points="0.00,100.00 0.00,150.00 100.00,50.00 100.00,0.00" fill="#111111"/>
<polygon points="0.00,200.00 0.00,250.00 100.00,150.00 100.00,100.00" fill="#111111"/>
<polygon points="0.00,300.00 0.00,350.00 100.00,250.00 100.00,200.00" fill="#111111"/>
<polygon points="0.00,400.00 0.00,400.00 50.00,400.00 100.00,350.00 100.00,300.00" fill="#111111"/>
<polygon points="100.00,400.00 100.00,400.00 100.00,400.00" fill="#111111"/>
<polygon points="200.00,0.00 200.00,0.00 200.00,0.00" fill="#111111"/>
<polygon points="150.00,0.00 100.00,0.00 100.00,0.00 200.00,100.00 200.00,50.00" fill="#111111"/>
<polygon points="100.00,50.00 100.00,100.00 200.00,200.00 200.00,150.00" fill="#111111"/>
<polygon points="100.00,150.00 100.00,200.00 200.00,300.00 200.00,250.00" fill="#111111"/>
<polygon points="100.00,250.00 100.00,300.00 200.00,400.00 200.00,350.00" fill="#111111"/>
<polygon points="150.00,400.00 100.00,350.00 100.00,400.00 100.00,400.00" fill="#111111"/>
<polygon points="200.00,0.00 200.00,0.00 200.00,50.00 250.00,0.00" fill="#111111"/>
<polygon points="200.00,100.00 200.00,150.00 300.00,50.00 300.00,0.00" fill="#111111"/>
<polygon points="200.00,200.00 200.00,250.00 300.00,150.00 300.00,100.00" fill="#111111"/>
<polygon points="200.00,300.00 200.00,350.00 300.00,250.00 300.00,200.00" fill="#111111"/>
<polygon points="200.00,400.00 200.00,400.00 250.00,400.00 300.00,350.00 300.00,300.00" fill="#111111"/>
<polygon points="300.00,400.00 300.00,400.00 300.00,400.00" fill="#111111"/>
<polygon points="400.00,0.00 400.00,0.00 400.00,0.00" fill="#111111"/>
<polygon points="350.00,0.00 300.00,0.00 300.00,0.00 400.00,100.00 400.00,50.00" fill="#111111"/>
<polygon points="300.00,50.00 300.00,100.00 400.00,200.00 400.00,150.00" fill="#111111"/>
<polygon points="300.00,150.00 300.00,200.00 400.00,300.00 400.00,250.00" fill="#111111"/>
<polygon points="300.00,250.00 300.00,300.00 400.00,400.00 400.00,350.00" fill="#111111"/>
<polygon points="350.00,400.00 300.00,350.00 300.00,400.00 300.00,400.00" fill="#111111"/></g><g transform="translate(0,1200)"><rect width="400" height="400" fill="#ece8e0"/>
  <rect width="400.0" height="400.0" fill="#ece8e0"/>
<polygon points="0.00,0.00 0.00,0.00 0.00,50.00 50.00,0.00" fill="#111111"/>
<polygon points="0.00,100.00 0.00,150.00 100.00,50.00 100.00,0.00" fill="#111111"/>
<polygon points="0.00,200.00 0.00,250.00 100.00,150.00 100.00,100.00" fill="#111111"/>
<polygon points="0.00,300.00 0.00,350.00 100.00,250.00 100.00,200.00" fill="#111111"/>
<polygon points="0.00,400.00 0.00,400.00 50.00,400.00 100.00,350.00 100.00,300.00" fill="#111111"/>
<polygon points="100.00,400.00 100.00,400.00 100.00,400.00" fill="#111111"/>
<polygon points="200.00,0.00 200.00,0.00 200.00,0.00" fill="#111111"/>
<polygon points="150.00,0.00 100.00,0.00 100.00,0.00 200.00,100.00 200.00,50.00" fill="#111111"/>
<polygon points="100.00,50.00 100.00,100.00 200.00,200.00 200.00,150.00" fill="#111111"/>
<polygon points="100.00,150.00 100.00,200.00 200.00,300.00 200.00,250.00" fill="#111111"/>
<polygon points="100.00,250.00 100.00,300.00 200.00,400.00 200.00,350.00" fill="#111111"/>
<polygon points="150.00,400.00 100.00,350.00 100.00,400.00 100.00,400.00" fill="#111111"/>
<polygon points="200.00,0.00 200.00,0.00 200.00,50.00 250.00,0.00" fill="#111111"/>
<polygon points="200.00,100.00 200.00,150.00 300.00,50.00 300.00,0.00" fill="#111111"/>
<polygon points="200.00,200.00 200.00,250.00 300.00,150.00 300.00,100.00" fill="#111111"/>
<polygon points="200.00,300.00 200.00,350.00 300.00,250.00 300.00,200.00" fill="#111111"/>
<polygon points="200.00,400.00 200.00,400.00 250.00,400.00 300.00,350.00 300.00,300.00" fill="#111111"/>
<polygon points="300.00,400.00 300.00,400.00 300.00,400.00" fill="#111111"/>
<polygon points="400.00,0.00 400.00,0.00 400.00,0.00" fill="#111111"/>
<polygon points="350.00,0.00 300.00,0.00 300.00,0.00 400.00,100.00 400.00,50.00" fill="#111111"/>
<polygon points="300.00,50.00 300.00,100.00 400.00,200.00 400.00,150.00" fill="#111111"/>
<polygon points="300.00,150.00 300.00,200.00 400.00,300.00 400.00,250.00" fill="#111111"/>
<polygon points="300.00,250.00 300.00,300.00 400.00,400.00 400.00,350.00" fill="#111111"/>
<polygon points="350.00,400.00 300.00,350.00 300.00,400.00 300.00,400.00" fill="#111111"/></g><g transform="translate(400,1200)"><rect width="400" height="400" fill="#ece8e0"/>
  <rect width="400.0" height="400.0" fill="#ece8e0"/>
<polygon points="0.00,0.00 0.00,0.00 0.00,50.00 50.00,0.00" fill="#111111"/>
<polygon points="0.00,100.00 0.00,150.00 100.00,50.00 100.00,0.00" fill="#111111"/>
<polygon points="0.00,200.00 0.00,250.00 100.00,150.00 100.00,100.00" fill="#111111"/>
<polygon points="0.00,300.00 0.00,350.00 100.00,250.00 100.00,200.00" fill="#111111"/>
<polygon points="0.00,400.00 0.00,400.00 50.00,400.00 100.00,350.00 100.00,300.00" fill="#111111"/>
<polygon points="100.00,400.00 100.00,400.00 100.00,400.00" fill="#111111"/>
<polygon points="200.00,0.00 200.00,0.00 200.00,0.00" fill="#111111"/>
<polygon points="150.00,0.00 100.00,0.00 100.00,0.00 200.00,100.00 200.00,50.00" fill="#111111"/>
<polygon points="100.00,50.00 100.00,100.00 200.00,200.00 200.00,150.00" fill="#111111"/>
<polygon points="100.00,150.00 100.00,200.00 200.00,300.00 200.00,250.00" fill="#111111"/>
<polygon points="100.00,250.00 100.00,300.00 200.00,400.00 200.00,350.00" fill="#111111"/>
<polygon points="150.00,400.00 100.00,350.00 100.00,400.00 100.00,400.00" fill="#111111"/>
<polygon points="200.00,0.00 200.00,0.00 200.00,50.00 250.00,0.00" fill="#111111"/>
<polygon points="200.00,100.00 200.00,150.00 300.00,50.00 300.00,0.00" fill="#111111"/>
<polygon points="200.00,200.00 200.00,250.00 300.00,150.00 300.00,100.00" fill="#111111"/>
<polygon points="200.00,300.00 200.00,350.00 300.00,250.00 300.00,200.00" fill="#111111"/>
<polygon points="200.00,400.00 200.00,400.00 250.00,400.00 300.00,350.00 300.00,300.00" fill="#111111"/>
<polygon points="300.00,400.00 300.00,400.00 300.00,400.00" fill="#111111"/>
<polygon points="400.00,0.00 400.00,0.00 400.00,0.00" fill="#111111"/>
<polygon points="350.00,0.00 300.00,0.00 300.00,0.00 400.00,100.00 400.00,50.00" fill="#111111"/>
<polygon points="300.00,50.00 300.00,100.00 400.00,200.00 400.00,150.00" fill="#111111"/>
<polygon points="300.00,150.00 300.00,200.00 400.00,300.00 400.00,250.00" fill="#111111"/>
<polygon points="300.00,250.00 300.00,300.00 400.00,400.00 400.00,350.00" fill="#111111"/>
<polygon points="350.00,400.00 300.00,350.00 300.00,400.00 300.00,400.00" fill="#111111"/></g><g transform="translate(800,1200)"><rect width="400" height="400" fill="#ece8e0"/>
  <rect width="400.0" height="400.0" fill="#ece8e0"/>
<polygon points="0.00,0.00 0.00,0.00 0.00,50.00 50.00,0.00" fill="#111111"/>
<polygon points="0.00,100.00 0.00,150.00 100.00,50.00 100.00,0.00" fill="#111111"/>
<polygon points="0.00,200.00 0.00,250.00 100.00,150.00 100.00,100.00" fill="#111111"/>
<polygon points="0.00,300.00 0.00,350.00 100.00,250.00 100.00,200.00" fill="#111111"/>
<polygon points="0.00,400.00 0.00,400.00 50.00,400.00 100.00,350.00 100.00,300.00" fill="#111111"/>
<polygon points="100.00,400.00 100.00,400.00 100.00,400.00" fill="#111111"/>
<polygon points="200.00,0.00 200.00,0.00 200.00,0.00" fill="#111111"/>
<polygon points="150.00,0.00 100.00,0.00 100.00,0.00 200.00,100.00 200.00,50.00" fill="#111111"/>
<polygon points="100.00,50.00 100.00,100.00 200.00,200.00 200.00,150.00" fill="#111111"/>
<polygon points="100.00,150.00 100.00,200.00 200.00,300.00 200.00,250.00" fill="#111111"/>
<polygon points="100.00,250.00 100.00,300.00 200.00,400.00 200.00,350.00" fill="#111111"/>
<polygon points="150.00,400.00 100.00,350.00 100.00,400.00 100.00,400.00" fill="#111111"/>
<polygon points="200.00,0.00 200.00,0.00 200.00,50.00 250.00,0.00" fill="#111111"/>
<polygon points="200.00,100.00 200.00,150.00 300.00,50.00 300.00,0.00" fill="#111111"/>
<polygon points="200.00,200.00 200.00,250.00 300.00,150.00 300.00,100.00" fill="#111111"/>
<polygon points="200.00,300.00 200.00,350.00 300.00,250.00 300.00,200.00" fill="#111111"/>
<polygon points="200.00,400.00 200.00,400.00 250.00,400.00 300.00,350.00 300.00,300.00" fill="#111111"/>
<polygon points="300.00,400.00 300.00,400.00 300.00,400.00" fill="#111111"/>
<polygon points="400.00,0.00 400.00,0.00 400.00,0.00" fill="#111111"/>
<polygon points="350.00,0.00 300.00,0.00 300.00,0.00 400.00,100.00 400.00,50.00" fill="#111111"/>
<polygon points="300.00,50.00 300.00,100.00 400.00,200.00 400.00,150.00" fill="#111111"/>
<polygon points="300.00,150.00 300.00,200.00 400.00,300.00 400.00,250.00" fill="#111111"/>
<polygon points="300.00,250.00 300.00,300.00 400.00,400.00 400.00,350.00" fill="#111111"/>
<polygon points="350.00,400.00 300.00,350.00 300.00,400.00 300.00,400.00" fill="#111111"/></g><g transform="translate(1200,1200)"><rect width="400" height="400" fill="#ece8e0"/>
  <rect width="400.0" height="400.0" fill="#ece8e0"/>
<polygon points="0.00,0.00 0.00,0.00 0.00,50.00 50.00,0.00" fill="#111111"/>
<polygon points="0.00,100.00 0.00,150.00 100.00,50.00 100.00,0.00" fill="#111111"/>
<polygon points="0.00,200.00 0.00,250.00 100.00,150.00 100.00,100.00" fill="#111111"/>
<polygon points="0.00,300.00 0.00,350.00 100.00,250.00 100.00,200.00" fill="#111111"/>
<polygon points="0.00,400.00 0.00,400.00 50.00,400.00 100.00,350.00 100.00,300.00" fill="#111111"/>
<polygon points="100.00,400.00 100.00,400.00 100.00,400.00" fill="#111111"/>
<polygon points="200.00,0.00 200.00,0.00 200.00,0.00" fill="#111111"/>
<polygon points="150.00,0.00 100.00,0.00 100.00,0.00 200.00,100.00 200.00,50.00" fill="#111111"/>
<polygon points="100.00,50.00 100.00,100.00 200.00,200.00 200.00,150.00" fill="#111111"/>
<polygon points="100.00,150.00 100.00,200.00 200.00,300.00 200.00,250.00" fill="#111111"/>
<polygon points="100.00,250.00 100.00,300.00 200.00,400.00 200.00,350.00" fill="#111111"/>
<polygon points="150.00,400.00 100.00,350.00 100.00,400.00 100.00,400.00" fill="#111111"/>
<polygon points="200.00,0.00 200.00,0.00 200.00,50.00 250.00,0.00" fill="#111111"/>
<polygon points="200.00,100.00 200.00,150.00 300.00,50.00 300.00,0.00" fill="#111111"/>
<polygon points="200.00,200.00 200.00,250.00 300.00,150.00 300.00,100.00" fill="#111111"/>
<polygon points="200.00,300.00 200.00,350.00 300.00,250.00 300.00,200.00" fill="#111111"/>
<polygon points="200.00,400.00 200.00,400.00 250.00,400.00 300.00,350.00 300.00,300.00" fill="#111111"/>
<polygon points="300.00,400.00 300.00,400.00 300.00,400.00" fill="#111111"/>
<polygon points="400.00,0.00 400.00,0.00 400.00,0.00" fill="#111111"/>
<polygon points="350.00,0.00 300.00,0.00 300.00,0.00 400.00,100.00 400.00,50.00" fill="#111111"/>
<polygon points="300.00,50.00 300.00,100.00 400.00,200.00 400.00,150.00" fill="#111111"/>
<polygon points="300.00,150.00 300.00,200.00 400.00,300.00 400.00,250.00" fill="#111111"/>
<polygon points="300.00,250.00 300.00,300.00 400.00,400.00 400.00,350.00" fill="#111111"/>
<polygon points="350.00,400.00 300.00,350.00 300.00,400.00 300.00,400.00" fill="#111111"/></g><g transform="translate(1600,1200)"><rect width="400" height="400" fill="#ece8e0"/>
  <rect width="400.0" height="400.0" fill="#ece8e0"/>
<polygon points="0.00,0.00 0.00,0.00 0.00,50.00 50.00,0.00" fill="#111111"/>
<polygon points="0.00,100.00 0.00,150.00 100.00,50.00 100.00,0.00" fill="#111111"/>
<polygon points="0.00,200.00 0.00,250.00 100.00,150.00 100.00,100.00" fill="#111111"/>
<polygon points="0.00,300.00 0.00,350.00 100.00,250.00 100.00,200.00" fill="#111111"/>
<polygon points="0.00,400.00 0.00,400.00 50.00,400.00 100.00,350.00 100.00,300.00" fill="#111111"/>
<polygon points="100.00,400.00 100.00,400.00 100.00,400.00" fill="#111111"/>
<polygon points="200.00,0.00 200.00,0.00 200.00,0.00" fill="#111111"/>
<polygon points="150.00,0.00 100.00,0.00 100.00,0.00 200.00,100.00 200.00,50.00" fill="#111111"/>
<polygon points="100.00,50.00 100.00,100.00 200.00,200.00 200.00,150.00" fill="#111111"/>
<polygon points="100.00,150.00 100.00,200.00 200.00,300.00 200.00,250.00" fill="#111111"/>
<polygon points="100.00,250.00 100.00,300.00 200.00,400.00 200.00,350.00" fill="#111111"/>
<polygon points="150.00,400.00 100.00,350.00 100.00,400.00 100.00,400.00" fill="#111111"/>
<polygon points="200.00,0.00 200.00,0.00 200.00,50.00 250.00,0.00" fill="#111111"/>
<polygon points="200.00,100.00 200.00,150.00 300.00,50.00 300.00,0.00" fill="#111111"/>
<polygon points="200.00,200.00 200.00,250.00 300.00,150.00 300.00,100.00" fill="#111111"/>
<polygon points="200.00,300.00 200.00,350.00 300.00,250.00 300.00,200.00" fill="#111111"/>
<polygon points="200.00,400.00 200.00,400.00 250.00,400.00 300.00,350.00 300.00,300.00" fill="#111111"/>
<polygon points="300.00,400.00 300.00,400.00 300.00,400.00" fill="#111111"/>
<polygon points="400.00,0.00 400.00,0.00 400.00,0.00" fill="#111111"/>
<polygon points="350.00,0.00 300.00,0.00 300.00,0.00 400.00,100.00 400.00,50.00" fill="#111111"/>
<polygon points="300.00,50.00 300.00,100.00 400.00,200.00 400.00,150.00" fill="#111111"/>
<polygon points="300.00,150.00 300.00,200.00 400.00,300.00 400.00,250.00" fill="#111111"/>
<polygon points="300.00,250.00 300.00,300.00 400.00,400.00 400.00,350.00" fill="#111111"/>
<polygon points="350.00,400.00 300.00,350.00 300.00,400.00 300.00,400.00" fill="#111111"/></g><g transform="translate(-400,1600)"><rect width="400" height="400" fill="#ece8e0"/>
  <rect width="400.0" height="400.0" fill="#ece8e0"/>
<polygon points="0.00,0.00 0.00,0.00 0.00,50.00 50.00,0.00" fill="#111111"/>
<polygon points="0.00,100.00 0.00,150.00 100.00,50.00 100.00,0.00" fill="#111111"/>
<polygon points="0.00,200.00 0.00,250.00 100.00,150.00 100.00,100.00" fill="#111111"/>
<polygon points="0.00,300.00 0.00,350.00 100.00,250.00 100.00,200.00" fill="#111111"/>
<polygon points="0.00,400.00 0.00,400.00 50.00,400.00 100.00,350.00 100.00,300.00" fill="#111111"/>
<polygon points="100.00,400.00 100.00,400.00 100.00,400.00" fill="#111111"/>
<polygon points="200.00,0.00 200.00,0.00 200.00,0.00" fill="#111111"/>
<polygon points="150.00,0.00 100.00,0.00 100.00,0.00 200.00,100.00 200.00,50.00" fill="#111111"/>
<polygon points="100.00,50.00 100.00,100.00 200.00,200.00 200.00,150.00" fill="#111111"/>
<polygon points="100.00,150.00 100.00,200.00 200.00,300.00 200.00,250.00" fill="#111111"/>
<polygon points="100.00,250.00 100.00,300.00 200.00,400.00 200.00,350.00" fill="#111111"/>
<polygon points="150.00,400.00 100.00,350.00 100.00,400.00 100.00,400.00" fill="#111111"/>
<polygon points="200.00,0.00 200.00,0.00 200.00,50.00 250.00,0.00" fill="#111111"/>
<polygon points="200.00,100.00 200.00,150.00 300.00,50.00 300.00,0.00" fill="#111111"/>
<polygon points="200.00,200.00 200.00,250.00 300.00,150.00 300.00,100.00" fill="#111111"/>
<polygon points="200.00,300.00 200.00,350.00 300.00,250.00 300.00,200.00" fill="#111111"/>
<polygon points="200.00,400.00 200.00,400.00 250.00,400.00 300.00,350.00 300.00,300.00" fill="#111111"/>
<polygon points="300.00,400.00 300.00,400.00 300.00,400.00" fill="#111111"/>
<polygon points="400.00,0.00 400.00,0.00 400.00,0.00" fill="#111111"/>
<polygon points="350.00,0.00 300.00,0.00 300.00,0.00 400.00,100.00 400.00,50.00" fill="#111111"/>
<polygon points="300.00,50.00 300.00,100.00 400.00,200.00 400.00,150.00" fill="#111111"/>
<polygon points="300.00,150.00 300.00,200.00 400.00,300.00 400.00,250.00" fill="#111111"/>
<polygon points="300.00,250.00 300.00,300.00 400.00,400.00 400.00,350.00" fill="#111111"/>
<polygon points="350.00,400.00 300.00,350.00 300.00,400.00 300.00,400.00" fill="#111111"/></g><g transform="translate(0,1600)"><rect width="400" height="400" fill="#ece8e0"/>
  <rect width="400.0" height="400.0" fill="#ece8e0"/>
<polygon points="0.00,0.00 0.00,0.00 0.00,50.00 50.00,0.00" fill="#111111"/>
<polygon points="0.00,100.00 0.00,150.00 100.00,50.00 100.00,0.00" fill="#111111"/>
<polygon points="0.00,200.00 0.00,250.00 100.00,150.00 100.00,100.00" fill="#111111"/>
<polygon points="0.00,300.00 0.00,350.00 100.00,250.00 100.00,200.00" fill="#111111"/>
<polygon points="0.00,400.00 0.00,400.00 50.00,400.00 100.00,350.00 100.00,300.00" fill="#111111"/>
<polygon points="100.00,400.00 100.00,400.00 100.00,400.00" fill="#111111"/>
<polygon points="200.00,0.00 200.00,0.00 200.00,0.00" fill="#111111"/>
<polygon points="150.00,0.00 100.00,0.00 100.00,0.00 200.00,100.00 200.00,50.00" fill="#111111"/>
<polygon points="100.00,50.00 100.00,100.00 200.00,200.00 200.00,150.00" fill="#111111"/>
<polygon points="100.00,150.00 100.00,200.00 200.00,300.00 200.00,250.00" fill="#111111"/>
<polygon points="100.00,250.00 100.00,300.00 200.00,400.00 200.00,350.00" fill="#111111"/>
<polygon points="150.00,400.00 100.00,350.00 100.00,400.00 100.00,400.00" fill="#111111"/>
<polygon points="200.00,0.00 200.00,0.00 200.00,50.00 250.00,0.00" fill="#111111"/>
<polygon points="200.00,100.00 200.00,150.00 300.00,50.00 300.00,0.00" fill="#111111"/>
<polygon points="200.00,200.00 200.00,250.00 300.00,150.00 300.00,100.00" fill="#111111"/>
<polygon points="200.00,300.00 200.00,350.00 300.00,250.00 300.00,200.00" fill="#111111"/>
<polygon points="200.00,400.00 200.00,400.00 250.00,400.00 300.00,350.00 300.00,300.00" fill="#111111"/>
<polygon points="300.00,400.00 300.00,400.00 300.00,400.00" fill="#111111"/>
<polygon points="400.00,0.00 400.00,0.00 400.00,0.00" fill="#111111"/>
<polygon points="350.00,0.00 300.00,0.00 300.00,0.00 400.00,100.00 400.00,50.00" fill="#111111"/>
<polygon points="300.00,50.00 300.00,100.00 400.00,200.00 400.00,150.00" fill="#111111"/>
<polygon points="300.00,150.00 300.00,200.00 400.00,300.00 400.00,250.00" fill="#111111"/>
<polygon points="300.00,250.00 300.00,300.00 400.00,400.00 400.00,350.00" fill="#111111"/>
<polygon points="350.00,400.00 300.00,350.00 300.00,400.00 300.00,400.00" fill="#111111"/></g><g transform="translate(400,1600)"><rect width="400" height="400" fill="#ece8e0"/>
  <rect width="400.0" height="400.0" fill="#ece8e0"/>
<polygon points="0.00,0.00 0.00,0.00 0.00,50.00 50.00,0.00" fill="#111111"/>
<polygon points="0.00,100.00 0.00,150.00 100.00,50.00 100.00,0.00" fill="#111111"/>
<polygon points="0.00,200.00 0.00,250.00 100.00,150.00 100.00,100.00" fill="#111111"/>
<polygon points="0.00,300.00 0.00,350.00 100.00,250.00 100.00,200.00" fill="#111111"/>
<polygon points="0.00,400.00 0.00,400.00 50.00,400.00 100.00,350.00 100.00,300.00" fill="#111111"/>
<polygon points="100.00,400.00 100.00,400.00 100.00,400.00" fill="#111111"/>
<polygon points="200.00,0.00 200.00,0.00 200.00,0.00" fill="#111111"/>
<polygon points="150.00,0.00 100.00,0.00 100.00,0.00 200.00,100.00 200.00,50.00" fill="#111111"/>
<polygon points="100.00,50.00 100.00,100.00 200.00,200.00 200.00,150.00" fill="#111111"/>
<polygon points="100.00,150.00 100.00,200.00 200.00,300.00 200.00,250.00" fill="#111111"/>
<polygon points="100.00,250.00 100.00,300.00 200.00,400.00 200.00,350.00" fill="#111111"/>
<polygon points="150.00,400.00 100.00,350.00 100.00,400.00 100.00,400.00" fill="#111111"/>
<polygon points="200.00,0.00 200.00,0.00 200.00,50.00 250.00,0.00" fill="#111111"/>
<polygon points="200.00,100.00 200.00,150.00 300.00,50.00 300.00,0.00" fill="#111111"/>
<polygon points="200.00,200.00 200.00,250.00 300.00,150.00 300.00,100.00" fill="#111111"/>
<polygon points="200.00,300.00 200.00,350.00 300.00,250.00 300.00,200.00" fill="#111111"/>
<polygon points="200.00,400.00 200.00,400.00 250.00,400.00 300.00,350.00 300.00,300.00" fill="#111111"/>
<polygon points="300.00,400.00 300.00,400.00 300.00,400.00" fill="#111111"/>
<polygon points="400.00,0.00 400.00,0.00 400.00,0.00" fill="#111111"/>
<polygon points="350.00,0.00 300.00,0.00 300.00,0.00 400.00,100.00 400.00,50.00" fill="#111111"/>
<polygon points="300.00,50.00 300.00,100.00 400.00,200.00 400.00,150.00" fill="#111111"/>
<polygon points="300.00,150.00 300.00,200.00 400.00,300.00 400.00,250.00" fill="#111111"/>
<polygon points="300.00,250.00 300.00,300.00 400.00,400.00 400.00,350.00" fill="#111111"/>
<polygon points="350.00,400.00 300.00,350.00 300.00,400.00 300.00,400.00" fill="#111111"/></g><g transform="translate(800,1600)"><rect width="400" height="400" fill="#ece8e0"/>
  <rect width="400.0" height="400.0" fill="#ece8e0"/>
<polygon points="0.00,0.00 0.00,0.00 0.00,50.00 50.00,0.00" fill="#111111"/>
<polygon points="0.00,100.00 0.00,150.00 100.00,50.00 100.00,0.00" fill="#111111"/>
<polygon points="0.00,200.00 0.00,250.00 100.00,150.00 100.00,100.00" fill="#111111"/>
<polygon points="0.00,300.00 0.00,350.00 100.00,250.00 100.00,200.00" fill="#111111"/>
<polygon points="0.00,400.00 0.00,400.00 50.00,400.00 100.00,350.00 100.00,300.00" fill="#111111"/>
<polygon points="100.00,400.00 100.00,400.00 100.00,400.00" fill="#111111"/>
<polygon points="200.00,0.00 200.00,0.00 200.00,0.00" fill="#111111"/>
<polygon points="150.00,0.00 100.00,0.00 100.00,0.00 200.00,100.00 200.00,50.00" fill="#111111"/>
<polygon points="100.00,50.00 100.00,100.00 200.00,200.00 200.00,150.00" fill="#111111"/>
<polygon points="100.00,150.00 100.00,200.00 200.00,300.00 200.00,250.00" fill="#111111"/>
<polygon points="100.00,250.00 100.00,300.00 200.00,400.00 200.00,350.00" fill="#111111"/>
<polygon points="150.00,400.00 100.00,350.00 100.00,400.00 100.00,400.00" fill="#111111"/>
<polygon points="200.00,0.00 200.00,0.00 200.00,50.00 250.00,0.00" fill="#111111"/>
<polygon points="200.00,100.00 200.00,150.00 300.00,50.00 300.00,0.00" fill="#111111"/>
<polygon points="200.00,200.00 200.00,250.00 300.00,150.00 300.00,100.00" fill="#111111"/>
<polygon points="200.00,300.00 200.00,350.00 300.00,250.00 300.00,200.00" fill="#111111"/>
<polygon points="200.00,400.00 200.00,400.00 250.00,400.00 300.00,350.00 300.00,300.00" fill="#111111"/>
<polygon points="300.00,400.00 300.00,400.00 300.00,400.00" fill="#111111"/>
<polygon points="400.00,0.00 400.00,0.00 400.00,0.00" fill="#111111"/>
<polygon points="350.00,0.00 300.00,0.00 300.00,0.00 400.00,100.00 400.00,50.00" fill="#111111"/>
<polygon points="300.00,50.00 300.00,100.00 400.00,200.00 400.00,150.00" fill="#111111"/>
<polygon points="300.00,150.00 300.00,200.00 400.00,300.00 400.00,250.00" fill="#111111"/>
<polygon points="300.00,250.00 300.00,300.00 400.00,400.00 400.00,350.00" fill="#111111"/>
<polygon points="350.00,400.00 300.00,350.00 300.00,400.00 300.00,400.00" fill="#111111"/></g><g transform="translate(1200,1600)"><rect width="400" height="400" fill="#ece8e0"/>
  <rect width="400.0" height="400.0" fill="#ece8e0"/>
<polygon points="0.00,0.00 0.00,0.00 0.00,50.00 50.00,0.00" fill="#111111"/>
<polygon points="0.00,100.00 0.00,150.00 100.00,50.00 100.00,0.00" fill="#111111"/>
<polygon points="0.00,200.00 0.00,250.00 100.00,150.00 100.00,100.00" fill="#111111"/>
<polygon points="0.00,300.00 0.00,350.00 100.00,250.00 100.00,200.00" fill="#111111"/>
<polygon points="0.00,400.00 0.00,400.00 50.00,400.00 100.00,350.00 100.00,300.00" fill="#111111"/>
<polygon points="100.00,400.00 100.00,400.00 100.00,400.00" fill="#111111"/>
<polygon points="200.00,0.00 200.00,0.00 200.00,0.00" fill="#111111"/>
<polygon points="150.00,0.00 100.00,0.00 100.00,0.00 200.00,100.00 200.00,50.00" fill="#111111"/>
<polygon points="100.00,50.00 100.00,100.00 200.00,200.00 200.00,150.00" fill="#111111"/>
<polygon points="100.00,150.00 100.00,200.00 200.00,300.00 200.00,250.00" fill="#111111"/>
<polygon points="100.00,250.00 100.00,300.00 200.00,400.00 200.00,350.00" fill="#111111"/>
<polygon points="150.00,400.00 100.00,350.00 100.00,400.00 100.00,400.00" fill="#111111"/>
<polygon points="200.00,0.00 200.00,0.00 200.00,50.00 250.00,0.00" fill="#111111"/>
<polygon points="200.00,100.00 200.00,150.00 300.00,50.00 300.00,0.00" fill="#111111"/>
<polygon points="200.00,200.00 200.00,250.00 300.00,150.00 300.00,100.00" fill="#111111"/>
<polygon points="200.00,300.00 200.00,350.00 300.00,250.00 300.00,200.00" fill="#111111"/>
<polygon points="200.00,400.00 200.00,400.00 250.00,400.00 300.00,350.00 300.00,300.00" fill="#111111"/>
<polygon points="300.00,400.00 300.00,400.00 300.00,400.00" fill="#111111"/>
<polygon points="400.00,0.00 400.00,0.00 400.00,0.00" fill="#111111"/>
<polygon points="350.00,0.00 300.00,0.00 300.00,0.00 400.00,100.00 400.00,50.00" fill="#111111"/>
<polygon points="300.00,50.00 300.00,100.00 400.00,200.00 400.00,150.00" fill="#111111"/>
<polygon points="300.00,150.00 300.00,200.00 400.00,300.00 400.00,250.00" fill="#111111"/>
<polygon points="300.00,250.00 300.00,300.00 400.00,400.00 400.00,350.00" fill="#111111"/>
<polygon points="350.00,400.00 300.00,350.00 300.00,400.00 300.00,400.00" fill="#111111"/></g><g transform="translate(1600,1600)"><rect width="400" height="400" fill="#ece8e0"/>
  <rect width="400.0" height="400.0" fill="#ece8e0"/>
<polygon points="0.00,0.00 0.00,0.00 0.00,50.00 50.00,0.00" fill="#111111"/>
<polygon points="0.00,100.00 0.00,150.00 100.00,50.00 100.00,0.00" fill="#111111"/>
<polygon points="0.00,200.00 0.00,250.00 100.00,150.00 100.00,100.00" fill="#111111"/>
<polygon points="0.00,300.00 0.00,350.00 100.00,250.00 100.00,200.00" fill="#111111"/>
<polygon points="0.00,400.00 0.00,400.00 50.00,400.00 100.00,350.00 100.00,300.00" fill="#111111"/>
<polygon points="100.00,400.00 100.00,400.00 100.00,400.00" fill="#111111"/>
<polygon points="200.00,0.00 200.00,0.00 200.00,0.00" fill="#111111"/>
<polygon points="150.00,0.00 100.00,0.00 100.00,0.00 200.00,100.00 200.00,50.00" fill="#111111"/>
<polygon points="100.00,50.00 100.00,100.00 200.00,200.00 200.00,150.00" fill="#111111"/>
<polygon points="100.00,150.00 100.00,200.00 200.00,300.00 200.00,250.00" fill="#111111"/>
<polygon points="100.00,250.00 100.00,300.00 200.00,400.00 200.00,350.00" fill="#111111"/>
<polygon points="150.00,400.00 100.00,350.00 100.00,400.00 100.00,400.00" fill="#111111"/>
<polygon points="200.00,0.00 200.00,0.00 200.00,50.00 250.00,0.00" fill="#111111"/>
<polygon points="200.00,100.00 200.00,150.00 300.00,50.00 300.00,0.00" fill="#111111"/>
<polygon points="200.00,200.00 200.00,250.00 300.00,150.00 300.00,100.00" fill="#111111"/>
<polygon points="200.00,300.00 200.00,350.00 300.00,250.00 300.00,200.00" fill="#111111"/>
<polygon points="200.00,400.00 200.00,400.00 250.00,400.00 300.00,350.00 300.00,300.00" fill="#111111"/>
<polygon points="300.00,400.00 300.00,400.00 300.00,400.00" fill="#111111"/>
<polygon points="400.00,0.00 400.00,0.00 400.00,0.00" fill="#111111"/>
<polygon points="350.00,0.00 300.00,0.00 300.00,0.00 400.00,100.00 400.00,50.00" fill="#111111"/>
<polygon points="300.00,50.00 300.00,100.00 400.00,200.00 400.00,150.00" fill="#111111"/>
<polygon points="300.00,150.00 300.00,200.00 400.00,300.00 400.00,250.00" fill="#111111"/>
<polygon points="300.00,250.00 300.00,300.00 400.00,400.00 400.00,350.00" fill="#111111"/>
<polygon points="350.00,400.00 300.00,350.00 300.00,400.00 300.00,400.00" fill="#111111"/></g></g>
</svg>