<?xml version="1.0" encoding="UTF-8"?>
<svg xmlns="http://www.w3.org/2000/svg" viewBox="0 0 400 400"
     width="400" height="400">
  <rect width="400" height="400" fill="#ece8e0"/>
  <rect width="400.0" height="400.0" fill="#ece8e0"/>
<polygon points="0.00,0.00 0.00,0.00 0.00,50.00 50.00,0.00" fill="#111111"/>
<polygon points="0.00,100.00 0.00,150.00 100.00,50.00 100.00,0.00" fill="#111111"/>
<polygon points="0.00,200.00 0.00,250.00 100.00,150.00 100.00,100.00" fill="#111111"/>
<polygon points="0.00,300.00 0.00,350.00 100.00,250.00 100.00,200.00" fill="#111111"/>
<polygon points="0.00,400.00 0.00,400.00 50.00,400.00 100.00,350.00 100.00,300.00" fill="#111111"/>
<polygon points="100.00,400.00 100.00,400.00 100.00,400.00" fill="#111111"/>
<polygon points="200.00,0.00 200.00,0.00 200.00,0.00" fill="#111111"/>
<polygon points="150.00,0.00 100.00,0.00 100.00,0.00 200.00,100.00 200.00,50.00" fill="#111111"/>
<polygon points="100.00,50.00 100.00,100.00 200.00,200.00 200.00,150.00" fill="#111111"/>
<polygon points="100.00,150.00 100.00,200.00 200.00,300.00 200.00,250.00" fill="#111111"/>
<polygon points="100.00,250.00 100.00,300.00 200.00,400.00 200.00,350.00" fill="#111111"/>
<polygon points="150.00,400.00 100.00,350.00 100.00,400.00 100.00,400.00" fill="#111111"/>
<polygon points="200.00,0.00 200.00,0.00 200.00,50.00 250.00,0.00" fill="#111111"/>
<polygon points="200.00,100.00 200.00,150.00 300.00,50.00 300.00,0.00" fill="#111111"/>
<polygon points="200.00,200.00 200.00,250.00 300.00,150.00 300.00,100.00" fill="#111111"/>
<polygon points="200.00,300.00 200.00,350.00 300.00,250.00 300.00,200.00" fill="#111111"/>
<polygon points="200.00,400.00 200.00,400.00 250.00,400.00 300.00,350.00 300.00,300.00" fill="#111111"/>
<polygon points="300.00,400.00 300.00,400.00 300.00,400.00" fill="#111111"/>
<polygon points="400.00,0.00 400.00,0.00 400.00,0.00" fill="#111111"/>
<polygon points="350.00,0.00 300.00,0.00 300.00,0.00 400.00,100.00 400.00,50.00" fill="#111111"/>
<polygon points="300.00,50.00 300.00,100.00 400.00,200.00 400.00,150.00" fill="#111111"/>
<polygon points="300.00,150.00 300.00,200.00 400.00,300.00 400.00,250.00" fill="#111111"/>
<polygon points="300.00,250.00 300.00,300.00 400.00,400.00 400.00,350.00" fill="#111111"/>
<polygon points="350.00,400.00 300.00,350.00 300.00,400.00 300.00,400.00" fill="#111111"/>
</svg>