<?xml version="1.0" encoding="UTF-8"?>
<svg xmlns="http://www.w3.org/2000/svg" viewBox="0 0 400 400"
     width="400" height="400">
  <rect width="400" height="400" fill="#ece8e0"/>
  <rect width="400.0" height="400.0" fill="#ece8e0"/>
<clipPath id="cb_0"><rect x="0.00" y="0" width="100.00" height="400.00"/></clipPath>
<g clip-path="url(#cb_0)">
<polygon points="0.00,-1100.00 0.00,-1050.00 100.00,-1150.00 100.00,-1200.00" fill="#111111"/>
<polygon points="0.00,-1000.00 0.00,-950.00 100.00,-1050.00 100.00,-1100.00" fill="#111111"/>
<polygon points="0.00,-900.00 0.00,-850.00 100.00,-950.00 100.00,-1000.00" fill="#111111"/>
<polygon points="0.00,-800.00 0.00,-750.00 100.00,-850.00 100.00,-900.00" fill="#111111"/>
<polygon points="0.00,-700.00 0.00,-650.00 100.00,-750.00 100.00,-800.00" fill="#111111"/>
<polygon points="0.00,-600.00 0.00,-550.00 100.00,-650.00 100.00,-700.00" fill="#111111"/>
<polygon points="0.00,-500.00 0.00,-450.00 100.00,-550.00 100.00,-600.00" fill="#111111"/>
<polygon points="0.00,-400.00 0.00,-350.00 100.00,-450.00 100.00,-500.00" fill="#111111"/>
<polygon points="0.00,-300.00 0.00,-250.00 100.00,-350.00 100.00,-400.00" fill="#111111"/>
<polygon points="0.00,-200.00 0.00,-150.00 100.00,-250.00 100.00,-300.00" fill="#111111"/>
<polygon points="0.00,-100.00 0.00,-50.00 100.00,-150.00 100.00,-200.00" fill="#111111"/>
<polygon points="0.00,0.00 0.00,50.00 100.00,-50.00 100.00,-100.00" fill="#111111"/>
<polygon points="0.00,100.00 0.00,150.00 100.00,50.00 100.00,0.00" fill="#111111"/>
<polygon points="0.00,200.00 0.00,250.00 100.00,150.00 100.00,100.00" fill="#111111"/>
<polygon points="0.00,300.00 0.00,350.00 100.00,250.00 100.00,200.00" fill="#111111"/>
<polygon points="0.00,400.00 0.00,450.00 100.00,350.00 100.00,300.00" fill="#111111"/>
<polygon points="0.00,500.00 0.00,550.00 100.00,450.00 100.00,400.00" fill="#111111"/>
<polygon points="0.00,600.00 0.00,650.00 100.00,550.00 100.00,500.00" fill="#111111"/>
<polygon points="0.00,700.00 0.00,750.00 100.00,650.00 100.00,600.00" fill="#111111"/>
<polygon points="0.00,800.00 0.00,850.00 100.00,750.00 100.00,700.00" fill="#111111"/>
<polygon points="0.00,900.00 0.00,950.00 100.00,850.00 100.00,800.00" fill="#111111"/>
<polygon points="0.00,1000.00 0.00,1050.00 100.00,950.00 100.00,900.00" fill="#111111"/>
<polygon points="0.00,1100.00 0.00,1150.00 100.00,1050.00 100.00,1000.00" fill="#111111"/>
<polygon points="0.00,1200.00 0.00,1250.00 100.00,1150.00 100.00,1100.00" fill="#111111"/>
<polygon points="0.00,1300.00 0.00,1350.00 100.00,1250.00 100.00,1200.00" fill="#111111"/>
<polygon points="0.00,1400.00 0.00,1450.00 100.00,1350.00 100.00,1300.00" fill="#111111"/>
</g>
<clipPath id="cb_1"><rect x="100.00" y="0" width="100.00" height="400.00"/></clipPath>
<g clip-path="url(#cb_1)">
<polygon points="100.00,-1050.00 100.00,-1000.00 200.00,-900.00 200.00,-950.00" fill="#111111"/>
<polygon points="100.00,-950.00 100.00,-900.00 200.00,-800.00 200.00,-850.00" fill="#111111"/>
<polygon points="100.00,-850.00 100.00,-800.00 200.00,-700.00 200.00,-750.00" fill="#111111"/>
<polygon points="100.00,-750.00 100.00,-700.00 200.00,-600.00 200.00,-650.00" fill="#111111"/>
<polygon points="100.00,-650.00 100.00,-600.00 200.00,-500.00 200.00,-550.00" fill="#111111"/>
<polygon points="100.00,-550.00 100.00,-500.00 200.00,-400.00 200.00,-450.00" fill="#111111"/>
<polygon points="100.00,-450.00 100.00,-400.00 200.00,-300.00 200.00,-350.00" fill="#111111"/>
<polygon points="100.00,-350.00 100.00,-300.00 200.00,-200.00 200.00,-250.00" fill="#111111"/>
<polygon points="100.00,-250.00 100.00,-200.00 200.00,-100.00 200.00,-150.00" fill="#111111"/>
<polygon points="100.00,-150.00 100.00,-100.00 200.00,0.00 200.00,-50.00" fill="#111111"/>
<polygon points="100.00,-50.00 100.00,0.00 200.00,100.00 200.00,50.00" fill="#111111"/>
<polygon points="100.00,50.00 100.00,100.00 200.00,200.00 200.00,150.00" fill="#111111"/>
<polygon points="100.00,150.00 100.00,200.00 200.00,300.00 200.00,250.00" fill="#111111"/>
<polygon points="100.00,250.00 100.00,300.00 200.00,400.00 200.00,350.00" fill="#111111"/>
<polygon points="100.00,350.00 100.00,400.00 200.00,500.00 200.00,450.00" fill="#111111"/>
<polygon points="100.00,450.00 100.00,500.00 200.00,600.00 200.00,550.00" fill="#111111"/>
<polygon points="100.00,550.00 100.00,600.00 200.00,700.00 200.00,650.00" fill="#111111"/>
<polygon points="100.00,650.00 100.00,700.00 200.00,800.00 200.00,750.00" fill="#111111"/>
<polygon points="100.00,750.00 100.00,800.00 200.00,900.00 200.00,850.00" fill="#111111"/>
<polygon points="100.00,850.00 100.00,900.00 200.00,1000.00 200.00,950.00" fill="#111111"/>
<polygon points="100.00,950.00 100.00,1000.00 200.00,1100.00 200.00,1050.00" fill="#111111"/>
<polygon points="100.00,1050.00 100.00,1100.00 200.00,1200.00 200.00,1150.00" fill="#111111"/>
<polygon points="100.00,1150.00 100.00,1200.00 200.00,1300.00 200.00,1250.00" fill="#111111"/>
<polygon points="100.00,1250.00 100.00,1300.00 200.00,1400.00 200.00,1350.00" fill="#111111"/>
<polygon points="100.00,1350.00 100.00,1400.00 200.00,1500.00 200.00,1450.00" fill="#111111"/>
<polygon points="100.00,1450.00 100.00,1500.00 200.00,1600.00 200.00,1550.00" fill="#111111"/>
</g>
<clipPath id="cb_2"><rect x="200.00" y="0" width="100.00" height="400.00"/></clipPath>
<g clip-path="url(#cb_2)">
<polygon points="200.00,-1000.00 200.00,-950.00 300.00,-1050.00 300.00,-1100.00" fill="#111111"/>
<polygon points="200.00,-900.00 200.00,-850.00 300.00,-950.00 300.00,-1000.00" fill="#111111"/>
<polygon points="200.00,-800.00 200.00,-750.00 300.00,-850.00 300.00,-900.00" fill="#111111"/>
<polygon points="200.00,-700.00 200.00,-650.00 300.00,-750.00 300.00,-800.00" fill="#111111"/>
<polygon points="200.00,-600.00 200.00,-550.00 300.00,-650.00 300.00,-700.00" fill="#111111"/>
<polygon points="200.00,-500.00 200.00,-450.00 300.00,-550.00 300.00,-600.00" fill="#111111"/>
<polygon points="200.00,-400.00 200.00,-350.00 300.00,-450.00 300.00,-500.00" fill="#111111"/>
<polygon points="200.00,-300.00 200.00,-250.00 300.00,-350.00 300.00,-400.00" fill="#111111"/>
<polygon points="200.00,-200.00 200.00,-150.00 300.00,-250.00 300.00,-300.00" fill="#111111"/>
<polygon points="200.00,-100.00 200.00,-50.00 300.00,-150.00 300.00,-200.00" fill="#111111"/>
<polygon points="200.00,0.00 200.00,50.00 300.00,-50.00 300.00,-100.00" fill="#111111"/>
<polygon points="200.00,100.00 200.00,150.00 300.00,50.00 300.00,0.00" fill="#111111"/>
<polygon points="200.00,200.00 200.00,250.00 300.00,150.00 300.00,100.00" fill="#111111"/>
<polygon points="200.00,300.00 200.00,350.00 300.00,250.00 300.00,200.00" fill="#111111"/>
<polygon points="200.00,400.00 200.00,450.00 300.00,350.00 300.00,300.00" fill="#111111"/>
<polygon points="200.00,500.00 200.00,550.00 300.00,450.00 300.00,400.00" fill="#111111"/>
<polygon points="200.00,600.00 200.00,650.00 300.00,550.00 300.00,500.00" fill="#111111"/>
<polygon points="200.00,700.00 200.00,750.00 300.00,650.00 300.00,600.00" fill="#111111"/>
<polygon points="200.00,800.00 200.00,850.00 300.00,750.00 300.00,700.00" fill="#111111"/>
<polygon points="200.00,900.00 200.00,950.00 300.00,850.00 300.00,800.00" fill="#111111"/>
<polygon points="200.00,1000.00 200.00,1050.00 300.00,950.00 300.00,900.00" fill="#111111"/>
<polygon points="200.00,1100.00 200.00,1150.00 300.00,1050.00 300.00,1000.00" fill="#111111"/>
<polygon points="200.00,1200.00 200.00,1250.00 300.00,1150.00 300.00,1100.00" fill="#111111"/>
<polygon points="200.00,1300.00 200.00,1350.00 300.00,1250.00 300.00,1200.00" fill="#111111"/>
<polygon points="200.00,1400.00 200.00,1450.00 300.00,1350.00 300.00,1300.00" fill="#111111"/>
<polygon points="200.00,1500.00 200.00,1550.00 300.00,1450.00 300.00,1400.00" fill="#111111"/>
</g>
<clipPath id="cb_3"><rect x="300.00" y="0" width="100.00" height="400.00"/></clipPath>
<g clip-path="url(#cb_3)">
<polygon points="300.00,-950.00 300.00,-900.00 400.00,-800.00 400.00,-850.00" fill="#111111"/>
<polygon points="300.00,-850.00 300.00,-800.00 400.00,-700.00 400.00,-750.00" fill="#111111"/>
<polygon points="300.00,-750.00 300.00,-700.00 400.00,-600.00 400.00,-650.00" fill="#111111"/>
<polygon points="300.00,-650.00 300.00,-600.00 400.00,-500.00 400.00,-550.00" fill="#111111"/>
<polygon points="300.00,-550.00 300.00,-500.00 400.00,-400.00 400.00,-450.00" fill="#111111"/>
<polygon points="300.00,-450.00 300.00,-400.00 400.00,-300.00 400.00,-350.00" fill="#111111"/>
<polygon points="300.00,-350.00 300.00,-300.00 400.00,-200.00 400.00,-250.00" fill="#111111"/>
<polygon points="300.00,-250.00 300.00,-200.00 400.00,-100.00 400.00,-150.00" fill="#111111"/>
<polygon points="300.00,-150.00 300.00,-100.00 400.00,0.00 400.00,-50.00" fill="#111111"/>
<polygon points="300.00,-50.00 300.00,0.00 400.00,100.00 400.00,50.00" fill="#111111"/>
<polygon points="300.00,50.00 300.00,100.00 400.00,200.00 400.00,150.00" fill="#111111"/>
<polygon points="300.00,150.00 300.00,200.00 400.00,300.00 400.00,250.00" fill="#111111"/>
<polygon points="300.00,250.00 300.00,300.00 400.00,400.00 400.00,350.00" fill="#111111"/>
<polygon points="300.00,350.00 300.00,400.00 400.00,500.00 400.00,450.00" fill="#111111"/>
<polygon points="300.00,450.00 300.00,500.00 400.00,600.00 400.00,550.00" fill="#111111"/>
<polygon points="300.00,550.00 300.00,600.00 400.00,700.00 400.00,650.00" fill="#111111"/>
<polygon points="300.00,650.00 300.00,700.00 400.00,800.00 400.00,750.00" fill="#111111"/>
<polygon points="300.00,750.00 300.00,800.00 400.00,900.00 400.00,850.00" fill="#111111"/>
<polygon points="300.00,850.00 300.00,900.00 400.00,1000.00 400.00,950.00" fill="#111111"/>
<polygon points="300.00,950.00 300.00,1000.00 400.00,1100.00 400.00,1050.00" fill="#111111"/>
<polygon points="300.00,1050.00 300.00,1100.00 400.00,1200.00 400.00,1150.00" fill="#111111"/>
<polygon points="300.00,1150.00 300.00,1200.00 400.00,1300.00 400.00,1250.00" fill="#111111"/>
<polygon points="300.00,1250.00 300.00,1300.00 400.00,1400.00 400.00,1350.00" fill="#111111"/>
<polygon points="300.00,1350.00 300.00,1400.00 400.00,1500.00 400.00,1450.00" fill="#111111"/>
<polygon points="300.00,1450.00 300.00,1500.00 400.00,1600.00 400.00,1550.00" fill="#111111"/>
<polygon points="300.00,1550.00 300.00,1600.00 400.00,1700.00 400.00,1650.00" fill="#111111"/>
</g>
</svg>