<?xml version="1.0" encoding="UTF-8"?>
<svg xmlns="http://www.w3.org/2000/svg" viewBox="0 0 400 400"
     width="400" height="400">
  <rect width="400" height="400" fill="#e6d9b8"/>
  <svg xmlns="http://www.w3.org/2000/svg" width="400" height="400" viewBox="0 0 400 400">
<rect width="400" height="400" fill="#e6d9b8"/>
<path d="M172.34,245.04 L175.51,246.10 L179.54,246.46 L184.28,246.98 L189.06,248.48 L192.94,251.35 L195.15,255.41 L195.45,260.08 L194.22,264.70 L192.20,268.86 L190.13,272.52 L188.40,275.90 L186.93,279.21 L185.34,282.47 L183.27,285.46 L180.57,287.90 L177.41,289.66 L174.10,290.94 L170.89,292.15 L167.74,293.71 L164.42,295.70 L160.65,297.76 L156.40,299.19 L151.99,299.28 L147.96,297.68 L144.80,294.58 L142.65,290.65 L141.17,286.70 L139.69,283.24 L137.61,280.33 L134.76,277.57 L131.59,274.41 L129.03,270.57 L128.03,266.22 L129.09,261.92 L132.01,258.28 L135.95,255.60 L139.86,253.66 L142.95,251.81 L145.04,249.33 L146.61,245.92 L148.43,241.93 L151.11,238.24 L154.77,235.89 L159.00,235.55 L163.13,237.16 L166.68,239.98 L169.60,242.91 Z" fill="#6E7359" fill-opacity="0.45"/>
<path d="M152.48,144.36 L151.78,139.33 L150.65,135.23 L148.46,131.78 L145.23,128.35 L141.61,124.35 L138.63,119.52 L137.29,114.14 L138.09,108.80 L140.89,104.15 L145.00,100.50 L149.55,97.74 L153.88,95.43 L157.77,93.07 L161.42,90.45 L165.20,87.75 L169.40,85.45 L174.03,84.10 L178.85,83.96 L183.56,84.93 L188.02,86.59 L192.29,88.47 L196.61,90.29 L201.16,92.14 L205.86,94.37 L210.32,97.38 L213.95,101.39 L216.23,106.27 L216.93,111.64 L216.21,117.00 L214.53,122.01 L212.45,126.55 L210.32,130.71 L208.23,134.66 L206.04,138.46 L203.52,142.04 L200.58,145.29 L197.25,148.16 L193.66,150.78 L189.90,153.38 L185.88,156.15 L181.40,158.99 L176.31,161.45 L170.70,162.84 L165.01,162.44 L159.91,159.93 L156.03,155.55 L153.65,150.03 Z" fill="#B5C49F" fill-opacity="0.45"/>
<path d="M266.07,196.96 L270.59,194.23 L274.02,191.90 L276.00,189.18 L276.98,185.56 L277.88,181.12 L279.58,176.57 L282.52,172.90 L286.57,170.90 L291.12,170.78 L295.57,172.13 L299.55,174.11 L303.14,175.93 L306.66,177.19 L310.39,178.07 L314.34,179.06 L318.20,180.72 L321.51,183.31 L323.97,186.71 L325.63,190.56 L326.85,194.51 L328.11,198.45 L329.63,202.53 L331.18,206.97 L332.16,211.80 L331.87,216.72 L329.85,221.16 L326.19,224.53 L321.47,226.55 L316.52,227.43 L312.00,227.77 L308.16,228.27 L304.82,229.35 L301.56,230.91 L298.03,232.43 L294.22,233.23 L290.35,232.89 L286.74,231.45 L283.49,229.39 L280.34,227.33 L276.83,225.62 L272.57,224.14 L267.66,222.37 L262.75,219.67 L258.93,215.72 L257.25,210.75 L258.21,205.46 L261.49,200.68 Z" fill="#8D9971" fill-opacity="0.45"/>
<path d="M17.23,-99.75 L23.84,-108.37 L30.67,-116.90 L38.36,-124.93 L47.27,-131.79 L57.32,-137.03 L68.09,-140.72 L79.26,-143.48 L90.85,-146.00 L103.20,-148.50 L116.57,-150.30 L130.58,-149.96 L143.96,-145.92 L154.87,-137.36 L161.59,-124.78 L163.52,-109.95 L161.69,-95.20 L158.56,-82.35 L157.03,-71.87 L159.18,-62.77 L165.20,-53.21 L173.18,-41.64 L179.91,-27.80 L182.19,-12.97 L178.27,0.52 L168.44,10.44 L154.79,15.78 L140.13,17.28 L126.72,17.05 L115.39,17.54 L105.53,20.30 L95.78,25.29 L84.95,30.97 L72.78,35.09 L60.01,35.78 L47.84,32.36 L37.26,25.45 L28.48,16.46 L20.97,6.78 L13.93,-2.89 L6.97,-12.62 L0.43,-22.94 L-4.64,-34.28 L-7.10,-46.49 L-6.27,-58.92 L-2.38,-70.73 L3.59,-81.39 L10.43,-90.92 Z" fill="#626451" fill-opacity="0.45"/>
<path d="M17.23,300.25 L23.84,291.63 L30.67,283.10 L38.36,275.07 L47.27,268.21 L57.32,262.97 L68.09,259.28 L79.26,256.52 L90.85,254.00 L103.20,251.50 L116.57,249.70 L130.58,250.04 L143.96,254.08 L154.87,262.64 L161.59,275.22 L163.52,290.05 L161.69,304.80 L158.56,317.65 L157.03,328.13 L159.18,337.23 L165.20,346.79 L173.18,358.36 L179.91,372.20 L182.19,387.03 L178.27,400.52 L168.44,410.44 L154.79,415.78 L140.13,417.28 L126.72,417.05 L115.39,417.54 L105.53,420.30 L95.78,425.29 L84.95,430.97 L72.78,435.09 L60.01,435.78 L47.84,432.36 L37.26,425.45 L28.48,416.46 L20.97,406.78 L13.93,397.11 L6.97,387.38 L0.43,377.06 L-4.64,365.72 L-7.10,353.51 L-6.27,341.08 L-2.38,329.27 L3.59,318.61 L10.43,309.08 Z" fill="#626451" fill-opacity="0.45"/>
<path d="M417.23,-99.75 L423.84,-108.37 L430.67,-116.90 L438.36,-124.93 L447.27,-131.79 L457.32,-137.03 L468.09,-140.72 L479.26,-143.48 L490.85,-146.00 L503.20,-148.50 L516.57,-150.30 L530.58,-149.96 L543.96,-145.92 L554.87,-137.36 L561.59,-124.78 L563.52,-109.95 L561.69,-95.20 L558.56,-82.35 L557.03,-71.87 L559.18,-62.77 L565.20,-53.21 L573.18,-41.64 L579.91,-27.80 L582.19,-12.97 L578.27,0.52 L568.44,10.44 L554.79,15.78 L540.13,17.28 L526.72,17.05 L515.39,17.54 L505.53,20.30 L495.78,25.29 L484.95,30.97 L472.78,35.09 L460.01,35.78 L447.84,32.36 L437.26,25.45 L428.48,16.46 L420.97,6.78 L413.93,-2.89 L406.97,-12.62 L400.43,-22.94 L395.36,-34.28 L392.90,-46.49 L393.73,-58.92 L397.62,-70.73 L403.59,-81.39 L410.43,-90.92 Z" fill="#626451" fill-opacity="0.45"/>
<path d="M417.23,300.25 L423.84,291.63 L430.67,283.10 L438.36,275.07 L447.27,268.21 L457.32,262.97 L468.09,259.28 L479.26,256.52 L490.85,254.00 L503.20,251.50 L516.57,249.70 L530.58,250.04 L543.96,254.08 L554.87,262.64 L561.59,275.22 L563.52,290.05 L561.69,304.80 L558.56,317.65 L557.03,328.13 L559.18,337.23 L565.20,346.79 L573.18,358.36 L579.91,372.20 L582.19,387.03 L578.27,400.52 L568.44,410.44 L554.79,415.78 L540.13,417.28 L526.72,417.05 L515.39,417.54 L505.53,420.30 L495.78,425.29 L484.95,430.97 L472.78,435.09 L460.01,435.78 L447.84,432.36 L437.26,425.45 L428.48,416.46 L420.97,406.78 L413.93,397.11 L406.97,387.38 L400.43,377.06 L395.36,365.72 L392.90,353.51 L393.73,341.08 L397.62,329.27 L403.59,318.61 L410.43,309.08 Z" fill="#626451" fill-opacity="0.45"/>
<path d="M77.67,116.46 L71.99,111.82 L66.73,107.44 L61.20,103.80 L54.98,100.56 L48.32,96.90 L42.12,92.02 L37.55,85.64 L35.40,78.16 L35.67,70.33 L37.57,62.83 L39.94,55.84 L41.87,49.06 L43.17,41.97 L44.45,34.33 L46.67,26.48 L50.66,19.26 L56.57,13.60 L63.92,9.98 L71.88,8.17 L79.77,7.38 L87.40,6.72 L95.01,5.84 L102.88,5.17 L110.88,5.79 L118.30,8.78 L124.08,14.59 L127.42,22.61 L128.36,31.41 L128.07,39.38 L128.41,45.56 L131.18,50.08 L137.13,54.11 L145.51,59.18 L154.19,66.29 L160.56,75.38 L162.58,85.28 L159.58,94.28 L152.47,101.05 L143.21,105.21 L133.81,107.51 L125.58,109.29 L118.70,111.71 L112.49,115.10 L106.11,118.79 L99.06,121.52 L91.56,122.15 L84.23,120.29 Z" fill="#6E7359" fill-opacity="0.45"/>
<path d="M77.67,516.46 L71.99,511.82 L66.73,507.44 L61.20,503.80 L54.98,500.56 L48.32,496.90 L42.12,492.02 L37.55,485.64 L35.40,478.16 L35.67,470.33 L37.57,462.83 L39.94,455.84 L41.87,449.06 L43.17,441.97 L44.45,434.33 L46.67,426.48 L50.66,419.26 L56.57,413.60 L63.92,409.98 L71.88,408.17 L79.77,407.38 L87.40,406.72 L95.01,405.84 L102.88,405.17 L110.88,405.79 L118.30,408.78 L124.08,414.59 L127.42,422.61 L128.36,431.41 L128.07,439.38 L128.41,445.56 L131.18,450.08 L137.13,454.11 L145.51,459.18 L154.19,466.29 L160.56,475.38 L162.58,485.28 L159.58,494.28 L152.47,501.05 L143.21,505.21 L133.81,507.51 L125.58,509.29 L118.70,511.71 L112.49,515.10 L106.11,518.79 L99.06,521.52 L91.56,522.15 L84.23,520.29 Z" fill="#6E7359" fill-opacity="0.45"/>
<path d="M333.17,-18.59 L333.94,-22.54 L335.69,-26.20 L338.50,-28.84 L342.07,-30.04 L345.87,-29.89 L349.50,-28.86 L352.83,-27.55 L355.96,-26.34 L359.07,-25.30 L362.19,-24.17 L365.19,-22.62 L367.81,-20.46 L369.87,-17.76 L371.39,-14.76 L372.66,-11.70 L373.98,-8.65 L375.49,-5.49 L376.96,-2.04 L377.88,1.73 L377.64,5.57 L375.91,9.00 L372.82,11.55 L368.93,13.03 L365.04,13.70 L361.75,14.20 L359.26,15.25 L357.25,17.28 L355.17,20.15 L352.51,23.20 L349.15,25.50 L345.38,26.31 L341.73,25.40 L338.62,23.16 L336.12,20.32 L333.90,17.63 L331.46,15.42 L328.51,13.55 L325.19,11.52 L322.12,8.85 L320.14,5.40 L319.91,1.46 L321.53,-2.39 L324.47,-5.65 L327.76,-8.14 L330.49,-10.16 L332.14,-12.29 L332.82,-15.05 Z" fill="#626451" fill-opacity="0.45"/>
<path d="M333.17,381.41 L333.94,377.46 L335.69,373.80 L338.50,371.16 L342.07,369.96 L345.87,370.11 L349.50,371.14 L352.83,372.45 L355.96,373.66 L359.07,374.70 L362.19,375.83 L365.19,377.38 L367.81,379.54 L369.87,382.24 L371.39,385.24 L372.66,388.30 L373.98,391.35 L375.49,394.51 L376.96,397.96 L377.88,401.73 L377.64,405.57 L375.91,409.00 L372.82,411.55 L368.93,413.03 L365.04,413.70 L361.75,414.20 L359.26,415.25 L357.25,417.28 L355.17,420.15 L352.51,423.20 L349.15,425.50 L345.38,426.31 L341.73,425.40 L338.62,423.16 L336.12,420.32 L333.90,417.63 L331.46,415.42 L328.51,413.55 L325.19,411.52 L322.12,408.85 L320.14,405.40 L319.91,401.46 L321.53,397.61 L324.47,394.35 L327.76,391.86 L330.49,389.84 L332.14,387.71 L332.82,384.95 Z" fill="#626451" fill-opacity="0.45"/>
<path d="M136.06,156.73 L141.89,143.81 L150.66,132.54 L162.53,124.86 L176.54,121.96 L191.03,123.65 L204.50,128.27 L216.42,133.43 L227.32,137.06 L238.42,138.42 L250.72,138.37 L264.23,138.89 L277.83,142.06 L289.75,149.01 L298.54,159.47 L303.88,172.09 L306.81,185.27 L309.17,198.07 L312.55,210.62 L317.29,223.76 L322.09,238.29 L324.55,254.04 L322.29,269.64 L314.10,282.90 L300.65,291.85 L284.14,295.73 L267.40,295.52 L252.66,293.54 L240.70,292.51 L230.78,294.28 L221.30,299.14 L210.75,305.75 L198.43,311.87 L184.71,315.37 L170.62,315.07 L157.23,310.90 L145.18,303.64 L134.63,294.25 L125.52,283.41 L118.01,271.40 L112.59,258.33 L109.93,244.49 L110.38,230.49 L113.60,217.06 L118.49,204.64 L123.68,193.07 L128.19,181.65 L131.99,169.61 Z" fill="#626451" fill-opacity="0.45"/>
<path d="M148.65,31.60 L148.58,27.10 L148.77,22.31 L149.65,17.39 L151.61,12.73 L154.77,8.79 L158.92,5.92 L163.61,4.12 L168.42,3.08 L173.13,2.36 L177.75,1.69 L182.44,1.11 L187.25,1.02 L192.00,1.92 L196.31,4.13 L199.80,7.53 L202.36,11.63 L204.30,15.77 L206.24,19.47 L208.79,22.70 L212.16,25.84 L215.94,29.45 L219.21,33.86 L220.85,38.96 L220.13,44.13 L217.03,48.61 L212.32,51.87 L207.21,53.98 L202.84,55.62 L199.75,57.78 L197.72,61.22 L195.93,66.06 L193.46,71.64 L189.70,76.73 L184.69,80.07 L179.04,80.85 L173.58,79.05 L168.93,75.36 L165.30,70.81 L162.43,66.31 L159.89,62.35 L157.34,58.89 L154.73,55.62 L152.34,52.16 L150.48,48.36 L149.36,44.28 L148.87,40.09 L148.73,35.88 Z" fill="#626451" fill-opacity="0.45"/>
<path d="M148.65,431.60 L148.58,427.10 L148.77,422.31 L149.65,417.39 L151.61,412.73 L154.77,408.79 L158.92,405.92 L163.61,404.12 L168.42,403.08 L173.13,402.36 L177.75,401.69 L182.44,401.11 L187.25,401.02 L192.00,401.92 L196.31,404.13 L199.80,407.53 L202.36,411.63 L204.30,415.77 L206.24,419.47 L208.79,422.70 L212.16,425.84 L215.94,429.45 L219.21,433.86 L220.85,438.96 L220.13,444.13 L217.03,448.61 L212.32,451.87 L207.21,453.98 L202.84,455.62 L199.75,457.78 L197.72,461.22 L195.93,466.06 L193.46,471.64 L189.70,476.73 L184.69,480.07 L179.04,480.85 L173.58,479.05 L168.93,475.36 L165.30,470.81 L162.43,466.31 L159.89,462.35 L157.34,458.89 L154.73,455.62 L152.34,452.16 L150.48,448.36 L149.36,444.28 L148.87,440.09 L148.73,435.88 Z" fill="#626451" fill-opacity="0.45"/>
<path d="M71.09,298.75 L66.87,301.54 L62.01,303.66 L56.80,304.31 L51.76,303.20 L47.30,300.62 L43.49,297.20 L40.08,293.51 L36.76,289.80 L33.47,285.95 L30.51,281.70 L28.47,276.90 L27.91,271.72 L29.01,266.57 L31.43,261.88 L34.40,257.82 L37.11,254.15 L39.12,250.40 L40.56,246.15 L42.03,241.38 L44.26,236.58 L47.68,232.58 L52.24,230.15 L57.44,229.58 L62.62,230.52 L67.38,232.14 L71.76,233.56 L76.12,234.27 L80.84,234.43 L86.00,234.71 L91.19,235.97 L95.67,238.72 L98.78,242.93 L100.29,248.02 L100.60,253.27 L100.55,258.16 L100.98,262.64 L102.27,267.11 L104.09,271.99 L105.52,277.44 L105.50,283.07 L103.38,288.13 L99.20,291.83 L93.70,293.82 L87.94,294.38 L82.76,294.39 L78.47,294.81 L74.78,296.28 Z" fill="#6E7359" fill-opacity="0.45"/>
<path d="M220.26,-104.24 L227.54,-103.07 L234.43,-100.39 L240.55,-96.29 L245.77,-91.21 L250.24,-85.67 L254.31,-80.02 L258.23,-74.31 L262.01,-68.36 L265.32,-61.92 L267.66,-54.94 L268.60,-47.57 L268.00,-40.16 L266.04,-32.99 L263.13,-26.21 L259.65,-19.76 L255.74,-13.52 L251.31,-7.51 L246.15,-1.94 L240.08,2.78 L233.19,6.25 L225.76,8.28 L218.12,9.02 L210.54,8.84 L203.04,8.12 L195.54,6.98 L188.05,5.19 L180.82,2.28 L174.42,-2.20 L169.55,-8.32 L166.69,-15.69 L165.78,-23.52 L166.14,-31.00 L166.65,-37.71 L166.24,-43.76 L164.37,-49.78 L161.33,-56.51 L158.17,-64.36 L156.29,-73.14 L156.87,-82.04 L160.39,-89.95 L166.51,-95.98 L174.30,-99.80 L182.66,-101.73 L190.80,-102.56 L198.44,-103.07 L205.71,-103.67 L212.93,-104.24 Z" fill="#6E7359" fill-opacity="0.45"/>
<path d="M220.26,295.76 L227.54,296.93 L234.43,299.61 L240.55,303.71 L245.77,308.79 L250.24,314.33 L254.31,319.98 L258.23,325.69 L262.01,331.64 L265.32,338.08 L267.66,345.06 L268.60,352.43 L268.00,359.84 L266.04,367.01 L263.13,373.79 L259.65,380.24 L255.74,386.48 L251.31,392.49 L246.15,398.06 L240.08,402.78 L233.19,406.25 L225.76,408.28 L218.12,409.02 L210.54,408.84 L203.04,408.12 L195.54,406.98 L188.05,405.19 L180.82,402.28 L174.42,397.80 L169.55,391.68 L166.69,384.31 L165.78,376.48 L166.14,369.00 L166.65,362.29 L166.24,356.24 L164.37,350.22 L161.33,343.49 L158.17,335.64 L156.29,326.86 L156.87,317.96 L160.39,310.05 L166.51,304.02 L174.30,300.20 L182.66,298.27 L190.80,297.44 L198.44,296.93 L205.71,296.33 L212.93,295.76 Z" fill="#6E7359" fill-opacity="0.45"/>
<path d="M254.37,76.94 L252.80,87.42 L247.55,96.77 L239.99,104.41 L231.65,110.48 L223.57,115.59 L216.03,120.29 L208.71,124.73 L201.17,128.56 L193.22,131.27 L184.97,132.63 L176.71,132.89 L168.52,132.72 L160.16,132.73 L151.20,133.04 L141.43,133.04 L131.20,131.64 L121.54,127.82 L113.74,121.16 L108.78,112.16 L106.76,101.97 L106.79,91.82 L107.37,82.40 L107.17,73.61 L105.77,64.78 L103.91,55.29 L103.20,45.15 L105.24,35.22 L110.82,26.88 L119.48,21.28 L129.71,18.59 L139.76,17.82 L148.46,17.16 L155.79,14.87 L162.68,10.24 L170.36,4.07 L179.51,-1.66 L189.80,-4.64 L199.96,-3.32 L208.50,2.40 L214.55,11.18 L218.39,20.92 L221.34,29.84 L225.07,37.15 L230.67,43.34 L238.02,49.63 L245.73,57.20 L251.77,66.48 Z" fill="#6E7359" fill-opacity="0.45"/>
<path d="M254.37,476.94 L252.80,487.42 L247.55,496.77 L239.99,504.41 L231.65,510.48 L223.57,515.59 L216.03,520.29 L208.71,524.73 L201.17,528.56 L193.22,531.27 L184.97,532.63 L176.71,532.89 L168.52,532.72 L160.16,532.73 L151.20,533.04 L141.43,533.04 L131.20,531.64 L121.54,527.82 L113.74,521.16 L108.78,512.16 L106.76,501.97 L106.79,491.82 L107.37,482.40 L107.17,473.61 L105.77,464.78 L103.91,455.29 L103.20,445.15 L105.24,435.22 L110.82,426.88 L119.48,421.28 L129.71,418.59 L139.76,417.82 L148.46,417.16 L155.79,414.87 L162.68,410.24 L170.36,404.07 L179.51,398.34 L189.80,395.36 L199.96,396.68 L208.50,402.40 L214.55,411.18 L218.39,420.92 L221.34,429.84 L225.07,437.15 L230.67,443.34 L238.02,449.63 L245.73,457.20 L251.77,466.48 Z" fill="#6E7359" fill-opacity="0.45"/>
<path d="M87.12,30.43 L92.24,39.38 L95.83,48.49 L98.47,57.18 L101.01,65.13 L104.26,72.47 L108.67,79.74 L113.98,87.69 L119.17,96.87 L122.78,107.26 L123.44,118.19 L120.42,128.51 L113.94,137.11 L105.08,143.43 L95.30,147.69 L85.83,150.88 L77.21,154.18 L69.16,158.38 L60.94,163.43 L51.85,168.41 L41.72,171.88 L31.06,172.56 L20.77,169.86 L11.76,164.14 L4.42,156.45 L-1.49,148.05 L-6.62,139.85 L-11.65,132.09 L-16.80,124.44 L-21.65,116.38 L-25.34,107.56 L-26.99,98.11 L-26.15,88.55 L-23.05,79.51 L-18.52,71.30 L-13.54,63.82 L-8.85,56.53 L-4.59,48.85 L-0.32,40.47 L4.71,31.62 L11.17,23.01 L19.38,15.62 L29.16,10.32 L39.98,7.66 L51.12,7.77 L61.90,10.49 L71.76,15.46 L80.27,22.26 Z" fill="#8D9971" fill-opacity="0.45"/>
<path d="M87.12,430.43 L92.24,439.38 L95.83,448.49 L98.47,457.18 L101.01,465.13 L104.26,472.47 L108.67,479.74 L113.98,487.69 L119.17,496.87 L122.78,507.26 L123.44,518.19 L120.42,528.51 L113.94,537.11 L105.08,543.43 L95.30,547.69 L85.83,550.88 L77.21,554.18 L69.16,558.38 L60.94,563.43 L51.85,568.41 L41.72,571.88 L31.06,572.56 L20.77,569.86 L11.76,564.14 L4.42,556.45 L-1.49,548.05 L-6.62,539.85 L-11.65,532.09 L-16.80,524.44 L-21.65,516.38 L-25.34,507.56 L-26.99,498.11 L-26.15,488.55 L-23.05,479.51 L-18.52,471.30 L-13.54,463.82 L-8.85,456.53 L-4.59,448.85 L-0.32,440.47 L4.71,431.62 L11.17,423.01 L19.38,415.62 L29.16,410.32 L39.98,407.66 L51.12,407.77 L61.90,410.49 L71.76,415.46 L80.27,422.26 Z" fill="#8D9971" fill-opacity="0.45"/>
<path d="M487.12,30.43 L492.24,39.38 L495.83,48.49 L498.47,57.18 L501.01,65.13 L504.26,72.47 L508.67,79.74 L513.98,87.69 L519.17,96.87 L522.78,107.26 L523.44,118.19 L520.42,128.51 L513.94,137.11 L505.08,143.43 L495.30,147.69 L485.83,150.88 L477.21,154.18 L469.16,158.38 L460.94,163.43 L451.85,168.41 L441.72,171.88 L431.06,172.56 L420.77,169.86 L411.76,164.14 L404.42,156.45 L398.51,148.05 L393.38,139.85 L388.35,132.09 L383.20,124.44 L378.35,116.38 L374.66,107.56 L373.01,98.11 L373.85,88.55 L376.95,79.51 L381.48,71.30 L386.46,63.82 L391.15,56.53 L395.41,48.85 L399.68,40.47 L404.71,31.62 L411.17,23.01 L419.38,15.62 L429.16,10.32 L439.98,7.66 L451.12,7.77 L461.90,10.49 L471.76,15.46 L480.27,22.26 Z" fill="#8D9971" fill-opacity="0.45"/>
<path d="M487.12,430.43 L492.24,439.38 L495.83,448.49 L498.47,457.18 L501.01,465.13 L504.26,472.47 L508.67,479.74 L513.98,487.69 L519.17,496.87 L522.78,507.26 L523.44,518.19 L520.42,528.51 L513.94,537.11 L505.08,543.43 L495.30,547.69 L485.83,550.88 L477.21,554.18 L469.16,558.38 L460.94,563.43 L451.85,568.41 L441.72,571.88 L431.06,572.56 L420.77,569.86 L411.76,564.14 L404.42,556.45 L398.51,548.05 L393.38,539.85 L388.35,532.09 L383.20,524.44 L378.35,516.38 L374.66,507.56 L373.01,498.11 L373.85,488.55 L376.95,479.51 L381.48,471.30 L386.46,463.82 L391.15,456.53 L395.41,448.85 L399.68,440.47 L404.71,431.62 L411.17,423.01 L419.38,415.62 L429.16,410.32 L439.98,407.66 L451.12,407.77 L461.90,410.49 L471.76,415.46 L480.27,422.26 Z" fill="#8D9971" fill-opacity="0.45"/>
<path d="M64.66,-24.62 L58.62,-22.00 L52.15,-20.93 L45.87,-20.70 L40.02,-20.32 L34.31,-19.07 L28.21,-17.01 L21.39,-15.05 L14.15,-14.53 L7.38,-16.54 L2.17,-21.34 L-0.80,-28.18 L-1.76,-35.65 L-1.93,-42.42 L-2.92,-47.88 L-6.00,-52.39 L-11.36,-57.01 L-17.87,-62.81 L-23.54,-70.20 L-26.36,-78.63 L-25.19,-86.82 L-20.16,-93.44 L-12.58,-97.79 L-4.21,-100.11 L3.53,-101.38 L10.04,-102.73 L15.62,-104.81 L20.96,-107.37 L26.63,-109.53 L32.66,-110.26 L38.64,-109.05 L44.06,-106.19 L48.80,-102.65 L53.29,-99.50 L58.32,-97.32 L64.51,-95.89 L71.84,-94.27 L79.47,-91.40 L86.03,-86.62 L90.20,-80.04 L91.33,-72.42 L89.73,-64.76 L86.45,-57.74 L82.72,-51.50 L79.37,-45.71 L76.47,-39.96 L73.48,-34.20 L69.68,-28.85 Z" fill="#6E7359" fill-opacity="0.45"/>
<path d="M64.66,375.38 L58.62,378.00 L52.15,379.07 L45.87,379.30 L40.02,379.68 L34.31,380.93 L28.21,382.99 L21.39,384.95 L14.15,385.47 L7.38,383.46 L2.17,378.66 L-0.80,371.82 L-1.76,364.35 L-1.93,357.58 L-2.92,352.12 L-6.00,347.61 L-11.36,342.99 L-17.87,337.19 L-23.54,329.80 L-26.36,321.37 L-25.19,313.18 L-20.16,306.56 L-12.58,302.21 L-4.21,299.89 L3.53,298.62 L10.04,297.27 L15.62,295.19 L20.96,292.63 L26.63,290.47 L32.66,289.74 L38.64,290.95 L44.06,293.81 L48.80,297.35 L53.29,300.50 L58.32,302.68 L64.51,304.11 L71.84,305.73 L79.47,308.60 L86.03,313.38 L90.20,319.96 L91.33,327.58 L89.73,335.24 L86.45,342.26 L82.72,348.50 L79.37,354.29 L76.47,360.04 L73.48,365.80 L69.68,371.15 Z" fill="#6E7359" fill-opacity="0.45"/>
<path d="M464.66,-24.62 L458.62,-22.00 L452.15,-20.93 L445.87,-20.70 L440.02,-20.32 L434.31,-19.07 L428.21,-17.01 L421.39,-15.05 L414.15,-14.53 L407.38,-16.54 L402.17,-21.34 L399.20,-28.18 L398.24,-35.65 L398.07,-42.42 L397.08,-47.88 L394.00,-52.39 L388.64,-57.01 L382.13,-62.81 L376.46,-70.20 L373.64,-78.63 L374.81,-86.82 L379.84,-93.44 L387.42,-97.79 L395.79,-100.11 L403.53,-101.38 L410.04,-102.73 L415.62,-104.81 L420.96,-107.37 L426.63,-109.53 L432.66,-110.26 L438.64,-109.05 L444.06,-106.19 L448.80,-102.65 L453.29,-99.50 L458.32,-97.32 L464.51,-95.89 L471.84,-94.27 L479.47,-91.40 L486.03,-86.62 L490.20,-80.04 L491.33,-72.42 L489.73,-64.76 L486.45,-57.74 L482.72,-51.50 L479.37,-45.71 L476.47,-39.96 L473.48,-34.20 L469.68,-28.85 Z" fill="#6E7359" fill-opacity="0.45"/>
<path d="M464.66,375.38 L458.62,378.00 L452.15,379.07 L445.87,379.30 L440.02,379.68 L434.31,380.93 L428.21,382.99 L421.39,384.95 L414.15,385.47 L407.38,383.46 L402.17,378.66 L399.20,371.82 L398.24,364.35 L398.07,357.58 L397.08,352.12 L394.00,347.61 L388.64,342.99 L382.13,337.19 L376.46,329.80 L373.64,321.37 L374.81,313.18 L379.84,306.56 L387.42,302.21 L395.79,299.89 L403.53,298.62 L410.04,297.27 L415.62,295.19 L420.96,292.63 L426.63,290.47 L432.66,289.74 L438.64,290.95 L444.06,293.81 L448.80,297.35 L453.29,300.50 L458.32,302.68 L464.51,304.11 L471.84,305.73 L479.47,308.60 L486.03,313.38 L490.20,319.96 L491.33,327.58 L489.73,335.24 L486.45,342.26 L482.72,348.50 L479.37,354.29 L476.47,360.04 L473.48,365.80 L469.68,371.15 Z" fill="#6E7359" fill-opacity="0.45"/>
<path d="M159.95,199.79 L158.03,205.28 L154.35,209.58 L149.23,212.05 L143.42,212.58 L137.69,211.67 L132.55,210.26 L127.97,209.32 L123.56,209.36 L118.81,210.20 L113.50,211.10 L107.87,211.06 L102.61,209.35 L98.46,205.81 L95.90,200.91 L94.77,195.46 L94.41,190.20 L93.97,185.45 L92.80,181.05 L90.90,176.53 L88.87,171.53 L87.69,166.05 L88.24,160.55 L90.86,155.75 L95.26,152.25 L100.62,150.20 L105.99,149.20 L110.73,148.45 L114.72,147.16 L118.32,144.93 L122.10,141.87 L126.51,138.62 L131.68,136.01 L137.36,134.76 L143.10,135.23 L148.40,137.38 L152.91,140.89 L156.47,145.36 L158.99,150.38 L160.50,155.67 L161.04,160.97 L160.79,166.05 L160.04,170.77 L159.26,175.12 L158.88,179.28 L159.12,183.61 L159.78,188.46 L160.32,193.95 Z" fill="#6E7359" fill-opacity="0.45"/>
<path d="M344.85,-47.81 L346.33,-37.47 L347.43,-26.39 L346.59,-14.97 L342.68,-4.26 L335.59,4.65 L326.28,11.25 L316.20,16.08 L306.49,20.49 L297.35,25.89 L288.10,32.84 L277.70,40.48 L265.63,46.72 L252.44,49.08 L239.69,45.94 L229.24,37.28 L222.23,24.84 L218.40,11.36 L216.08,-0.68 L212.99,-10.04 L207.37,-17.15 L198.95,-23.65 L189.19,-31.32 L180.64,-41.14 L175.82,-52.81 L176.09,-65.03 L181.13,-76.27 L189.26,-85.67 L198.37,-93.37 L206.85,-100.34 L214.25,-107.62 L221.19,-115.65 L228.73,-123.91 L237.67,-131.18 L248.12,-136.21 L259.52,-138.35 L271.09,-137.86 L282.34,-135.63 L293.25,-132.60 L304.04,-129.18 L314.79,-125.05 L325.07,-119.45 L333.93,-111.74 L340.35,-101.90 L343.85,-90.65 L344.81,-79.07 L344.45,-68.03 L344.17,-57.76 Z" fill="#B5C49F" fill-opacity="0.45"/>
<path d="M344.85,352.19 L346.33,362.53 L347.43,373.61 L346.59,385.03 L342.68,395.74 L335.59,404.65 L326.28,411.25 L316.20,416.08 L306.49,420.49 L297.35,425.89 L288.10,432.84 L277.70,440.48 L265.63,446.72 L252.44,449.08 L239.69,445.94 L229.24,437.28 L222.23,424.84 L218.40,411.36 L216.08,399.32 L212.99,389.96 L207.37,382.85 L198.95,376.35 L189.19,368.68 L180.64,358.86 L175.82,347.19 L176.09,334.97 L181.13,323.73 L189.26,314.33 L198.37,306.63 L206.85,299.66 L214.25,292.38 L221.19,284.35 L228.73,276.09 L237.67,268.82 L248.12,263.79 L259.52,261.65 L271.09,262.14 L282.34,264.37 L293.25,267.40 L304.04,270.82 L314.79,274.95 L325.07,280.55 L333.93,288.26 L340.35,298.10 L343.85,309.35 L344.81,320.93 L344.45,331.97 L344.17,342.24 Z" fill="#B5C49F" fill-opacity="0.45"/>
<path d="M211.31,193.92 L210.96,197.85 L209.21,201.34 L206.31,204.01 L202.78,205.80 L199.19,206.99 L195.86,207.98 L192.80,209.07 L189.81,210.28 L186.69,211.30 L183.42,211.71 L180.16,211.24 L177.12,209.94 L174.41,208.18 L171.89,206.41 L169.24,204.91 L166.21,203.64 L162.83,202.23 L159.51,200.23 L156.92,197.40 L155.66,193.86 L155.97,190.03 L157.51,186.42 L159.54,183.27 L161.21,180.46 L162.04,177.56 L162.09,174.09 L162.00,169.96 L162.59,165.56 L164.47,161.69 L167.75,159.23 L171.96,158.68 L176.34,159.91 L180.25,162.16 L183.45,164.42 L186.16,165.86 L188.87,166.20 L192.00,165.79 L195.58,165.42 L199.25,165.85 L202.43,167.47 L204.65,170.18 L205.86,173.51 L206.41,176.93 L206.89,180.16 L207.77,183.24 L209.10,186.45 L210.50,190.01 Z" fill="#626451" fill-opacity="0.45"/>
<path d="M180.55,220.69 L175.90,223.54 L171.07,225.85 L166.32,228.18 L161.53,230.90 L156.35,233.89 L150.53,236.51 L144.18,237.89 L137.75,237.36 L131.86,234.77 L126.95,230.59 L123.03,225.59 L119.73,220.50 L116.57,215.65 L113.31,210.92 L110.18,205.97 L107.80,200.52 L106.85,194.65 L107.63,188.74 L109.88,183.23 L112.82,178.28 L115.59,173.66 L117.70,168.80 L119.31,163.27 L121.16,157.13 L124.13,151.12 L128.75,146.44 L134.83,144.21 L141.58,144.88 L147.98,147.91 L153.40,151.91 L157.92,155.23 L162.31,156.74 L167.54,156.28 L174.20,154.80 L182.05,153.85 L189.99,154.85 L196.52,158.49 L200.42,164.49 L201.27,171.81 L199.63,179.23 L196.71,185.91 L193.81,191.66 L191.70,196.83 L190.36,201.90 L189.19,207.11 L187.41,212.27 L184.53,216.93 Z" fill="#626451" fill-opacity="0.45"/>
<path d="M306.86,335.73 L307.47,331.34 L307.55,327.70 L306.26,324.51 L303.48,321.10 L299.88,316.85 L296.73,311.60 L295.35,305.84 L296.54,300.51 L300.25,296.59 L305.66,294.57 L311.57,294.22 L316.94,294.69 L321.34,294.91 L324.97,294.15 L328.41,292.33 L332.19,290.09 L336.50,288.41 L341.03,288.12 L345.26,289.55 L348.75,292.42 L351.44,296.01 L353.66,299.63 L355.91,302.90 L358.56,305.88 L361.55,308.94 L364.43,312.46 L366.54,316.58 L367.36,321.10 L366.74,325.65 L364.98,329.89 L362.60,333.70 L360.07,337.19 L357.59,340.59 L355.05,343.96 L352.19,347.16 L348.80,349.86 L344.89,351.75 L340.67,352.73 L336.39,353.01 L332.19,352.99 L327.99,353.00 L323.63,353.04 L319.07,352.77 L314.56,351.63 L310.65,349.17 L307.94,345.35 L306.75,340.62 Z" fill="#6E7359" fill-opacity="0.45"/>
<path d="M161.40,366.06 L160.58,369.95 L158.43,373.16 L155.14,375.21 L151.20,375.95 L147.23,375.68 L143.62,374.99 L140.46,374.46 L137.56,374.42 L134.64,374.76 L131.53,375.08 L128.35,374.83 L125.39,373.68 L122.97,371.62 L121.20,368.96 L119.93,366.13 L118.77,363.46 L117.33,361.02 L115.44,358.59 L113.28,355.90 L111.28,352.75 L109.99,349.16 L109.81,345.40 L110.83,341.81 L112.83,338.66 L115.47,336.05 L118.39,333.91 L121.40,332.13 L124.45,330.66 L127.59,329.59 L130.82,329.05 L134.04,329.15 L137.12,329.80 L139.99,330.75 L142.70,331.70 L145.43,332.42 L148.37,332.95 L151.57,333.57 L154.82,334.66 L157.72,336.53 L159.81,339.22 L160.84,342.48 L160.90,345.93 L160.42,349.22 L159.96,352.26 L159.97,355.24 L160.50,358.45 L161.18,362.09 Z" fill="#626451" fill-opacity="0.45"/>
<path d="M199.14,303.66 L201.82,300.32 L204.36,296.44 L207.24,292.18 L210.89,288.15 L215.45,285.20 L220.67,284.03 L225.96,284.92 L230.78,287.53 L234.81,291.11 L238.17,294.82 L241.26,298.05 L244.51,300.70 L248.11,303.09 L251.87,305.72 L255.32,308.98 L257.93,312.99 L259.39,317.53 L259.71,322.30 L259.19,327.01 L258.19,331.56 L256.92,335.99 L255.35,340.33 L253.27,344.49 L250.47,348.22 L246.93,351.24 L242.84,353.41 L238.53,354.86 L234.29,355.98 L230.15,357.21 L225.94,358.77 L221.39,360.52 L216.37,361.92 L211.05,362.26 L205.93,361.03 L201.57,358.10 L198.37,353.85 L196.33,348.96 L195.08,344.08 L194.03,339.59 L192.73,335.48 L191.13,331.47 L189.56,327.25 L188.65,322.74 L188.90,318.14 L190.48,313.81 L193.09,310.02 L196.16,306.74 Z" fill="#B5C49F" fill-opacity="0.45"/>
<path d="M44.04,101.81 L49.30,99.57 L55.06,99.22 L60.75,100.87 L65.83,103.96 L70.08,107.44 L73.81,110.17 L77.77,111.51 L82.66,111.58 L88.73,111.28 L95.49,111.81 L101.83,114.10 L106.51,118.41 L108.71,124.22 L108.49,130.59 L106.69,136.69 L104.57,142.15 L103.14,147.24 L102.65,152.47 L102.55,158.19 L101.76,164.20 L99.34,169.70 L94.94,173.70 L89.02,175.53 L82.57,175.26 L76.57,173.78 L71.52,172.40 L67.22,172.24 L63.00,173.71 L58.16,176.28 L52.42,178.76 L46.15,179.87 L40.14,178.77 L35.23,175.44 L31.84,170.49 L29.82,164.86 L28.55,159.30 L27.39,154.11 L25.98,149.15 L24.47,144.14 L23.36,138.86 L23.19,133.40 L24.22,128.01 L26.35,122.95 L29.18,118.27 L32.35,113.84 L35.75,109.50 L39.55,105.35 Z" fill="#626451" fill-opacity="0.45"/>
<path d="M-57.78,102.32 L-43.96,96.19 L-29.13,94.10 L-15.55,98.15 L-5.57,108.30 L-0.43,122.55 L0.46,137.94 L-0.74,151.94 L-1.35,163.42 L0.60,172.87 L5.43,181.79 L11.81,191.66 L17.48,203.12 L20.37,215.76 L19.39,228.50 L14.74,240.33 L7.44,250.74 L-1.39,259.82 L-11.07,267.87 L-21.49,274.90 L-32.79,280.40 L-44.93,283.55 L-57.42,283.76 L-69.55,281.20 L-80.77,276.88 L-91.13,272.21 L-101.30,268.31 L-112.07,265.31 L-123.74,262.29 L-135.62,257.73 L-146.12,250.41 L-153.43,240.09 L-156.49,227.67 L-155.65,214.73 L-152.66,202.60 L-149.88,191.66 L-149.11,181.19 L-150.60,169.94 L-152.89,157.14 L-153.47,143.21 L-150.06,129.88 L-141.76,119.45 L-129.47,113.56 L-115.38,112.27 L-101.81,113.75 L-90.04,115.16 L-79.78,113.95 L-69.54,109.23 Z" fill="#6E7359" fill-opacity="0.45"/>
<path d="M342.22,102.32 L356.04,96.19 L370.87,94.10 L384.45,98.15 L394.43,108.30 L399.57,122.55 L400.46,137.94 L399.26,151.94 L398.65,163.42 L400.60,172.87 L405.43,181.79 L411.81,191.66 L417.48,203.12 L420.37,215.76 L419.39,228.50 L414.74,240.33 L407.44,250.74 L398.61,259.82 L388.93,267.87 L378.51,274.90 L367.21,280.40 L355.07,283.55 L342.58,283.76 L330.45,281.20 L319.23,276.88 L308.87,272.21 L298.70,268.31 L287.93,265.31 L276.26,262.29 L264.38,257.73 L253.88,250.41 L246.57,240.09 L243.51,227.67 L244.35,214.73 L247.34,202.60 L250.12,191.66 L250.89,181.19 L249.40,169.94 L247.11,157.14 L246.53,143.21 L249.94,129.88 L258.24,119.45 L270.53,113.56 L284.62,112.27 L298.19,113.75 L309.96,115.16 L320.22,113.95 L330.46,109.23 Z" fill="#6E7359" fill-opacity="0.45"/>
<path d="M46.01,224.55 L44.07,220.33 L43.96,215.69 L45.53,211.21 L48.04,207.25 L50.49,203.77 L52.15,200.27 L52.89,196.19 L53.25,191.25 L54.13,185.74 L56.34,180.56 L60.16,176.80 L65.23,175.28 L70.74,176.14 L75.87,178.78 L80.18,182.07 L83.74,184.91 L87.06,186.67 L90.67,187.40 L94.80,187.74 L99.25,188.50 L103.46,190.28 L106.87,193.22 L109.18,197.07 L110.50,201.35 L111.20,205.71 L111.69,210.02 L112.11,214.36 L112.27,218.83 L111.78,223.34 L110.29,227.64 L107.73,231.41 L104.37,234.47 L100.66,236.90 L96.98,239.07 L93.45,241.35 L89.90,243.86 L86.03,246.36 L81.69,248.25 L77.01,248.86 L72.40,247.84 L68.33,245.31 L65.02,241.89 L62.29,238.36 L59.68,235.30 L56.68,232.82 L53.11,230.57 L49.30,227.96 Z" fill="#B5C49F" fill-opacity="0.45"/>
<path d="M330.55,139.48 L331.41,135.78 L332.86,132.36 L334.68,129.27 L336.67,126.47 L338.74,123.88 L340.89,121.46 L343.23,119.24 L345.83,117.36 L348.69,115.92 L351.72,114.96 L354.80,114.34 L357.90,113.80 L361.11,113.11 L364.60,112.24 L368.50,111.42 L372.75,111.12 L376.98,111.84 L380.64,113.92 L383.16,117.28 L384.25,121.48 L384.06,125.90 L383.17,129.98 L382.36,133.48 L382.27,136.55 L383.12,139.63 L384.56,143.12 L385.84,147.14 L386.14,151.41 L384.91,155.32 L382.09,158.24 L378.13,159.76 L373.76,159.97 L369.64,159.38 L366.13,158.69 L363.19,158.54 L360.47,159.19 L357.58,160.48 L354.26,161.91 L350.51,162.92 L346.56,163.05 L342.74,162.12 L339.30,160.22 L336.38,157.57 L334.01,154.41 L332.20,150.91 L330.97,147.18 L330.40,143.33 Z" fill="#626451" fill-opacity="0.45"/>
<path d="M107.01,111.98 L105.00,109.01 L101.88,107.30 L97.29,106.16 L91.72,104.55 L86.39,101.67 L82.76,97.37 L81.86,92.19 L83.84,87.07 L87.95,82.83 L92.85,79.73 L97.27,77.44 L100.47,75.23 L102.51,72.48 L104.04,68.99 L105.84,65.15 L108.47,61.68 L111.99,59.25 L116.09,58.15 L120.32,58.17 L124.45,58.79 L128.47,59.52 L132.55,60.18 L136.78,60.97 L141.00,62.34 L144.82,64.63 L147.84,67.90 L149.85,71.88 L151.02,76.13 L151.77,80.29 L152.58,84.29 L153.61,88.30 L154.60,92.51 L154.96,96.94 L154.12,101.30 L151.83,105.11 L148.34,108.01 L144.32,109.99 L140.48,111.51 L137.22,113.27 L134.43,115.83 L131.59,119.19 L128.18,122.71 L123.97,125.31 L119.29,125.99 L114.83,124.32 L111.26,120.68 L108.79,116.15 Z" fill="#8D9971" fill-opacity="0.45"/>
<path d="M-67.07,218.77 L-64.11,212.12 L-59.36,206.51 L-54.04,201.99 L-49.03,198.20 L-44.65,194.66 L-40.70,191.10 L-36.77,187.57 L-32.51,184.33 L-27.81,181.62 L-22.75,179.49 L-17.40,177.78 L-11.75,176.35 L-5.74,175.27 L0.61,174.92 L7.01,175.84 L12.90,178.46 L17.67,182.82 L20.97,188.43 L22.94,194.53 L24.26,200.40 L25.80,205.74 L28.14,210.77 L31.23,216.02 L34.28,221.94 L36.07,228.51 L35.53,235.14 L32.28,240.95 L26.86,245.24 L20.45,247.93 L14.34,249.70 L9.30,251.66 L5.29,254.80 L1.58,259.36 L-2.77,264.62 L-8.27,269.12 L-14.72,271.31 L-21.29,270.32 L-26.97,266.31 L-31.19,260.47 L-34.18,254.42 L-36.86,249.46 L-40.38,246.05 L-45.45,243.69 L-51.90,241.25 L-58.67,237.67 L-64.22,232.45 L-67.22,225.86 Z" fill="#8D9971" fill-opacity="0.45"/>
<path d="M332.93,218.77 L335.89,212.12 L340.64,206.51 L345.96,201.99 L350.97,198.20 L355.35,194.66 L359.30,191.10 L363.23,187.57 L367.49,184.33 L372.19,181.62 L377.25,179.49 L382.60,177.78 L388.25,176.35 L394.26,175.27 L400.61,174.92 L407.01,175.84 L412.90,178.46 L417.67,182.82 L420.97,188.43 L422.94,194.53 L424.26,200.40 L425.80,205.74 L428.14,210.77 L431.23,216.02 L434.28,221.94 L436.07,228.51 L435.53,235.14 L432.28,240.95 L426.86,245.24 L420.45,247.93 L414.34,249.70 L409.30,251.66 L405.29,254.80 L401.58,259.36 L397.23,264.62 L391.73,269.12 L385.28,271.31 L378.71,270.32 L373.03,266.31 L368.81,260.47 L365.82,254.42 L363.14,249.46 L359.62,246.05 L354.55,243.69 L348.10,241.25 L341.33,237.67 L335.78,232.45 L332.78,225.86 Z" fill="#8D9971" fill-opacity="0.45"/>
<path d="M-158.42,104.94 L-165.41,97.12 L-173.31,88.59 L-180.48,78.51 L-185.16,66.92 L-186.24,54.57 L-183.66,42.48 L-178.31,31.36 L-171.50,21.28 L-164.25,11.78 L-156.89,2.35 L-149.06,-7.13 L-140.07,-16.07 L-129.46,-23.34 L-117.36,-27.77 L-104.51,-28.67 L-91.85,-26.24 L-80.15,-21.44 L-69.58,-15.59 L-59.79,-9.77 L-50.20,-4.42 L-40.40,0.77 L-30.47,6.55 L-20.99,13.66 L-12.80,22.48 L-6.59,32.88 L-2.68,44.39 L-0.99,56.40 L-1.21,68.45 L-3.04,80.25 L-6.35,91.58 L-11.14,102.25 L-17.34,112.01 L-24.69,120.73 L-32.77,128.56 L-41.17,135.94 L-49.74,143.43 L-58.78,151.39 L-68.85,159.52 L-80.43,166.77 L-93.50,171.56 L-107.30,172.33 L-120.48,168.25 L-131.62,159.62 L-139.86,147.92 L-145.35,135.21 L-149.24,123.35 L-153.15,113.33 Z" fill="#B5C49F" fill-opacity="0.45"/>
<path d="M-158.42,504.94 L-165.41,497.12 L-173.31,488.59 L-180.48,478.51 L-185.16,466.92 L-186.24,454.57 L-183.66,442.48 L-178.31,431.36 L-171.50,421.28 L-164.25,411.78 L-156.89,402.35 L-149.06,392.87 L-140.07,383.93 L-129.46,376.66 L-117.36,372.23 L-104.51,371.33 L-91.85,373.76 L-80.15,378.56 L-69.58,384.41 L-59.79,390.23 L-50.20,395.58 L-40.40,400.77 L-30.47,406.55 L-20.99,413.66 L-12.80,422.48 L-6.59,432.88 L-2.68,444.39 L-0.99,456.40 L-1.21,468.45 L-3.04,480.25 L-6.35,491.58 L-11.14,502.25 L-17.34,512.01 L-24.69,520.73 L-32.77,528.56 L-41.17,535.94 L-49.74,543.43 L-58.78,551.39 L-68.85,559.52 L-80.43,566.77 L-93.50,571.56 L-107.30,572.33 L-120.48,568.25 L-131.62,559.62 L-139.86,547.92 L-145.35,535.21 L-149.24,523.35 L-153.15,513.33 Z" fill="#B5C49F" fill-opacity="0.45"/>
<path d="M241.58,104.94 L234.59,97.12 L226.69,88.59 L219.52,78.51 L214.84,66.92 L213.76,54.57 L216.34,42.48 L221.69,31.36 L228.50,21.28 L235.75,11.78 L243.11,2.35 L250.94,-7.13 L259.93,-16.07 L270.54,-23.34 L282.64,-27.77 L295.49,-28.67 L308.15,-26.24 L319.85,-21.44 L330.42,-15.59 L340.21,-9.77 L349.80,-4.42 L359.60,0.77 L369.53,6.55 L379.01,13.66 L387.20,22.48 L393.41,32.88 L397.32,44.39 L399.01,56.40 L398.79,68.45 L396.96,80.25 L393.65,91.58 L388.86,102.25 L382.66,112.01 L375.31,120.73 L367.23,128.56 L358.83,135.94 L350.26,143.43 L341.22,151.39 L331.15,159.52 L319.57,166.77 L306.50,171.56 L292.70,172.33 L279.52,168.25 L268.38,159.62 L260.14,147.92 L254.65,135.21 L250.76,123.35 L246.85,113.33 Z" fill="#B5C49F" fill-opacity="0.45"/>
<path d="M241.58,504.94 L234.59,497.12 L226.69,488.59 L219.52,478.51 L214.84,466.92 L213.76,454.57 L216.34,442.48 L221.69,431.36 L228.50,421.28 L235.75,411.78 L243.11,402.35 L250.94,392.87 L259.93,383.93 L270.54,376.66 L282.64,372.23 L295.49,371.33 L308.15,373.76 L319.85,378.56 L330.42,384.41 L340.21,390.23 L349.80,395.58 L359.60,400.77 L369.53,406.55 L379.01,413.66 L387.20,422.48 L393.41,432.88 L397.32,444.39 L399.01,456.40 L398.79,468.45 L396.96,480.25 L393.65,491.58 L388.86,502.25 L382.66,512.01 L375.31,520.73 L367.23,528.56 L358.83,535.94 L350.26,543.43 L341.22,551.39 L331.15,559.52 L319.57,566.77 L306.50,571.56 L292.70,572.33 L279.52,568.25 L268.38,559.62 L260.14,547.92 L254.65,535.21 L250.76,523.35 L246.85,513.33 Z" fill="#B5C49F" fill-opacity="0.45"/>
<path d="M201.84,128.57 L202.18,119.42 L206.06,111.22 L213.15,105.08 L222.22,101.50 L231.59,100.05 L239.88,99.48 L246.57,98.26 L252.08,95.35 L257.42,90.71 L263.57,85.33 L270.94,80.82 L279.18,78.69 L287.39,79.70 L294.68,83.63 L300.60,89.47 L305.34,96.01 L309.52,102.36 L313.76,108.28 L318.25,114.07 L322.64,120.27 L326.21,127.18 L328.24,134.75 L328.46,142.59 L327.09,150.30 L324.69,157.68 L321.81,164.81 L318.65,171.88 L314.98,178.91 L310.35,185.54 L304.42,191.11 L297.24,194.94 L289.27,196.67 L281.18,196.51 L273.49,195.16 L266.34,193.50 L259.50,192.12 L252.62,191.04 L245.55,189.75 L238.51,187.53 L232.03,183.87 L226.64,178.73 L222.48,172.56 L219.20,165.99 L216.06,159.40 L212.44,152.73 L208.28,145.58 L204.31,137.51 Z" fill="#626451" fill-opacity="0.45"/>
<path d="M137.03,31.02 L140.70,26.59 L144.50,22.59 L147.98,18.57 L151.15,14.06 L154.45,9.00 L158.46,3.87 L163.55,-0.44 L169.62,-3.02 L176.16,-3.38 L182.54,-1.71 L188.36,1.18 L193.67,4.34 L198.89,7.09 L204.47,9.39 L210.44,11.81 L216.25,15.15 L220.89,19.94 L223.36,26.12 L223.21,33.01 L220.83,39.69 L217.40,45.51 L214.35,50.44 L212.76,55.03 L212.81,60.13 L213.75,66.26 L214.27,73.31 L213.14,80.42 L209.73,86.42 L204.29,90.35 L197.65,91.91 L190.81,91.65 L184.42,90.57 L178.58,89.70 L172.93,89.54 L167.05,89.88 L160.79,89.96 L154.43,88.94 L148.58,86.29 L143.76,82.05 L140.21,76.70 L137.74,70.88 L135.89,65.05 L134.32,59.32 L132.98,53.59 L132.21,47.73 L132.49,41.82 L134.13,36.14 Z" fill="#6E7359" fill-opacity="0.45"/>
<path d="M137.03,431.02 L140.70,426.59 L144.50,422.59 L147.98,418.57 L151.15,414.06 L154.45,409.00 L158.46,403.87 L163.55,399.56 L169.62,396.98 L176.16,396.62 L182.54,398.29 L188.36,401.18 L193.67,404.34 L198.89,407.09 L204.47,409.39 L210.44,411.81 L216.25,415.15 L220.89,419.94 L223.36,426.12 L223.21,433.01 L220.83,439.69 L217.40,445.51 L214.35,450.44 L212.76,455.03 L212.81,460.13 L213.75,466.26 L214.27,473.31 L213.14,480.42 L209.73,486.42 L204.29,490.35 L197.65,491.91 L190.81,491.65 L184.42,490.57 L178.58,489.70 L172.93,489.54 L167.05,489.88 L160.79,489.96 L154.43,488.94 L148.58,486.29 L143.76,482.05 L140.21,476.70 L137.74,470.88 L135.89,465.05 L134.32,459.32 L132.98,453.59 L132.21,447.73 L132.49,441.82 L134.13,436.14 Z" fill="#6E7359" fill-opacity="0.45"/>
<path d="M219.60,132.90 L217.17,129.13 L215.80,124.86 L215.32,120.49 L215.31,116.30 L215.27,112.35 L214.90,108.49 L214.23,104.44 L213.61,100.05 L213.60,95.40 L214.68,90.83 L217.06,86.83 L220.59,83.79 L224.87,81.88 L229.39,80.94 L233.76,80.58 L237.86,80.39 L241.74,80.07 L245.61,79.56 L249.66,79.05 L253.93,78.82 L258.36,79.17 L262.78,80.29 L266.97,82.26 L270.73,85.03 L273.88,88.51 L276.22,92.59 L277.60,97.06 L277.92,101.71 L277.22,106.26 L275.74,110.49 L273.85,114.30 L271.96,117.76 L270.35,121.12 L269.05,124.66 L267.84,128.53 L266.32,132.63 L264.08,136.63 L260.96,140.03 L257.01,142.39 L252.56,143.53 L247.98,143.55 L243.53,142.83 L239.28,141.79 L235.15,140.68 L231.01,139.50 L226.87,138.01 L222.95,135.87 Z" fill="#8D9971" fill-opacity="0.45"/>
<path d="M21.78,149.04 L21.07,145.89 L21.05,142.61 L22.04,139.52 L24.07,137.00 L26.87,135.27 L30.01,134.29 L33.05,133.77 L35.80,133.32 L38.27,132.60 L40.70,131.56 L43.29,130.42 L46.14,129.57 L49.13,129.39 L52.04,130.05 L54.67,131.46 L56.97,133.35 L59.04,135.40 L61.10,137.44 L63.29,139.50 L65.55,141.76 L67.61,144.39 L69.05,147.44 L69.49,150.77 L68.79,154.07 L67.09,157.03 L64.75,159.48 L62.21,161.43 L59.82,163.08 L57.73,164.66 L55.85,166.33 L54.00,168.10 L51.99,169.87 L49.70,171.45 L47.14,172.73 L44.34,173.64 L41.37,174.17 L38.25,174.31 L35.08,173.98 L31.99,173.04 L29.20,171.41 L26.95,169.09 L25.40,166.24 L24.54,163.15 L24.17,160.09 L23.92,157.24 L23.47,154.57 L22.71,151.91 Z" fill="#8D9971" fill-opacity="0.45"/>
<path d="M-75.94,1.78 L-78.68,-3.62 L-81.40,-8.47 L-84.72,-12.81 L-88.99,-17.01 L-94.02,-21.70 L-99.05,-27.39 L-102.91,-34.19 L-104.49,-41.71 L-103.15,-49.10 L-98.99,-55.47 L-92.83,-60.24 L-85.87,-63.44 L-79.22,-65.68 L-73.46,-67.82 L-68.50,-70.55 L-63.81,-74.00 L-58.75,-77.64 L-53.00,-80.54 L-46.69,-81.79 L-40.34,-80.97 L-34.49,-78.30 L-29.37,-74.54 L-24.77,-70.62 L-20.13,-67.14 L-14.91,-64.13 L-8.95,-61.11 L-2.70,-57.34 L2.89,-52.28 L6.71,-45.88 L7.97,-38.63 L6.50,-31.33 L2.82,-24.71 L-2.06,-19.15 L-7.12,-14.56 L-11.61,-10.47 L-15.33,-6.31 L-18.53,-1.72 L-21.77,3.32 L-25.58,8.51 L-30.30,13.31 L-35.99,17.17 L-42.47,19.65 L-49.37,20.44 L-56.25,19.44 L-62.63,16.71 L-68.14,12.53 L-72.55,7.35 Z" fill="#626451" fill-opacity="0.45"/>
<path d="M-75.94,401.78 L-78.68,396.38 L-81.40,391.53 L-84.72,387.19 L-88.99,382.99 L-94.02,378.30 L-99.05,372.61 L-102.91,365.81 L-104.49,358.29 L-103.15,350.90 L-98.99,344.53 L-92.83,339.76 L-85.87,336.56 L-79.22,334.32 L-73.46,332.18 L-68.50,329.45 L-63.81,326.00 L-58.75,322.36 L-53.00,319.46 L-46.69,318.21 L-40.34,319.03 L-34.49,321.70 L-29.37,325.46 L-24.77,329.38 L-20.13,332.86 L-14.91,335.87 L-8.95,338.89 L-2.70,342.66 L2.89,347.72 L6.71,354.12 L7.97,361.37 L6.50,368.67 L2.82,375.29 L-2.06,380.85 L-7.12,385.44 L-11.61,389.53 L-15.33,393.69 L-18.53,398.28 L-21.77,403.32 L-25.58,408.51 L-30.30,413.31 L-35.99,417.17 L-42.47,419.65 L-49.37,420.44 L-56.25,419.44 L-62.63,416.71 L-68.14,412.53 L-72.55,407.35 Z" fill="#626451" fill-opacity="0.45"/>
<path d="M324.06,1.78 L321.32,-3.62 L318.60,-8.47 L315.28,-12.81 L311.01,-17.01 L305.98,-21.70 L300.95,-27.39 L297.09,-34.19 L295.51,-41.71 L296.85,-49.10 L301.01,-55.47 L307.17,-60.24 L314.13,-63.44 L320.78,-65.68 L326.54,-67.82 L331.50,-70.55 L336.19,-74.00 L341.25,-77.64 L347.00,-80.54 L353.31,-81.79 L359.66,-80.97 L365.51,-78.30 L370.63,-74.54 L375.23,-70.62 L379.87,-67.14 L385.09,-64.13 L391.05,-61.11 L397.30,-57.34 L402.89,-52.28 L406.71,-45.88 L407.97,-38.63 L406.50,-31.33 L402.82,-24.71 L397.94,-19.15 L392.88,-14.56 L388.39,-10.47 L384.67,-6.31 L381.47,-1.72 L378.23,3.32 L374.42,8.51 L369.70,13.31 L364.01,17.17 L357.53,19.65 L350.63,20.44 L343.75,19.44 L337.37,16.71 L331.86,12.53 L327.45,7.35 Z" fill="#626451" fill-opacity="0.45"/>
<path d="M324.06,401.78 L321.32,396.38 L318.60,391.53 L315.28,387.19 L311.01,382.99 L305.98,378.30 L300.95,372.61 L297.09,365.81 L295.51,358.29 L296.85,350.90 L301.01,344.53 L307.17,339.76 L314.13,336.56 L320.78,334.32 L326.54,332.18 L331.50,329.45 L336.19,326.00 L341.25,322.36 L347.00,319.46 L353.31,318.21 L359.66,319.03 L365.51,321.70 L370.63,325.46 L375.23,329.38 L379.87,332.86 L385.09,335.87 L391.05,338.89 L397.30,342.66 L402.89,347.72 L406.71,354.12 L407.97,361.37 L406.50,368.67 L402.82,375.29 L397.94,380.85 L392.88,385.44 L388.39,389.53 L384.67,393.69 L381.47,398.28 L378.23,403.32 L374.42,408.51 L369.70,413.31 L364.01,417.17 L357.53,419.65 L350.63,420.44 L343.75,419.44 L337.37,416.71 L331.86,412.53 L327.45,407.35 Z" fill="#626451" fill-opacity="0.45"/>
<path d="M103.33,125.64 L114.18,132.16 L123.47,140.04 L131.49,148.15 L138.72,156.00 L145.46,163.64 L151.72,171.44 L157.27,179.71 L161.84,188.57 L165.33,197.94 L167.78,207.69 L169.25,217.74 L169.74,228.04 L169.02,238.51 L166.80,248.92 L162.88,258.93 L157.33,268.21 L150.44,276.61 L142.61,284.23 L134.10,291.33 L124.88,298.00 L114.76,303.95 L103.63,308.40 L91.72,310.26 L79.78,308.66 L68.83,303.40 L59.73,295.19 L52.72,285.51 L47.18,276.01 L41.86,267.85 L35.45,261.20 L27.34,255.23 L18.07,248.61 L9.26,240.25 L3.03,229.87 L1.09,218.23 L3.99,206.71 L10.82,196.61 L19.65,188.47 L28.33,181.76 L35.39,175.21 L40.63,167.44 L45.01,157.80 L50.08,146.78 L57.19,135.93 L66.86,127.23 L78.58,122.34 L91.17,121.96 Z" fill="#626451" fill-opacity="0.45"/>
<path d="M503.33,125.64 L514.18,132.16 L523.47,140.04 L531.49,148.15 L538.72,156.00 L545.46,163.64 L551.72,171.44 L557.27,179.71 L561.84,188.57 L565.33,197.94 L567.78,207.69 L569.25,217.74 L569.74,228.04 L569.02,238.51 L566.80,248.92 L562.88,258.93 L557.33,268.21 L550.44,276.61 L542.61,284.23 L534.10,291.33 L524.88,298.00 L514.76,303.95 L503.63,308.40 L491.72,310.26 L479.78,308.66 L468.83,303.40 L459.73,295.19 L452.72,285.51 L447.18,276.01 L441.86,267.85 L435.45,261.20 L427.34,255.23 L418.07,248.61 L409.26,240.25 L403.03,229.87 L401.09,218.23 L403.99,206.71 L410.82,196.61 L419.65,188.47 L428.33,181.76 L435.39,175.21 L440.63,167.44 L445.01,157.80 L450.08,146.78 L457.19,135.93 L466.86,127.23 L478.58,122.34 L491.17,121.96 Z" fill="#626451" fill-opacity="0.45"/>
<path d="M-0.84,11.80 L5.21,10.56 L11.62,9.21 L18.33,9.00 L24.70,10.90 L29.95,15.07 L33.65,20.84 L36.02,27.08 L37.90,32.83 L40.24,37.74 L43.58,42.16 L47.61,46.80 L51.37,52.20 L53.63,58.39 L53.62,64.86 L51.32,70.94 L47.52,76.22 L43.31,80.82 L39.51,85.33 L36.26,90.34 L33.06,95.99 L29.13,101.75 L23.95,106.56 L17.58,109.39 L10.61,109.76 L3.79,108.05 L-2.45,105.27 L-8.20,102.55 L-13.95,100.51 L-20.11,98.95 L-26.57,97.00 L-32.52,93.65 L-36.78,88.43 L-38.43,81.65 L-37.35,74.31 L-34.52,67.53 L-31.64,61.90 L-30.38,57.17 L-31.59,52.38 L-34.80,46.52 L-38.47,39.13 L-40.66,30.71 L-39.89,22.55 L-35.81,16.15 L-29.18,12.41 L-21.40,11.23 L-13.78,11.60 L-6.98,12.12 Z" fill="#626451" fill-opacity="0.45"/>
<path d="M-0.84,411.80 L5.21,410.56 L11.62,409.21 L18.33,409.00 L24.70,410.90 L29.95,415.07 L33.65,420.84 L36.02,427.08 L37.90,432.83 L40.24,437.74 L43.58,442.16 L47.61,446.80 L51.37,452.20 L53.63,458.39 L53.62,464.86 L51.32,470.94 L47.52,476.22 L43.31,480.82 L39.51,485.33 L36.26,490.34 L33.06,495.99 L29.13,501.75 L23.95,506.56 L17.58,509.39 L10.61,509.76 L3.79,508.05 L-2.45,505.27 L-8.20,502.55 L-13.95,500.51 L-20.11,498.95 L-26.57,497.00 L-32.52,493.65 L-36.78,488.43 L-38.43,481.65 L-37.35,474.31 L-34.52,467.53 L-31.64,461.90 L-30.38,457.17 L-31.59,452.38 L-34.80,446.52 L-38.47,439.13 L-40.66,430.71 L-39.89,422.55 L-35.81,416.15 L-29.18,412.41 L-21.40,411.23 L-13.78,411.60 L-6.98,412.12 Z" fill="#626451" fill-opacity="0.45"/>
<path d="M399.16,11.80 L405.21,10.56 L411.62,9.21 L418.33,9.00 L424.70,10.90 L429.95,15.07 L433.65,20.84 L436.02,27.08 L437.90,32.83 L440.24,37.74 L443.58,42.16 L447.61,46.80 L451.37,52.20 L453.63,58.39 L453.62,64.86 L451.32,70.94 L447.52,76.22 L443.31,80.82 L439.51,85.33 L436.26,90.34 L433.06,95.99 L429.13,101.75 L423.95,106.56 L417.58,109.39 L410.61,109.76 L403.79,108.05 L397.55,105.27 L391.80,102.55 L386.05,100.51 L379.89,98.95 L373.43,97.00 L367.48,93.65 L363.22,88.43 L361.57,81.65 L362.65,74.31 L365.48,67.53 L368.36,61.90 L369.62,57.17 L368.41,52.38 L365.20,46.52 L361.53,39.13 L359.34,30.71 L360.11,22.55 L364.19,16.15 L370.82,12.41 L378.60,11.23 L386.22,11.60 L393.02,12.12 Z" fill="#626451" fill-opacity="0.45"/>
<path d="M399.16,411.80 L405.21,410.56 L411.62,409.21 L418.33,409.00 L424.70,410.90 L429.95,415.07 L433.65,420.84 L436.02,427.08 L437.90,432.83 L440.24,437.74 L443.58,442.16 L447.61,446.80 L451.37,452.20 L453.63,458.39 L453.62,464.86 L451.32,470.94 L447.52,476.22 L443.31,480.82 L439.51,485.33 L436.26,490.34 L433.06,495.99 L429.13,501.75 L423.95,506.56 L417.58,509.39 L410.61,509.76 L403.79,508.05 L397.55,505.27 L391.80,502.55 L386.05,500.51 L379.89,498.95 L373.43,497.00 L367.48,493.65 L363.22,488.43 L361.57,481.65 L362.65,474.31 L365.48,467.53 L368.36,461.90 L369.62,457.17 L368.41,452.38 L365.20,446.52 L361.53,439.13 L359.34,430.71 L360.11,422.55 L364.19,416.15 L370.82,412.41 L378.60,411.23 L386.22,411.60 L393.02,412.12 Z" fill="#626451" fill-opacity="0.45"/>
</svg>
</svg>