<?xml version="1.0" encoding="UTF-8"?>
<svg xmlns="http://www.w3.org/2000/svg" viewBox="0 0 400 400"
     width="400" height="400">
  <rect width="400" height="400" fill="#e8d5c0"/>
  <rect width="400.0" height="400.0" fill="#e8d5c0"/>
<rect x="26.45" y="0" width="33.06" height="400.0" fill="#c38d96" opacity="0.55"/>
<rect x="59.50" y="0" width="6.61" height="400.0" fill="#c38d96" opacity="0.55"/>
<rect x="79.34" y="0" width="6.61" height="400.0" fill="#c38d96" opacity="0.55"/>
<rect x="105.79" y="0" width="3.31" height="400.0" fill="#c38d96" opacity="0.55"/>
<rect x="119.01" y="0" width="3.31" height="400.0" fill="#c38d96" opacity="0.55"/>
<rect x="135.54" y="0" width="52.89" height="400.0" fill="#c38d96" opacity="0.55"/>
<rect x="201.65" y="0" width="6.61" height="400.0" fill="#c38d96" opacity="0.55"/>
<rect x="214.88" y="0" width="6.61" height="400.0" fill="#c38d96" opacity="0.55"/>
<rect x="234.71" y="0" width="19.83" height="400.0" fill="#b5734e" opacity="0.55"/>
<rect x="261.16" y="0" width="19.83" height="400.0" fill="#b5734e" opacity="0.55"/>
<rect x="294.21" y="0" width="3.31" height="400.0" fill="#c38d96" opacity="0.55"/>
<rect x="304.13" y="0" width="3.31" height="400.0" fill="#c38d96" opacity="0.55"/>
<rect x="320.66" y="0" width="39.67" height="400.0" fill="#c38d96" opacity="0.55"/>
<rect x="370.25" y="0" width="9.92" height="400.0" fill="#c38d96" opacity="0.55"/>
<rect x="0" y="26.45" width="400.0" height="33.06" fill="#c38d96" opacity="0.55"/>
<rect x="0" y="59.50" width="400.0" height="6.61" fill="#c38d96" opacity="0.55"/>
<rect x="0" y="79.34" width="400.0" height="6.61" fill="#c38d96" opacity="0.55"/>
<rect x="0" y="105.79" width="400.0" height="3.31" fill="#c38d96" opacity="0.55"/>
<rect x="0" y="119.01" width="400.0" height="3.31" fill="#c38d96" opacity="0.55"/>
<rect x="0" y="135.54" width="400.0" height="52.89" fill="#c38d96" opacity="0.55"/>
<rect x="0" y="201.65" width="400.0" height="6.61" fill="#c38d96" opacity="0.55"/>
<rect x="0" y="214.88" width="400.0" height="6.61" fill="#c38d96" opacity="0.55"/>
<rect x="0" y="234.71" width="400.0" height="19.83" fill="#b5734e" opacity="0.55"/>
<rect x="0" y="261.16" width="400.0" height="19.83" fill="#b5734e" opacity="0.55"/>
<rect x="0" y="294.21" width="400.0" height="3.31" fill="#c38d96" opacity="0.55"/>
<rect x="0" y="304.13" width="400.0" height="3.31" fill="#c38d96" opacity="0.55"/>
<rect x="0" y="320.66" width="400.0" height="39.67" fill="#c38d96" opacity="0.55"/>
<rect x="0" y="370.25" width="400.0" height="9.92" fill="#c38d96" opacity="0.55"/>
</svg>