<?xml version="1.0" encoding="UTF-8"?>
<!-- RepeatTile Studio — All-over Seamless Repeat -->
<!-- Tegel: 40x40cm | DPI: 150 | Repeat: brick -->
<!-- Afmeting: 120x120cm = 7087x7087px @ 150DPI -->
<svg xmlns="http://www.w3.org/2000/svg" xmlns:xlink="http://www.w3.org/1999/xlink"
     viewBox="0 0 1200 1200"
     width="7087px" height="7087px">
  <defs>
    <symbol id="tile" viewBox="0 0 400 400" width="400" height="400" overflow="visible">
      <rect width="400" height="400" fill="#D4A574"/>
  <polygon points="117.6,87.4 87.4,117.6 44.6,117.6 14.4,87.4 14.4,44.6 44.6,14.4 87.4,14.4 117.6,44.6" fill="#8B6F47" stroke="#C19A6B" stroke-width="1"/>
<polygon points="66.0,40.9 91.1,66.0 66.0,91.1 40.9,66.0" fill="#A0826D" stroke="#C19A6B" stroke-width="0.5"/>
<circle cx="66.0" cy="66.0" r="6.7" fill="#C19A6B"/>
<polygon points="250.6,87.4 220.4,117.6 177.6,117.6 147.4,87.4 147.4,44.6 177.6,14.4 220.4,14.4 250.6,44.6" fill="#704214" stroke="#C19A6B" stroke-width="1"/>
<polygon points="199.0,40.9 224.1,66.0 199.0,91.1 173.9,66.0" fill="#A0826D" stroke="#C19A6B" stroke-width="0.5"/>
<circle cx="199.0" cy="66.0" r="6.7" fill="#C19A6B"/>
<polygon points="383.6,87.4 353.4,117.6 310.6,117.6 280.4,87.4 280.4,44.6 310.6,14.4 353.4,14.4 383.6,44.6" fill="#8B6F47" stroke="#C19A6B" stroke-width="1"/>
<polygon points="332.0,40.9 357.1,66.0 332.0,91.1 306.9,66.0" fill="#A0826D" stroke="#C19A6B" stroke-width="0.5"/>
<circle cx="332.0" cy="66.0" r="6.7" fill="#C19A6B"/>
<polygon points="516.6,87.4 486.4,117.6 443.6,117.6 413.4,87.4 413.4,44.6 443.6,14.4 486.4,14.4 516.6,44.6" fill="#704214" stroke="#C19A6B" stroke-width="1"/>
<polygon points="465.0,40.9 490.1,66.0 465.0,91.1 439.9,66.0" fill="#A0826D" stroke="#C19A6B" stroke-width="0.5"/>
<circle cx="465.0" cy="66.0" r="6.7" fill="#C19A6B"/>
<polygon points="117.6,220.4 87.4,250.6 44.6,250.6 14.4,220.4 14.4,177.6 44.6,147.4 87.4,147.4 117.6,177.6" fill="#704214" stroke="#C19A6B" stroke-width="1"/>
<polygon points="66.0,173.9 91.1,199.0 66.0,224.1 40.9,199.0" fill="#A0826D" stroke="#C19A6B" stroke-width="0.5"/>
<circle cx="66.0" cy="199.0" r="6.7" fill="#C19A6B"/>
<polygon points="250.6,220.4 220.4,250.6 177.6,250.6 147.4,220.4 147.4,177.6 177.6,147.4 220.4,147.4 250.6,177.6" fill="#8B6F47" stroke="#C19A6B" stroke-width="1"/>
<polygon points="199.0,173.9 224.1,199.0 199.0,224.1 173.9,199.0" fill="#A0826D" stroke="#C19A6B" stroke-width="0.5"/>
<circle cx="199.0" cy="199.0" r="6.7" fill="#C19A6B"/>
<polygon points="383.6,220.4 353.4,250.6 310.6,250.6 280.4,220.4 280.4,177.6 310.6,147.4 353.4,147.4 383.6,177.6" fill="#704214" stroke="#C19A6B" stroke-width="1"/>
<polygon points="332.0,173.9 357.1,199.0 332.0,224.1 306.9,199.0" fill="#A0826D" stroke="#C19A6B" stroke-width="0.5"/>
<circle cx="332.0" cy="199.0" r="6.7" fill="#C19A6B"/>
<polygon points="516.6,220.4 486.4,250.6 443.6,250.6 413.4,220.4 413.4,177.6 443.6,147.4 486.4,147.4 516.6,177.6" fill="#8B6F47" stroke="#C19A6B" stroke-width="1"/>
<polygon points="465.0,173.9 490.1,199.0 465.0,224.1 439.9,199.0" fill="#A0826D" stroke="#C19A6B" stroke-width="0.5"/>
<circle cx="465.0" cy="199.0" r="6.7" fill="#C19A6B"/>
<polygon points="117.6,353.4 87.4,383.6 44.6,383.6 14.4,353.4 14.4,310.6 44.6,280.4 87.4,280.4 117.6,310.6" fill="#8B6F47" stroke="#C19A6B" stroke-width="1"/>
<polygon points="66.0,306.9 91.1,332.0 66.0,357.1 40.9,332.0" fill="#A0826D" stroke="#C19A6B" stroke-width="0.5"/>
<circle cx="66.0" cy="332.0" r="6.7" fill="#C19A6B"/>
<polygon points="250.6,353.4 220.4,383.6 177.6,383.6 147.4,353.4 147.4,310.6 177.6,280.4 220.4,280.4 250.6,310.6" fill="#704214" stroke="#C19A6B" stroke-width="1"/>
<polygon points="199.0,306.9 224.1,332.0 199.0,357.1 173.9,332.0" fill="#A0826D" stroke="#C19A6B" stroke-width="0.5"/>
<circle cx="199.0" cy="332.0" r="6.7" fill="#C19A6B"/>
<polygon points="383.6,353.4 353.4,383.6 310.6,383.6 280.4,353.4 280.4,310.6 310.6,280.4 353.4,280.4 383.6,310.6" fill="#8B6F47" stroke="#C19A6B" stroke-width="1"/>
<polygon points="332.0,306.9 357.1,332.0 332.0,357.1 306.9,332.0" fill="#A0826D" stroke="#C19A6B" stroke-width="0.5"/>
<circle cx="332.0" cy="332.0" r="6.7" fill="#C19A6B"/>
<polygon points="516.6,353.4 486.4,383.6 443.6,383.6 413.4,353.4 413.4,310.6 443.6,280.4 486.4,280.4 516.6,310.6" fill="#704214" stroke="#C19A6B" stroke-width="1"/>
<polygon points="465.0,306.9 490.1,332.0 465.0,357.1 439.9,332.0" fill="#A0826D" stroke="#C19A6B" stroke-width="0.5"/>
<circle cx="465.0" cy="332.0" r="6.7" fill="#C19A6B"/>
<polygon points="117.6,486.4 87.4,516.6 44.6,516.6 14.4,486.4 14.4,443.6 44.6,413.4 87.4,413.4 117.6,443.6" fill="#704214" stroke="#C19A6B" stroke-width="1"/>
<polygon points="66.0,439.9 91.1,465.0 66.0,490.1 40.9,465.0" fill="#A0826D" stroke="#C19A6B" stroke-width="0.5"/>
<circle cx="66.0" cy="465.0" r="6.7" fill="#C19A6B"/>
<polygon points="250.6,486.4 220.4,516.6 177.6,516.6 147.4,486.4 147.4,443.6 177.6,413.4 220.4,413.4 250.6,443.6" fill="#8B6F47" stroke="#C19A6B" stroke-width="1"/>
<polygon points="199.0,439.9 224.1,465.0 199.0,490.1 173.9,465.0" fill="#A0826D" stroke="#C19A6B" stroke-width="0.5"/>
<circle cx="199.0" cy="465.0" r="6.7" fill="#C19A6B"/>
<polygon points="383.6,486.4 353.4,516.6 310.6,516.6 280.4,486.4 280.4,443.6 310.6,413.4 353.4,413.4 383.6,443.6" fill="#704214" stroke="#C19A6B" stroke-width="1"/>
<polygon points="332.0,439.9 357.1,465.0 332.0,490.1 306.9,465.0" fill="#A0826D" stroke="#C19A6B" stroke-width="0.5"/>
<circle cx="332.0" cy="465.0" r="6.7" fill="#C19A6B"/>
<polygon points="516.6,486.4 486.4,516.6 443.6,516.6 413.4,486.4 413.4,443.6 443.6,413.4 486.4,413.4 516.6,443.6" fill="#8B6F47" stroke="#C19A6B" stroke-width="1"/>
<polygon points="465.0,439.9 490.1,465.0 465.0,490.1 439.9,465.0" fill="#A0826D" stroke="#C19A6B" stroke-width="0.5"/>
<circle cx="465.0" cy="465.0" r="6.7" fill="#C19A6B"/>
<line x1="0" y1="0" x2="400" y2="0" stroke="#C19A6B" stroke-width="0.5" opacity="0.4"/>
<line x1="0" y1="0" x2="0" y2="400" stroke="#C19A6B" stroke-width="0.5" opacity="0.4"/>
<line x1="0" y1="133" x2="400" y2="133" stroke="#C19A6B" stroke-width="0.5" opacity="0.4"/>
<line x1="133" y1="0" x2="133" y2="400" stroke="#C19A6B" stroke-width="0.5" opacity="0.4"/>
<line x1="0" y1="266" x2="400" y2="266" stroke="#C19A6B" stroke-width="0.5" opacity="0.4"/>
<line x1="266" y1="0" x2="266" y2="400" stroke="#C19A6B" stroke-width="0.5" opacity="0.4"/>
<line x1="0" y1="399" x2="400" y2="399" stroke="#C19A6B" stroke-width="0.5" opacity="0.4"/>
<line x1="399" y1="0" x2="399" y2="400" stroke="#C19A6B" stroke-width="0.5" opacity="0.4"/>
    </symbol>
  </defs>
  <use href="#tile" transform="translate(0,0)"/><use href="#tile" transform="translate(400,0)"/><use href="#tile" transform="translate(800,0)"/><use href="#tile" transform="translate(200,400)"/><use href="#tile" transform="translate(600,400)"/><use href="#tile" transform="translate(1000,400)"/><use href="#tile" transform="translate(0,800)"/><use href="#tile" transform="translate(400,800)"/><use href="#tile" transform="translate(800,800)"/>
</svg>